font.ufo
<glyph name="grave" format="1">
	<unicode hex="0060"/>
	<advance width="400"/>
	<outline>
		<component base="gravecmb" xOffset="224"/>
		<contour>
			<point name="_aboveLC" x="208" y="516" type="move"/>
		</contour>
	</outline>
</glyph>
<glyph name="a" format="1">
  <advance width="531"/>
  <unicode hex="0061"/>
  <outline>
    <contour>
      <point x="456" y="87" type="curve" smooth="yes"/>
      <point x="456" y="312" type="line" smooth="yes"/>
      <point x="456" y="446"/>
      <point x="405" y="501"/>
      <point x="277" y="501" type="curve" smooth="yes"/>
      <point x="133" y="501"/>
      <point x="52" y="443"/>
      <point x="47" y="360" type="curve"/>
      <point x="55" y="327"/>
      <point x="78" y="309"/>
      <point x="114" y="309" type="curve" smooth="yes"/>
      <point x="153" y="309"/>
      <point x="186" y="337"/>
      <point x="188" y="403" type="curve" smooth="yes"/>
      <point x="195" y="473" type="line"/>
      <point x="126" y="435" type="line"/>
      <point x="169" y="446"/>
      <point x="195" y="449"/>
      <point x="219" y="449" type="curve" smooth="yes"/>
      <point x="283" y="449"/>
      <point x="300" y="422"/>
      <point x="300" y="334" type="curve" smooth="yes"/>
      <point x="300" y="83" type="line" smooth="yes"/>
      <point x="309" y="23"/>
      <point x="345" y="-14"/>
      <point x="416" y="-14" type="curve" smooth="yes"/>
      <point x="476" y="-14"/>
      <point x="511" y="6"/>
      <point x="535" y="62" type="curve"/>
      <point x="508" y="80" type="line"/>
      <point x="504" y="74" type="line" smooth="yes"/>
      <point x="496" y="63"/>
      <point x="487" y="58"/>
      <point x="477" y="58" type="curve" smooth="yes"/>
      <point x="463" y="58"/>
      <point x="456" y="68"/>
    </contour>
    <contour>
      <point x="179" y="140" type="curve" smooth="yes"/>
      <point x="179" y="187"/>
      <point x="208" y="221"/>
      <point x="253" y="240" type="curve" smooth="yes"/>
      <point x="283" y="253"/>
      <point x="337" y="268"/>
      <point x="384" y="280" type="curve"/>
      <point x="384" y="322" type="line"/>
      <point x="337" y="310"/>
      <point x="266" y="292"/>
      <point x="224" y="280" type="curve" smooth="yes"/>
      <point x="70" y="235"/>
      <point x="31" y="185"/>
      <point x="31" y="113" type="curve" smooth="yes"/>
      <point x="31" y="31"/>
      <point x="85" y="-15"/>
      <point x="162" y="-15" type="curve" smooth="yes"/>
      <point x="235" y="-15"/>
      <point x="266" y="16"/>
      <point x="314" y="68" type="curve" smooth="yes"/>
      <point x="356" y="113" type="line"/>
      <point x="346" y="128" type="line"/>
      <point x="305" y="98" type="line" smooth="yes"/>
      <point x="273" y="74"/>
      <point x="258" y="66"/>
      <point x="239" y="66" type="curve" smooth="yes"/>
      <point x="222" y="66"/>
      <point x="207" y="71"/>
      <point x="196" y="84" type="curve" smooth="yes"/>
      <point x="184" y="97"/>
      <point x="179" y="112"/>
    </contour>
  </outline>
</glyph>
<glyph name="mu.math" format="1">
  <advance width="594"/>
  <unicode hex="00B5"/>
  <outline>
    <contour>
      <point x="255" y="-15" type="curve" smooth="yes"/>
      <point x="342" y="-15"/>
      <point x="399" y="36"/>
      <point x="441" y="182" type="curve"/>
      <point x="425" y="190" type="line"/>
      <point x="381" y="154"/>
      <point x="334" y="126"/>
      <point x="280" y="126" type="curve" smooth="yes"/>
      <point x="205" y="126"/>
      <point x="145" y="159"/>
      <point x="145" y="265" type="curve" smooth="yes"/>
      <point x="145" y="294" type="line"/>
      <point x="111" y="294" type="line"/>
      <point x="111" y="179" type="line" smooth="yes"/>
      <point x="111" y="55"/>
      <point x="176" y="-15"/>
    </contour>
    <contour>
      <point x="67" y="134" type="line"/>
      <point x="33" y="-36" type="line" smooth="yes"/>
      <point x="23" y="-84"/>
      <point x="11" y="-125"/>
      <point x="11" y="-157" type="curve" smooth="yes"/>
      <point x="11" y="-215"/>
      <point x="40" y="-237"/>
      <point x="74" y="-237" type="curve" smooth="yes"/>
      <point x="109" y="-237"/>
      <point x="129" y="-230"/>
      <point x="146" y="-210" type="curve"/>
      <point x="131" y="114" type="line"/>
      <point x="145" y="121" type="line"/>
      <point x="145" y="368" type="line"/>
      <point x="152" y="486" type="line"/>
      <point x="134" y="497" type="line"/>
      <point x="54" y="468" type="line"/>
      <point x="67" y="299" type="line"/>
    </contour>
    <contour>
      <point x="481" y="368" type="line"/>
      <point x="490" y="486" type="line"/>
      <point x="471" y="497" type="line"/>
      <point x="391" y="467" type="line"/>
      <point x="404" y="299" type="line"/>
      <point x="404" y="118" type="line" smooth="yes"/>
      <point x="404" y="31"/>
      <point x="450" y="-14"/>
      <point x="508" y="-14" type="curve" smooth="yes"/>
      <point x="534" y="-14"/>
      <point x="559" y="-6"/>
      <point x="587" y="21" type="curve"/>
      <point x="568" y="132" type="line"/>
      <point x="553" y="126"/>
      <point x="538" y="122"/>
      <point x="522" y="122" type="curve" smooth="yes"/>
      <point x="499" y="122"/>
      <point x="481" y="140"/>
      <point x="481" y="181" type="curve" smooth="yes"/>
    </contour>
  </outline>
</glyph>
<glyph name="Eth" format="1">
  <advance width="705"/>
  <unicode hex="00D0"/>
  <outline>
    <contour>
      <point x="394" y="308" type="line"/>
      <point x="394" y="366" type="line"/>
      <point x="33" y="366" type="line"/>
      <point x="33" y="308" type="line"/>
    </contour>
    <component base="D"/>
  </outline>
</glyph>
<glyph name="Oslash" format="1">
  <advance width="702"/>
  <unicode hex="00D8"/>
  <outline>
    <contour>
      <point x="652" y="645" type="line"/>
      <point x="596" y="691" type="line"/>
      <point x="48" y="12" type="line"/>
      <point x="103" y="-34" type="line"/>
    </contour>
    <component base="O"/>
  </outline>
</glyph>
<glyph name="aogonek" format="1">
  <advance width="531"/>
  <unicode hex="0105"/>
  <outline>
    <contour>
      <point x="477" y="58" type="curve" smooth="yes"/>
      <point x="463" y="58"/>
      <point x="456" y="68"/>
      <point x="456" y="87" type="curve" smooth="yes"/>
      <point x="456" y="312" type="line" smooth="yes"/>
      <point x="456" y="446"/>
      <point x="405" y="501"/>
      <point x="277" y="501" type="curve" smooth="yes"/>
      <point x="133" y="501"/>
      <point x="52" y="443"/>
      <point x="47" y="360" type="curve"/>
      <point x="55" y="327"/>
      <point x="78" y="309"/>
      <point x="114" y="309" type="curve" smooth="yes"/>
      <point x="153" y="309"/>
      <point x="186" y="337"/>
      <point x="188" y="403" type="curve" smooth="yes"/>
      <point x="195" y="473" type="line"/>
      <point x="126" y="435" type="line"/>
      <point x="169" y="446"/>
      <point x="195" y="449"/>
      <point x="219" y="449" type="curve" smooth="yes"/>
      <point x="283" y="449"/>
      <point x="300" y="422"/>
      <point x="300" y="334" type="curve" smooth="yes"/>
      <point x="300" y="80" type="line" smooth="yes"/>
      <point x="311" y="22"/>
      <point x="347" y="-14"/>
      <point x="418" y="-14" type="curve"/>
      <point x="420" y="-9" type="line"/>
      <point x="360" y="-35"/>
      <point x="321" y="-74"/>
      <point x="321" y="-128" type="curve" smooth="yes"/>
      <point x="321" y="-183"/>
      <point x="362" y="-226"/>
      <point x="431" y="-226" type="curve" smooth="yes"/>
      <point x="483" y="-226"/>
      <point x="531" y="-207"/>
      <point x="564" y="-176" type="curve"/>
      <point x="550" y="-133" type="line"/>
      <point x="534" y="-140"/>
      <point x="518" y="-143"/>
      <point x="496" y="-143" type="curve" smooth="yes"/>
      <point x="453" y="-143"/>
      <point x="425" y="-118"/>
      <point x="425" y="-80" type="curve" smooth="yes"/>
      <point x="425" y="-47"/>
      <point x="447" y="-25"/>
      <point x="481" y="-1" type="curve" smooth="yes"/>
      <point x="505" y="16"/>
      <point x="521" y="32"/>
      <point x="535" y="61" type="curve"/>
      <point x="508" y="80" type="line"/>
      <point x="504" y="74" type="line" smooth="yes"/>
      <point x="496" y="63"/>
      <point x="487" y="58"/>
    </contour>
    <contour>
      <point x="179" y="140" type="curve" smooth="yes"/>
      <point x="179" y="187"/>
      <point x="208" y="221"/>
      <point x="253" y="240" type="curve" smooth="yes"/>
      <point x="283" y="253"/>
      <point x="337" y="268"/>
      <point x="384" y="280" type="curve"/>
      <point x="384" y="322" type="line"/>
      <point x="337" y="310"/>
      <point x="266" y="292"/>
      <point x="224" y="280" type="curve" smooth="yes"/>
      <point x="70" y="235"/>
      <point x="31" y="185"/>
      <point x="31" y="113" type="curve" smooth="yes"/>
      <point x="31" y="31"/>
      <point x="85" y="-15"/>
      <point x="162" y="-15" type="curve" smooth="yes"/>
      <point x="235" y="-15"/>
      <point x="266" y="16"/>
      <point x="314" y="68" type="curve" smooth="yes"/>
      <point x="356" y="113" type="line"/>
      <point x="346" y="128" type="line"/>
      <point x="306" y="98" type="line" smooth="yes"/>
      <point x="273" y="74"/>
      <point x="258" y="66"/>
      <point x="239" y="66" type="curve" smooth="yes"/>
      <point x="222" y="66"/>
      <point x="207" y="71"/>
      <point x="196" y="84" type="curve" smooth="yes"/>
      <point x="184" y="97"/>
      <point x="179" y="112"/>
    </contour>
  </outline>
</glyph>
<glyph name="OE" format="1">
  <advance width="930"/>
  <unicode hex="0152"/>
  <outline>
    <contour>
      <point x="211" y="329" type="curve" smooth="yes"/>
      <point x="211" y="500"/>
      <point x="275" y="618"/>
      <point x="400" y="618" type="curve" smooth="yes"/>
      <point x="444" y="618"/>
      <point x="488" y="609"/>
      <point x="531" y="587" type="curve"/>
      <point x="531" y="657" type="line"/>
      <point x="488" y="669"/>
      <point x="439" y="676"/>
      <point x="391" y="676" type="curve" smooth="yes"/>
      <point x="195" y="676"/>
      <point x="34" y="565"/>
      <point x="34" y="329" type="curve" smooth="yes"/>
      <point x="34" y="92"/>
      <point x="195" y="-19"/>
      <point x="391" y="-19" type="curve" smooth="yes"/>
      <point x="441" y="-19"/>
      <point x="491" y="-11"/>
      <point x="531" y="0" type="curve"/>
      <point x="531" y="70" type="line"/>
      <point x="488" y="48"/>
      <point x="444" y="39"/>
      <point x="400" y="39" type="curve" smooth="yes"/>
      <point x="275" y="39"/>
      <point x="211" y="157"/>
    </contour>
    <contour>
      <point x="445" y="310" type="line"/>
      <point x="445" y="205"/>
      <point x="445" y="101"/>
      <point x="442" y="0" type="curve"/>
      <point x="616" y="0" type="line"/>
      <point x="613" y="103"/>
      <point x="613" y="207"/>
      <point x="613" y="314" type="curve" smooth="yes"/>
      <point x="613" y="347" type="line" smooth="yes"/>
      <point x="613" y="452"/>
      <point x="613" y="556"/>
      <point x="616" y="657" type="curve"/>
      <point x="442" y="657" type="line"/>
      <point x="445" y="554"/>
      <point x="445" y="450"/>
      <point x="445" y="347" type="curve" smooth="yes"/>
    </contour>
    <contour>
      <point x="718" y="333" type="line"/>
      <point x="733" y="232" type="line"/>
      <point x="791" y="232" type="line"/>
      <point x="791" y="447" type="line"/>
      <point x="733" y="447" type="line"/>
      <point x="718" y="351" type="line"/>
    </contour>
    <contour>
      <point x="822" y="172" type="line"/>
      <point x="793" y="0" type="line"/>
      <point x="865" y="56" type="line"/>
      <point x="531" y="56" type="line"/>
      <point x="531" y="0" type="line"/>
      <point x="899" y="0" type="line"/>
      <point x="906" y="172" type="line"/>
    </contour>
    <contour>
      <point x="802" y="485" type="line"/>
      <point x="886" y="485" type="line"/>
      <point x="879" y="657" type="line"/>
      <point x="531" y="657" type="line"/>
      <point x="531" y="601" type="line"/>
      <point x="845" y="601" type="line"/>
      <point x="773" y="657" type="line"/>
    </contour>
    <contour>
      <point x="749" y="369" type="line"/>
      <point x="531" y="369" type="line"/>
      <point x="531" y="310" type="line"/>
      <point x="749" y="310" type="line"/>
    </contour>
  </outline>
</glyph>
<glyph name="Ohorn" format="1">
	<unicode hex="01A0"/>
	<advance width="702"/>
	<outline>
		<component base="O"/>
		<component base="horncmb" xOffset="508" yOffset="174"/>
		<contour>
			<point name="aboveUC" x="344" y="685" type="move"/>
		</contour>
		<contour>
			<point name="belowLC" x="351" y="-22" type="move"/>
		</contour>
	</outline>
</glyph>
<glyph name="ohorn" format="1">
	<unicode hex="01A1"/>
	<advance width="565"/>
	<outline>
		<component base="o"/>
		<component base="horncmb" xOffset="405"/>
		<contour>
			<point name="aboveLC" x="283" y="516" type="move"/>
		</contour>
		<contour>
			<point name="belowLC" x="281" y="-22" type="move"/>
		</contour>
	</outline>
</glyph>
<glyph name="Uhorn" format="1">
	<unicode hex="01AF"/>
	<advance width="731"/>
	<outline>
		<contour>
			<point x="271" y="280" type="curve" smooth="yes"/>
			<point x="271" y="357" type="line" smooth="yes"/>
			<point x="271" y="458"/>
			<point x="271" y="559"/>
			<point x="274" y="657" type="curve"/>
			<point x="100" y="657" type="line"/>
			<point x="103" y="557"/>
			<point x="103" y="456"/>
			<point x="103" y="357" type="curve" smooth="yes"/>
			<point x="103" y="248" type="line" smooth="yes"/>
			<point x="103" y="54"/>
			<point x="211" y="-19"/>
			<point x="359" y="-19" type="curve" smooth="yes"/>
			<point x="524" y="-19"/>
			<point x="622" y="71"/>
			<point x="622" y="283" type="curve" smooth="yes"/>
			<point x="622" y="657" type="line"/>
			<point x="557" y="657" type="line"/>
			<point x="557" y="283" type="line" smooth="yes"/>
			<point x="557" y="132"/>
			<point x="503" y="72"/>
			<point x="414" y="72" type="curve" smooth="yes"/>
			<point x="319" y="72"/>
			<point x="271" y="127"/>
		</contour>
		<contour>
			<point x="178" y="588" type="line"/>
			<point x="207" y="588" type="line"/>
			<point x="355" y="603" type="line"/>
			<point x="355" y="657" type="line"/>
			<point x="29" y="657" type="line"/>
			<point x="29" y="603" type="line"/>
		</contour>
		<contour>
			<point x="602" y="594" type="line"/>
			<point x="602" y="657" type="line"/>
			<point x="466" y="657" type="line"/>
			<point x="466" y="603" type="line"/>
			<point x="573" y="594" type="line"/>
		</contour>
		<contour>
			<point x="585" y="546" type="line"/>
			<point x="675" y="552"/>
			<point x="757" y="626"/>
			<point x="757" y="729" type="curve" smooth="yes"/>
			<point x="757" y="749"/>
			<point x="755" y="763"/>
			<point x="746" y="783" type="curve"/>
			<point x="731" y="795"/>
			<point x="717" y="799"/>
			<point x="699" y="799" type="curve" smooth="yes"/>
			<point x="666" y="799"/>
			<point x="642" y="774"/>
			<point x="642" y="748" type="curve" smooth="yes"/>
			<point x="642" y="709"/>
			<point x="676" y="692"/>
			<point x="676" y="661" type="curve" smooth="yes"/>
			<point x="676" y="622"/>
			<point x="638" y="596"/>
			<point x="579" y="589" type="curve"/>
		</contour>
		<contour>
			<point name="aboveUC" x="396" y="685" type="move"/>
		</contour>
		<contour>
			<point name="belowLC" x="382" y="-22" type="move"/>
		</contour>
	</outline>
</glyph>
<glyph name="uhorn" format="1">
	<unicode hex="01B0"/>
	<advance width="607"/>
	<outline>
		<component base="u"/>
		<component base="horncmb" xOffset="518"/>
		<contour>
			<point name="aboveLC" x="306" y="516" type="move"/>
		</contour>
		<contour>
			<point name="belowLC" x="311" y="-22" type="move"/>
		</contour>
	</outline>
</glyph>
<glyph name="gscript" format="1">
	<unicode hex="0261"/>
	<advance width="583"/>
	<outline>
		<contour>
			<point x="156" y="-174" type="curve"/>
			<point x="196" y="-205" type="line"/>
			<point x="179" y="-139" type="line" smooth="yes"/>
			<point x="159" y="-60"/>
			<point x="142" y="-33"/>
			<point x="103" y="-33" type="curve" smooth="yes"/>
			<point x="69" y="-33"/>
			<point x="47" y="-46"/>
			<point x="34" y="-83" type="curve"/>
			<point x="39" y="-168"/>
			<point x="121" y="-237"/>
			<point x="241" y="-237" type="curve" smooth="yes"/>
			<point x="337" y="-237"/>
			<point x="407" y="-210"/>
			<point x="455" y="-157" type="curve" smooth="yes"/>
			<point x="510" y="-98"/>
			<point x="524" y="-28"/>
			<point x="524" y="108" type="curve" smooth="yes"/>
			<point x="524" y="354" type="line"/>
			<point x="527" y="489" type="line"/>
			<point x="498" y="499" type="line"/>
			<point x="365" y="431" type="line"/>
			<point x="365" y="81" type="line" smooth="yes"/>
			<point x="365" y="3"/>
			<point x="362" y="-66"/>
			<point x="340" y="-107" type="curve" smooth="yes"/>
			<point x="310" y="-162"/>
			<point x="270" y="-186"/>
			<point x="222" y="-186" type="curve" smooth="yes"/>
			<point x="203" y="-186"/>
			<point x="179" y="-182"/>
		</contour>
		<contour>
			<point x="227" y="-15" type="curve" smooth="yes"/>
			<point x="300" y="-15"/>
			<point x="353" y="16"/>
			<point x="399" y="88" type="curve"/>
			<point x="383" y="113" type="line"/>
			<point x="357" y="85"/>
			<point x="333" y="72"/>
			<point x="302" y="72" type="curve" smooth="yes"/>
			<point x="241" y="72"/>
			<point x="198" y="118"/>
			<point x="198" y="238" type="curve" smooth="yes"/>
			<point x="198" y="363"/>
			<point x="248" y="414"/>
			<point x="313" y="414" type="curve" smooth="yes"/>
			<point x="339" y="414"/>
			<point x="362" y="406"/>
			<point x="390" y="380" type="curve"/>
			<point x="411" y="408" type="line"/>
			<point x="370" y="472"/>
			<point x="322" y="499"/>
			<point x="264" y="499" type="curve" smooth="yes"/>
			<point x="137" y="499"/>
			<point x="35" y="399"/>
			<point x="35" y="226" type="curve" smooth="yes"/>
			<point x="35" y="66"/>
			<point x="119" y="-15"/>
		</contour>
		<contour>
			<point name="aboveLC" x="313" y="516" type="move"/>
		</contour>
		<contour>
			<point name="belowLC" x="284" y="-234" type="move"/>
		</contour>
	</outline>
</glyph>
<glyph name="tonos" format="1">
	<unicode hex="0384"/>
	<advance width="400"/>
	<outline>
		<component base="tonoscmb" xOffset="193" yOffset="7"/>
		<contour>
			<point name="_aboveLC" x="170" y="516" type="move"/>
		</contour>
	</outline>
</glyph>
<glyph name="Theta" format="1">
	<unicode hex="0398"/>
	<advance width="702"/>
	<outline>
		<contour>
			<point x="351" y="-19" type="curve" smooth="yes"/>
			<point x="516" y="-19"/>
			<point x="668" y="98"/>
			<point x="668" y="329" type="curve" smooth="yes"/>
			<point x="668" y="562"/>
			<point x="515" y="676"/>
			<point x="351" y="676" type="curve" smooth="yes"/>
			<point x="187" y="676"/>
			<point x="34" y="559"/>
			<point x="34" y="329" type="curve" smooth="yes"/>
			<point x="34" y="95"/>
			<point x="186" y="-19"/>
		</contour>
		<contour>
			<point x="351" y="39" type="curve" smooth="yes"/>
			<point x="241" y="39"/>
			<point x="199" y="163"/>
			<point x="199" y="329" type="curve" smooth="yes"/>
			<point x="199" y="494"/>
			<point x="241" y="618"/>
			<point x="351" y="618" type="curve" smooth="yes"/>
			<point x="462" y="618"/>
			<point x="503" y="494"/>
			<point x="503" y="329" type="curve" smooth="yes"/>
			<point x="503" y="163"/>
			<point x="462" y="39"/>
		</contour>
		<contour>
			<point x="395" y="326" type="line"/>
			<point x="410" y="233" type="line"/>
			<point x="461" y="233" type="line"/>
			<point x="461" y="432" type="line"/>
			<point x="410" y="432" type="line"/>
			<point x="395" y="344" type="line"/>
		</contour>
		<contour>
			<point x="307" y="326" type="line"/>
			<point x="307" y="344" type="line"/>
			<point x="292" y="432" type="line"/>
			<point x="242" y="432" type="line"/>
			<point x="242" y="233" type="line"/>
			<point x="292" y="233" type="line"/>
		</contour>
		<contour>
			<point x="274" y="389" type="line"/>
			<point x="274" y="275" type="line"/>
			<point x="428" y="275" type="line"/>
			<point x="428" y="389" type="line"/>
		</contour>
	</outline>
</glyph>
<glyph name="Xi" format="1">
	<unicode hex="039E"/>
	<advance width="566"/>
	<outline>
		<contour>
			<point x="375" y="324" type="line"/>
			<point x="390" y="233" type="line"/>
			<point x="448" y="233" type="line"/>
			<point x="448" y="428" type="line"/>
			<point x="390" y="428" type="line"/>
			<point x="375" y="343" type="line"/>
		</contour>
		<contour>
			<point x="191" y="324" type="line"/>
			<point x="191" y="343" type="line"/>
			<point x="176" y="428" type="line"/>
			<point x="118" y="428" type="line"/>
			<point x="118" y="233" type="line"/>
			<point x="176" y="233" type="line"/>
		</contour>
		<contour>
			<point x="159" y="388" type="line"/>
			<point x="159" y="277" type="line"/>
			<point x="407" y="277" type="line"/>
			<point x="407" y="388" type="line"/>
		</contour>
		<contour>
			<point x="44" y="657" type="line"/>
			<point x="37" y="463" type="line"/>
			<point x="105" y="463" type="line"/>
			<point x="135" y="657" type="line"/>
			<point x="78" y="535" type="line"/>
			<point x="488" y="535" type="line"/>
			<point x="431" y="657" type="line"/>
			<point x="461" y="463" type="line"/>
			<point x="529" y="463" type="line"/>
			<point x="522" y="657" type="line"/>
		</contour>
		<contour>
			<point x="533" y="0" type="line"/>
			<point x="540" y="194" type="line"/>
			<point x="472" y="194" type="line"/>
			<point x="442" y="0" type="line"/>
			<point x="499" y="122" type="line"/>
			<point x="66" y="122" type="line"/>
			<point x="123" y="0" type="line"/>
			<point x="94" y="194" type="line"/>
			<point x="26" y="194" type="line"/>
			<point x="33" y="0" type="line"/>
		</contour>
	</outline>
</glyph>
<glyph name="Pi" format="1">
	<unicode hex="03A0"/>
	<advance width="757"/>
	<outline>
		<contour>
			<point x="553" y="69" type="line"/>
			<point x="409" y="54" type="line"/>
			<point x="409" y="0" type="line"/>
			<point x="724" y="0" type="line"/>
			<point x="724" y="54" type="line"/>
			<point x="581" y="69" type="line"/>
		</contour>
		<contour>
			<point x="481" y="316" type="line" smooth="yes"/>
			<point x="481" y="205"/>
			<point x="481" y="101"/>
			<point x="478" y="0" type="curve"/>
			<point x="652" y="0" type="line"/>
			<point x="649" y="103"/>
			<point x="649" y="207"/>
			<point x="649" y="310" type="curve" smooth="yes"/>
			<point x="649" y="347" type="line" smooth="yes"/>
			<point x="649" y="452"/>
			<point x="649" y="556"/>
			<point x="652" y="657" type="curve"/>
			<point x="478" y="657" type="line"/>
			<point x="481" y="554"/>
			<point x="481" y="450"/>
			<point x="481" y="347" type="curve" smooth="yes"/>
		</contour>
		<contour>
			<point x="108" y="310" type="line" smooth="yes"/>
			<point x="108" y="205"/>
			<point x="108" y="101"/>
			<point x="105" y="0" type="curve"/>
			<point x="279" y="0" type="line"/>
			<point x="276" y="103"/>
			<point x="276" y="207"/>
			<point x="276" y="316" type="curve" smooth="yes"/>
			<point x="276" y="347" type="line" smooth="yes"/>
			<point x="276" y="452"/>
			<point x="276" y="556"/>
			<point x="279" y="657" type="curve"/>
			<point x="105" y="657" type="line"/>
			<point x="108" y="554"/>
			<point x="108" y="450"/>
			<point x="108" y="347" type="curve" smooth="yes"/>
		</contour>
		<contour>
			<point x="173" y="69" type="line"/>
			<point x="33" y="54" type="line"/>
			<point x="33" y="0" type="line"/>
			<point x="348" y="0" type="line"/>
			<point x="348" y="54" type="line"/>
			<point x="202" y="69" type="line"/>
		</contour>
		<contour>
			<point x="563" y="597" type="line"/>
			<point x="563" y="657" type="line"/>
			<point x="194" y="657" type="line"/>
			<point x="194" y="597" type="line"/>
		</contour>
		<contour>
			<point x="563" y="588" type="line"/>
			<point x="579" y="588" type="line"/>
			<point x="724" y="603" type="line"/>
			<point x="724" y="657" type="line"/>
			<point x="563" y="657" type="line"/>
		</contour>
		<contour>
			<point x="178" y="588" type="line"/>
			<point x="194" y="588" type="line"/>
			<point x="194" y="657" type="line"/>
			<point x="33" y="657" type="line"/>
			<point x="33" y="603" type="line"/>
		</contour>
	</outline>
</glyph>
<glyph name="Sigma" format="1">
	<unicode hex="03A3"/>
	<advance width="560"/>
	<outline>
		<contour>
			<point x="439" y="464" type="line"/>
			<point x="518" y="464" type="line"/>
			<point x="510" y="657" type="line"/>
			<point x="111" y="657" type="line"/>
			<point x="111" y="600" type="line"/>
			<point x="475" y="600" type="line"/>
			<point x="401" y="657" type="line"/>
		</contour>
		<contour>
			<point x="526" y="0" type="line"/>
			<point x="534" y="253" type="line"/>
			<point x="454" y="253" type="line"/>
			<point x="416" y="66" type="line"/>
			<point x="492" y="123" type="line"/>
			<point x="100" y="123" type="line"/>
			<point x="124" y="86" type="line"/>
			<point x="347" y="352" type="line"/>
			<point x="159" y="657" type="line"/>
			<point x="37" y="657" type="line"/>
			<point x="37" y="606" type="line"/>
			<point x="245" y="279" type="line"/>
			<point x="252" y="354" type="line"/>
			<point x="27" y="84" type="line"/>
			<point x="27" y="0" type="line"/>
		</contour>
	</outline>
</glyph>
<glyph name="Phi" format="1">
	<unicode hex="03A6"/>
	<advance width="793"/>
	<outline>
		<contour>
			<point x="46" y="338" type="curve" smooth="yes"/>
			<point x="46" y="203"/>
			<point x="143" y="115"/>
			<point x="335" y="115" type="curve" smooth="yes"/>
			<point x="396" y="115" type="line"/>
			<point x="396" y="174" type="line"/>
			<point x="335" y="174" type="line" smooth="yes"/>
			<point x="250" y="174"/>
			<point x="196" y="239"/>
			<point x="196" y="334" type="curve" smooth="yes"/>
			<point x="196" y="437"/>
			<point x="242" y="498"/>
			<point x="334" y="498" type="curve" smooth="yes"/>
			<point x="396" y="498" type="line"/>
			<point x="396" y="556" type="line"/>
			<point x="331" y="556" type="line" smooth="yes"/>
			<point x="140" y="556"/>
			<point x="46" y="461"/>
		</contour>
		<contour>
			<point x="245" y="614" type="line"/>
			<point x="378" y="599" type="line"/>
			<point x="416" y="599" type="line"/>
			<point x="549" y="614" type="line"/>
			<point x="549" y="668" type="line"/>
			<point x="245" y="668" type="line"/>
		</contour>
		<contour>
			<point x="245" y="-3" type="line"/>
			<point x="549" y="-3" type="line"/>
			<point x="549" y="50" type="line"/>
			<point x="427" y="65" type="line"/>
			<point x="383" y="65" type="line"/>
			<point x="245" y="50" type="line"/>
		</contour>
		<contour>
			<point x="320" y="-3" type="curve"/>
			<point x="473" y="-3" type="line"/>
			<point x="471" y="99"/>
			<point x="470" y="208"/>
			<point x="470" y="311" type="curve" smooth="yes"/>
			<point x="470" y="348" type="line" smooth="yes"/>
			<point x="470" y="455"/>
			<point x="471" y="563"/>
			<point x="473" y="668" type="curve"/>
			<point x="320" y="668" type="line"/>
			<point x="323" y="562"/>
			<point x="323" y="453"/>
			<point x="323" y="347" type="curve" smooth="yes"/>
			<point x="323" y="310" type="line" smooth="yes"/>
			<point x="323" y="205"/>
			<point x="323" y="98"/>
		</contour>
		<contour>
			<point x="396" y="115" type="line"/>
			<point x="458" y="115" type="line" smooth="yes"/>
			<point x="650" y="115"/>
			<point x="747" y="203"/>
			<point x="747" y="338" type="curve" smooth="yes"/>
			<point x="747" y="461"/>
			<point x="653" y="556"/>
			<point x="462" y="556" type="curve" smooth="yes"/>
			<point x="396" y="556" type="line"/>
			<point x="396" y="498" type="line"/>
			<point x="459" y="498" type="line" smooth="yes"/>
			<point x="551" y="498"/>
			<point x="596" y="437"/>
			<point x="596" y="334" type="curve" smooth="yes"/>
			<point x="596" y="239"/>
			<point x="543" y="174"/>
			<point x="458" y="174" type="curve" smooth="yes"/>
			<point x="396" y="174" type="line"/>
		</contour>
	</outline>
</glyph>
<glyph name="Psi" format="1">
	<unicode hex="03A8"/>
	<advance width="828"/>
	<outline>
		<contour>
			<point x="78" y="493" type="line" smooth="yes"/>
			<point x="106" y="315"/>
			<point x="159" y="236"/>
			<point x="414" y="236" type="curve" smooth="yes"/>
			<point x="669" y="236"/>
			<point x="722" y="315"/>
			<point x="750" y="493" type="curve" smooth="yes"/>
			<point x="758" y="550" type="line" smooth="yes"/>
			<point x="763" y="582"/>
			<point x="775" y="599"/>
			<point x="809" y="601" type="curve" smooth="yes"/>
			<point x="829" y="603" type="line"/>
			<point x="829" y="657" type="line"/>
			<point x="773" y="657" type="line" smooth="yes"/>
			<point x="666" y="657"/>
			<point x="623" y="622"/>
			<point x="611" y="523" type="curve" smooth="yes"/>
			<point x="605" y="471" type="line" smooth="yes"/>
			<point x="589" y="339"/>
			<point x="566" y="287"/>
			<point x="414" y="287" type="curve" smooth="yes"/>
			<point x="262" y="287"/>
			<point x="239" y="339"/>
			<point x="223" y="471" type="curve" smooth="yes"/>
			<point x="217" y="523" type="line" smooth="yes"/>
			<point x="205" y="622"/>
			<point x="162" y="657"/>
			<point x="55" y="657" type="curve" smooth="yes"/>
			<point x="-1" y="657" type="line"/>
			<point x="-1" y="603" type="line"/>
			<point x="19" y="601" type="line" smooth="yes"/>
			<point x="53" y="599"/>
			<point x="65" y="582"/>
			<point x="70" y="550" type="curve" smooth="yes"/>
		</contour>
		<contour>
			<point x="260" y="0" type="line"/>
			<point x="568" y="0" type="line"/>
			<point x="568" y="54" type="line"/>
			<point x="428" y="69" type="line"/>
			<point x="398" y="69" type="line"/>
			<point x="260" y="54" type="line"/>
		</contour>
		<contour>
			<point x="277" y="603" type="line"/>
			<point x="398" y="588" type="line"/>
			<point x="428" y="588" type="line"/>
			<point x="551" y="603" type="line"/>
			<point x="551" y="657" type="line"/>
			<point x="277" y="657" type="line"/>
		</contour>
		<contour>
			<point x="334" y="0" type="curve"/>
			<point x="494" y="0" type="line"/>
			<point x="491" y="103"/>
			<point x="491" y="207"/>
			<point x="491" y="311" type="curve" smooth="yes"/>
			<point x="491" y="347" type="line" smooth="yes"/>
			<point x="491" y="452"/>
			<point x="491" y="556"/>
			<point x="494" y="657" type="curve"/>
			<point x="334" y="657" type="line"/>
			<point x="337" y="554"/>
			<point x="337" y="450"/>
			<point x="337" y="347" type="curve" smooth="yes"/>
			<point x="337" y="310" type="line" smooth="yes"/>
			<point x="337" y="205"/>
			<point x="337" y="101"/>
		</contour>
	</outline>
</glyph>
<glyph name="alpha" format="1">
	<unicode hex="03B1"/>
	<advance width="587"/>
	<outline>
		<contour>
			<point x="232" y="-15" type="curve" smooth="yes"/>
			<point x="303" y="-15"/>
			<point x="357" y="18"/>
			<point x="386" y="89" type="curve"/>
			<point x="366" y="88" type="line"/>
			<point x="372" y="23"/>
			<point x="420" y="-15"/>
			<point x="473" y="-15" type="curve" smooth="yes"/>
			<point x="523" y="-15"/>
			<point x="566" y="15"/>
			<point x="583" y="51" type="curve"/>
			<point x="569" y="86" type="line"/>
			<point x="559" y="82"/>
			<point x="548" y="80"/>
			<point x="533" y="80" type="curve" smooth="yes"/>
			<point x="504" y="80"/>
			<point x="491" y="101"/>
			<point x="491" y="145" type="curve" smooth="yes"/>
			<point x="491" y="235"/>
			<point x="506" y="351"/>
			<point x="525" y="482" type="curve"/>
			<point x="508" y="494" type="line"/>
			<point x="366" y="471" type="line"/>
			<point x="359" y="394" type="line"/>
			<point x="352" y="175" type="line" smooth="yes"/>
			<point x="349" y="97"/>
			<point x="319" y="63"/>
			<point x="279" y="63" type="curve" smooth="yes"/>
			<point x="224" y="63"/>
			<point x="180" y="119"/>
			<point x="180" y="283" type="curve" smooth="yes"/>
			<point x="180" y="376"/>
			<point x="218" y="422"/>
			<point x="269" y="422" type="curve" smooth="yes"/>
			<point x="307" y="422"/>
			<point x="343" y="400"/>
			<point x="362" y="357" type="curve"/>
			<point x="377" y="369" type="line"/>
			<point x="361" y="450"/>
			<point x="315" y="499"/>
			<point x="244" y="499" type="curve" smooth="yes"/>
			<point x="138" y="499"/>
			<point x="30" y="403"/>
			<point x="30" y="241" type="curve" smooth="yes"/>
			<point x="30" y="67"/>
			<point x="128" y="-15"/>
		</contour>
		<contour>
			<point name="aboveLC" x="319" y="516" type="move"/>
		</contour>
		<contour>
			<point name="belowLC" x="322" y="-22" type="move"/>
		</contour>
	</outline>
</glyph>
<glyph name="beta" format="1">
	<unicode hex="03B2"/>
	<advance width="594"/>
	<outline>
		<contour>
			<point x="58" y="-176" type="line"/>
			<point x="76" y="-194" type="line"/>
			<point x="239" y="-163" type="line"/>
			<point x="207" y="98" type="line"/>
			<point x="213" y="121" type="line"/>
			<point x="217" y="558" type="line" smooth="yes"/>
			<point x="218" y="635"/>
			<point x="249" y="674"/>
			<point x="305" y="674" type="curve" smooth="yes"/>
			<point x="361" y="674"/>
			<point x="398" y="638"/>
			<point x="398" y="561" type="curve" smooth="yes"/>
			<point x="398" y="485"/>
			<point x="351" y="445"/>
			<point x="273" y="424" type="curve"/>
			<point x="286" y="343" type="line"/>
			<point x="392" y="344"/>
			<point x="426" y="277"/>
			<point x="426" y="218" type="curve" smooth="yes"/>
			<point x="426" y="148"/>
			<point x="386" y="103"/>
			<point x="320" y="103" type="curve" smooth="yes"/>
			<point x="268" y="103"/>
			<point x="227" y="125"/>
			<point x="192" y="164" type="curve"/>
			<point x="176" y="131" type="line"/>
			<point x="236" y="27"/>
			<point x="294" y="-15"/>
			<point x="374" y="-15" type="curve" smooth="yes"/>
			<point x="490" y="-15"/>
			<point x="564" y="66"/>
			<point x="564" y="183" type="curve" smooth="yes"/>
			<point x="564" y="315"/>
			<point x="484" y="381"/>
			<point x="298" y="380" type="curve"/>
			<point x="300" y="367" type="line"/>
			<point x="465" y="381"/>
			<point x="529" y="475"/>
			<point x="529" y="562" type="curve" smooth="yes"/>
			<point x="529" y="662"/>
			<point x="449" y="726"/>
			<point x="319" y="726" type="curve" smooth="yes"/>
			<point x="169" y="726"/>
			<point x="68" y="630"/>
			<point x="68" y="438" type="curve" smooth="yes"/>
			<point x="68" y="50" type="line"/>
		</contour>
	</outline>
</glyph>
<glyph name="epsilon" format="1">
	<unicode hex="03B5"/>
	<advance width="472"/>
	<outline>
		<contour>
			<point x="34" y="118" type="curve" smooth="yes"/>
			<point x="34" y="32"/>
			<point x="127" y="-15"/>
			<point x="238" y="-15" type="curve" smooth="yes"/>
			<point x="344" y="-15"/>
			<point x="409" y="20"/>
			<point x="458" y="99" type="curve"/>
			<point x="423" y="140" type="line"/>
			<point x="374" y="103"/>
			<point x="334" y="85"/>
			<point x="279" y="85" type="curve" smooth="yes"/>
			<point x="217" y="85"/>
			<point x="184" y="112"/>
			<point x="184" y="147" type="curve" smooth="yes"/>
			<point x="184" y="186"/>
			<point x="213" y="209"/>
			<point x="294" y="209" type="curve" smooth="yes"/>
			<point x="306" y="209"/>
			<point x="319" y="209"/>
			<point x="332" y="207" type="curve"/>
			<point x="332" y="305" type="line"/>
			<point x="322" y="304"/>
			<point x="311" y="303"/>
			<point x="294" y="303" type="curve"/>
			<point x="218" y="303"/>
			<point x="187" y="337"/>
			<point x="187" y="380" type="curve" smooth="yes"/>
			<point x="187" y="426"/>
			<point x="223" y="450"/>
			<point x="263" y="450" type="curve" smooth="yes"/>
			<point x="280" y="450"/>
			<point x="305" y="447"/>
			<point x="333" y="440" type="curve"/>
			<point x="311" y="467" type="line"/>
			<point x="216" y="459" type="line"/>
			<point x="295" y="399" type="line" smooth="yes"/>
			<point x="325" y="376"/>
			<point x="342" y="367"/>
			<point x="372" y="367" type="curve" smooth="yes"/>
			<point x="409" y="367"/>
			<point x="435" y="389"/>
			<point x="435" y="425" type="curve"/>
			<point x="418" y="472"/>
			<point x="354" y="499"/>
			<point x="266" y="499" type="curve" smooth="yes"/>
			<point x="124" y="499"/>
			<point x="55" y="441"/>
			<point x="55" y="365" type="curve" smooth="yes"/>
			<point x="55" y="297"/>
			<point x="114" y="235"/>
			<point x="236" y="231" type="curve"/>
			<point x="236" y="242" type="line"/>
			<point x="88" y="234"/>
			<point x="34" y="185"/>
		</contour>
		<contour>
			<point name="aboveLC" x="251" y="516" type="move"/>
		</contour>
		<contour>
			<point name="belowLC" x="246" y="-22" type="move"/>
		</contour>
	</outline>
</glyph>
<glyph name="xi" format="1">
	<unicode hex="03BE"/>
	<advance width="471"/>
	<outline>
		<contour>
			<point x="185" y="-207" type="line"/>
			<point x="355" y="-206"/>
			<point x="459" y="-125"/>
			<point x="459" y="-23" type="curve" smooth="yes"/>
			<point x="459" y="30"/>
			<point x="435" y="88"/>
			<point x="344" y="108" type="curve" smooth="yes"/>
			<point x="255" y="128" type="line" smooth="yes"/>
			<point x="201" y="139"/>
			<point x="180" y="164"/>
			<point x="180" y="209" type="curve" smooth="yes"/>
			<point x="180" y="268"/>
			<point x="229" y="308"/>
			<point x="343" y="308" type="curve" smooth="yes"/>
			<point x="362" y="308"/>
			<point x="383" y="308"/>
			<point x="402" y="307" type="curve"/>
			<point x="402" y="423" type="line"/>
			<point x="389" y="421"/>
			<point x="363" y="422"/>
			<point x="352" y="422" type="curve" smooth="yes"/>
			<point x="257" y="422"/>
			<point x="217" y="464"/>
			<point x="217" y="507" type="curve" smooth="yes"/>
			<point x="217" y="576"/>
			<point x="295" y="613"/>
			<point x="439" y="619" type="curve"/>
			<point x="444" y="716" type="line"/>
			<point x="36" y="721" type="line"/>
			<point x="36" y="601" type="line"/>
			<point x="308" y="617" type="line"/>
			<point x="316" y="635" type="line"/>
			<point x="177" y="611"/>
			<point x="82" y="560"/>
			<point x="82" y="466" type="curve" smooth="yes"/>
			<point x="82" y="402"/>
			<point x="127" y="334"/>
			<point x="272" y="330" type="curve"/>
			<point x="271" y="344" type="line"/>
			<point x="114" y="331"/>
			<point x="46" y="260"/>
			<point x="46" y="166" type="curve" smooth="yes"/>
			<point x="46" y="87"/>
			<point x="97" y="30"/>
			<point x="191" y="12" type="curve" smooth="yes"/>
			<point x="278" y="-6" type="line" smooth="yes"/>
			<point x="336" y="-17"/>
			<point x="353" y="-37"/>
			<point x="353" y="-59" type="curve" smooth="yes"/>
			<point x="353" y="-99"/>
			<point x="284" y="-122"/>
			<point x="176" y="-129" type="curve"/>
		</contour>
	</outline>
</glyph>
<glyph name="rho" format="1">
	<unicode hex="03C1"/>
	<advance width="565"/>
	<outline>
		<contour>
			<point x="52" y="-176" type="line"/>
			<point x="70" y="-194" type="line"/>
			<point x="232" y="-163" type="line"/>
			<point x="202" y="62" type="line"/>
			<point x="208" y="85" type="line"/>
			<point x="204" y="141"/>
			<point x="205" y="243"/>
			<point x="205" y="300" type="curve" smooth="yes"/>
			<point x="205" y="404"/>
			<point x="234" y="440"/>
			<point x="277" y="440" type="curve" smooth="yes"/>
			<point x="324" y="440"/>
			<point x="384" y="351"/>
			<point x="384" y="201" type="curve" smooth="yes"/>
			<point x="384" y="105"/>
			<point x="354" y="58"/>
			<point x="297" y="58" type="curve" smooth="yes"/>
			<point x="244" y="58"/>
			<point x="212" y="89"/>
			<point x="185" y="115" type="curve"/>
			<point x="171" y="91" type="line"/>
			<point x="203" y="37"/>
			<point x="249" y="-15"/>
			<point x="328" y="-15" type="curve" smooth="yes"/>
			<point x="421" y="-15"/>
			<point x="535" y="59"/>
			<point x="535" y="234" type="curve" smooth="yes"/>
			<point x="535" y="402"/>
			<point x="449" y="499"/>
			<point x="297" y="499" type="curve" smooth="yes"/>
			<point x="141" y="499"/>
			<point x="61" y="411"/>
			<point x="61" y="243" type="curve" smooth="yes"/>
			<point x="61" y="50" type="line"/>
		</contour>
		<contour>
			<point name="aboveLC" x="306" y="516" type="move"/>
		</contour>
	</outline>
</glyph>
<glyph name="sigma" format="1">
	<unicode hex="03C3"/>
	<advance width="622"/>
	<outline>
		<contour>
			<point x="268" y="-15" type="curve" smooth="yes"/>
			<point x="418" y="-15"/>
			<point x="513" y="96"/>
			<point x="513" y="218" type="curve" smooth="yes"/>
			<point x="513" y="327"/>
			<point x="425" y="420"/>
			<point x="280" y="439" type="curve"/>
			<point x="264" y="434" type="line"/>
			<point x="333" y="405"/>
			<point x="370" y="303"/>
			<point x="370" y="210" type="curve" smooth="yes"/>
			<point x="370" y="117"/>
			<point x="342" y="44"/>
			<point x="285" y="44" type="curve" smooth="yes"/>
			<point x="223" y="44"/>
			<point x="180" y="132"/>
			<point x="180" y="263" type="curve" smooth="yes"/>
			<point x="180" y="364"/>
			<point x="226" y="425"/>
			<point x="302" y="432" type="curve"/>
			<point x="363" y="399" type="line"/>
			<point x="602" y="377" type="line"/>
			<point x="596" y="495" type="line"/>
			<point x="351" y="490" type="line" smooth="yes"/>
			<point x="129" y="484"/>
			<point x="30" y="396"/>
			<point x="30" y="233" type="curve" smooth="yes"/>
			<point x="30" y="77"/>
			<point x="133" y="-15"/>
		</contour>
	</outline>
</glyph>
<glyph name="phi" format="1">
	<unicode hex="03C6"/>
	<advance width="753"/>
	<outline>
		<contour>
			<point x="299" y="-189" type="line"/>
			<point x="316" y="-204" type="line"/>
			<point x="454" y="-178" type="line"/>
			<point x="445" y="18" type="line"/>
			<point x="431" y="634" type="line"/>
			<point x="330" y="634" type="line"/>
			<point x="313" y="19" type="line"/>
		</contour>
		<contour>
			<point x="364" y="-21" type="curve"/>
			<point x="364" y="35" type="line"/>
			<point x="228" y="35"/>
			<point x="178" y="115"/>
			<point x="178" y="242" type="curve" smooth="yes"/>
			<point x="178" y="381"/>
			<point x="244" y="446"/>
			<point x="366" y="446" type="curve"/>
			<point x="366" y="500" type="line"/>
			<point x="136" y="500"/>
			<point x="30" y="399"/>
			<point x="30" y="232" type="curve" smooth="yes"/>
			<point x="30" y="59"/>
			<point x="144" y="-21"/>
		</contour>
		<contour>
			<point x="400" y="-22" type="line"/>
			<point x="624" y="-22"/>
			<point x="723" y="86"/>
			<point x="723" y="244" type="curve" smooth="yes"/>
			<point x="723" y="408"/>
			<point x="628" y="500"/>
			<point x="397" y="500" type="curve"/>
			<point x="397" y="446" type="line"/>
			<point x="510" y="446"/>
			<point x="574" y="372"/>
			<point x="574" y="231" type="curve" smooth="yes"/>
			<point x="574" y="93"/>
			<point x="515" y="34"/>
			<point x="400" y="34" type="curve"/>
		</contour>
	</outline>
</glyph>
<glyph name="psi" format="1">
	<unicode hex="03C8"/>
	<advance width="770"/>
	<outline>
		<contour>
			<point x="343" y="-187" type="line"/>
			<point x="360" y="-203" type="line"/>
			<point x="491" y="-173" type="line"/>
			<point x="476" y="624" type="line"/>
			<point x="366" y="624" type="line"/>
			<point x="357" y="21" type="line"/>
		</contour>
		<contour>
			<point x="407" y="49" type="line"/>
			<point x="275" y="49"/>
			<point x="230" y="103"/>
			<point x="230" y="183" type="curve" smooth="yes"/>
			<point x="230" y="242"/>
			<point x="238" y="308"/>
			<point x="238" y="363" type="curve" smooth="yes"/>
			<point x="238" y="459"/>
			<point x="193" y="494"/>
			<point x="126" y="494" type="curve" smooth="yes"/>
			<point x="75" y="494"/>
			<point x="31" y="468"/>
			<point x="10" y="431" type="curve"/>
			<point x="24" y="397" type="line"/>
			<point x="28" y="398"/>
			<point x="43" y="399"/>
			<point x="46" y="399" type="curve" smooth="yes"/>
			<point x="78" y="399"/>
			<point x="91" y="382"/>
			<point x="91" y="333" type="curve" smooth="yes"/>
			<point x="91" y="276"/>
			<point x="86" y="239"/>
			<point x="86" y="173" type="curve" smooth="yes"/>
			<point x="86" y="54"/>
			<point x="179" y="-15"/>
			<point x="394" y="-15" type="curve"/>
		</contour>
		<contour>
			<point x="400" y="-15" type="line"/>
			<point x="641" y="-15"/>
			<point x="730" y="101"/>
			<point x="735" y="361" type="curve" smooth="yes"/>
			<point x="735" y="392"/>
			<point x="735" y="425"/>
			<point x="730" y="464" type="curve"/>
			<point x="721" y="481"/>
			<point x="697" y="498"/>
			<point x="664" y="498" type="curve" smooth="yes"/>
			<point x="623" y="498"/>
			<point x="582" y="466"/>
			<point x="582" y="406" type="curve" smooth="yes"/>
			<point x="582" y="367"/>
			<point x="604" y="298"/>
			<point x="653" y="204" type="curve"/>
			<point x="678" y="351" type="line"/>
			<point x="653" y="353" type="line"/>
			<point x="654" y="348"/>
			<point x="648" y="274"/>
			<point x="648" y="269" type="curve" smooth="yes"/>
			<point x="640" y="104"/>
			<point x="583" y="49"/>
			<point x="403" y="49" type="curve"/>
		</contour>
	</outline>
</glyph>
<glyph name="stigma" format="1">
	<unicode hex="03DB"/>
	<advance width="484"/>
	<outline>
		<contour>
			<point x="161" y="-207" type="line"/>
			<point x="346" y="-205"/>
			<point x="435" y="-115"/>
			<point x="435" y="-23" type="curve" smooth="yes"/>
			<point x="435" y="37"/>
			<point x="405" y="81"/>
			<point x="322" y="107" type="curve" smooth="yes"/>
			<point x="216" y="141" type="line" smooth="yes"/>
			<point x="133" y="167"/>
			<point x="110" y="190"/>
			<point x="110" y="242" type="curve" smooth="yes"/>
			<point x="110" y="299"/>
			<point x="140" y="333"/>
			<point x="234" y="340" type="curve" smooth="yes"/>
			<point x="296" y="344" type="line" smooth="yes"/>
			<point x="397" y="350"/>
			<point x="431" y="377"/>
			<point x="466" y="525" type="curve" smooth="yes"/>
			<point x="480" y="583" type="line"/>
			<point x="419" y="592" type="line"/>
			<point x="405" y="551" type="line" smooth="yes"/>
			<point x="393" y="516"/>
			<point x="381" y="491"/>
			<point x="327" y="486" type="curve" smooth="yes"/>
			<point x="243" y="477" type="line" smooth="yes"/>
			<point x="130" y="464"/>
			<point x="34" y="403"/>
			<point x="34" y="228" type="curve" smooth="yes"/>
			<point x="34" y="90"/>
			<point x="101" y="33"/>
			<point x="198" y="9" type="curve" smooth="yes"/>
			<point x="254" y="-6" type="line" smooth="yes"/>
			<point x="311" y="-21"/>
			<point x="329" y="-39"/>
			<point x="329" y="-63" type="curve" smooth="yes"/>
			<point x="329" y="-92"/>
			<point x="291" y="-120"/>
			<point x="153" y="-129" type="curve"/>
		</contour>
	</outline>
</glyph>
<glyph name="Tshe" format="1">
	<unicode hex="040B"/>
	<advance width="800"/>
	<outline>
		<contour>
			<point x="20" y="471" type="line"/>
			<point x="103" y="471" type="line"/>
			<point x="130" y="657" type="line"/>
			<point x="57" y="601" type="line"/>
			<point x="587" y="601" type="line"/>
			<point x="515" y="657" type="line"/>
			<point x="541" y="486" type="line"/>
			<point x="624" y="486" type="line"/>
			<point x="621" y="657" type="line"/>
			<point x="24" y="657" type="line"/>
		</contour>
		<contour>
			<point x="146" y="0" type="line"/>
			<point x="483" y="0" type="line"/>
			<point x="483" y="54" type="line"/>
			<point x="338" y="69" type="line"/>
			<point x="294" y="69" type="line"/>
			<point x="146" y="54" type="line"/>
		</contour>
		<contour>
			<point x="230" y="0" type="curve"/>
			<point x="404" y="0" type="line"/>
			<point x="401" y="103"/>
			<point x="401" y="207"/>
			<point x="401" y="311" type="curve" smooth="yes"/>
			<point x="401" y="372" type="line" smooth="yes"/>
			<point x="401" y="452"/>
			<point x="401" y="556"/>
			<point x="404" y="657" type="curve"/>
			<point x="230" y="657" type="line"/>
			<point x="233" y="554"/>
			<point x="233" y="450"/>
			<point x="233" y="347" type="curve" smooth="yes"/>
			<point x="233" y="310" type="line" smooth="yes"/>
			<point x="233" y="205"/>
			<point x="233" y="101"/>
		</contour>
		<contour>
			<point x="566" y="0" type="curve"/>
			<point x="730" y="0" type="line"/>
			<point x="730" y="196" type="line" smooth="yes"/>
			<point x="730" y="345"/>
			<point x="661" y="402"/>
			<point x="514" y="402" type="curve" smooth="yes"/>
			<point x="448" y="402"/>
			<point x="379" y="398"/>
			<point x="318" y="391" type="curve"/>
			<point x="318" y="335" type="line"/>
			<point x="364" y="343"/>
			<point x="410" y="345"/>
			<point x="460" y="345" type="curve" smooth="yes"/>
			<point x="544" y="345"/>
			<point x="569" y="295"/>
			<point x="569" y="196" type="curve" smooth="yes"/>
			<point x="569" y="124"/>
			<point x="568" y="69"/>
		</contour>
		<contour>
			<point x="638" y="0" type="line"/>
			<point x="782" y="0" type="line"/>
			<point x="782" y="54" type="line"/>
			<point x="666" y="69" type="line"/>
			<point x="638" y="69" type="line"/>
		</contour>
	</outline>
</glyph>
<glyph name="Acyr" format="1">
	<unicode hex="0410"/>
	<advance width="675"/>
	<outline>
		<component base="A"/>
		<contour>
			<point name="aboveUC" x="335" y="685" type="move"/>
		</contour>
	</outline>
</glyph>
<glyph name="Ghe" format="1">
	<unicode hex="0413"/>
	<advance width="574"/>
	<outline>
		<component base="Gamma"/>
		<contour>
			<point name="aboveUC" x="320" y="685" type="move"/>
		</contour>
	</outline>
</glyph>
<glyph name="Ka" format="1">
	<unicode hex="041A"/>
	<advance width="697"/>
	<outline>
		<contour>
			<point x="33" y="0" type="line"/>
			<point x="350" y="0" type="line"/>
			<point x="350" y="54" type="line"/>
			<point x="204" y="69" type="line"/>
			<point x="174" y="69" type="line"/>
			<point x="33" y="54" type="line"/>
		</contour>
		<contour>
			<point x="33" y="603" type="line"/>
			<point x="174" y="588" type="line"/>
			<point x="204" y="588" type="line"/>
			<point x="350" y="603" type="line"/>
			<point x="350" y="657" type="line"/>
			<point x="33" y="657" type="line"/>
		</contour>
		<contour>
			<point x="107" y="0" type="curve"/>
			<point x="281" y="0" type="line"/>
			<point x="278" y="103"/>
			<point x="278" y="207"/>
			<point x="278" y="314" type="curve" smooth="yes"/>
			<point x="278" y="343" type="line" smooth="yes"/>
			<point x="278" y="452"/>
			<point x="278" y="556"/>
			<point x="281" y="657" type="curve"/>
			<point x="107" y="657" type="line"/>
			<point x="110" y="554"/>
			<point x="110" y="450"/>
			<point x="110" y="347" type="curve" smooth="yes"/>
			<point x="110" y="310" type="line" smooth="yes"/>
			<point x="110" y="205"/>
			<point x="110" y="101"/>
		</contour>
		<contour>
			<point x="444" y="84" type="line" smooth="yes"/>
			<point x="461" y="1"/>
			<point x="508" y="-14"/>
			<point x="588" y="-14" type="curve" smooth="yes"/>
			<point x="619" y="-14"/>
			<point x="654" y="-11"/>
			<point x="693" y="0" type="curve"/>
			<point x="693" y="54" type="line"/>
			<point x="526" y="68" type="line"/>
			<point x="622" y="34" type="line"/>
			<point x="590" y="171" type="line" smooth="yes"/>
			<point x="566" y="288"/>
			<point x="492" y="334"/>
			<point x="332" y="339" type="curve"/>
			<point x="332" y="320" type="line"/>
			<point x="412" y="329"/>
			<point x="450" y="365"/>
			<point x="483" y="460" type="curve" smooth="yes"/>
			<point x="501" y="508"/>
			<point x="514" y="537"/>
			<point x="534" y="567" type="curve"/>
			<point x="477" y="541" type="line"/>
			<point x="494" y="532"/>
			<point x="522" y="523"/>
			<point x="559" y="523" type="curve" smooth="yes"/>
			<point x="628" y="523"/>
			<point x="659" y="557"/>
			<point x="659" y="599" type="curve" smooth="yes"/>
			<point x="659" y="648"/>
			<point x="629" y="675"/>
			<point x="571" y="676" type="curve"/>
			<point x="516" y="665"/>
			<point x="474" y="613"/>
			<point x="432" y="486" type="curve" smooth="yes"/>
			<point x="396" y="376"/>
			<point x="364" y="359"/>
			<point x="305" y="359" type="curve" smooth="yes"/>
			<point x="192" y="359" type="line"/>
			<point x="192" y="304" type="line"/>
			<point x="313" y="304" type="line" smooth="yes"/>
			<point x="364" y="304"/>
			<point x="398" y="283"/>
			<point x="409" y="233" type="curve" smooth="yes"/>
		</contour>
		<contour>
			<point name="aboveUC" x="375" y="685" type="move"/>
		</contour>
	</outline>
</glyph>
<glyph name="Ucyr" format="1">
	<unicode hex="0423"/>
	<advance width="628"/>
	<outline>
		<contour>
			<point x="8" y="603" type="line"/>
			<point x="147" y="588" type="line"/>
			<point x="191" y="588" type="line"/>
			<point x="325" y="603" type="line"/>
			<point x="325" y="657" type="line"/>
			<point x="8" y="657" type="line"/>
		</contour>
		<contour>
			<point x="314" y="109" type="line"/>
			<point x="391" y="279" type="line"/>
			<point x="222" y="657" type="line"/>
			<point x="36" y="657" type="line"/>
		</contour>
		<contour>
			<point x="85" y="83" type="curve"/>
			<point x="85" y="7"/>
			<point x="129" y="-19"/>
			<point x="185" y="-19" type="curve" smooth="yes"/>
			<point x="276" y="-19"/>
			<point x="327" y="53"/>
			<point x="377" y="174" type="curve" smooth="yes"/>
			<point x="582" y="657" type="line"/>
			<point x="509" y="657" type="line"/>
			<point x="337" y="210" type="line"/>
			<point x="306" y="131"/>
			<point x="268" y="70"/>
			<point x="207" y="37" type="curve"/>
			<point x="216" y="12" type="line"/>
			<point x="281" y="59" type="line"/>
			<point x="242" y="107"/>
			<point x="205" y="132"/>
			<point x="163" y="132" type="curve" smooth="yes"/>
			<point x="124" y="132"/>
			<point x="98" y="106"/>
		</contour>
		<contour>
			<point x="415" y="603" type="line"/>
			<point x="505" y="590" type="line"/>
			<point x="532" y="590" type="line"/>
			<point x="622" y="603" type="line"/>
			<point x="622" y="657" type="line"/>
			<point x="415" y="657" type="line"/>
		</contour>
		<contour>
			<point name="aboveUC" x="358" y="685" type="move"/>
		</contour>
	</outline>
</glyph>
<glyph name="be" format="1">
	<unicode hex="0431"/>
	<advance width="573"/>
	<outline>
		<contour>
			<point x="101" y="284" type="line"/>
			<point x="107" y="415"/>
			<point x="134" y="489"/>
			<point x="177" y="517" type="curve" smooth="yes"/>
			<point x="224" y="548"/>
			<point x="274" y="557"/>
			<point x="366" y="567" type="curve" smooth="yes"/>
			<point x="434" y="576"/>
			<point x="478" y="579"/>
			<point x="503" y="609" type="curve" smooth="yes"/>
			<point x="524" y="635"/>
			<point x="537" y="688"/>
			<point x="541" y="759" type="curve"/>
			<point x="497" y="770" type="line"/>
			<point x="479" y="728" type="line"/>
			<point x="438" y="722"/>
			<point x="391" y="714"/>
			<point x="351" y="709" type="curve" smooth="yes"/>
			<point x="254" y="695"/>
			<point x="189" y="681"/>
			<point x="134" y="634" type="curve" smooth="yes"/>
			<point x="69" y="579"/>
			<point x="39" y="460"/>
			<point x="39" y="318" type="curve" smooth="yes"/>
			<point x="39" y="70"/>
			<point x="148" y="-15"/>
			<point x="290" y="-15" type="curve" smooth="yes"/>
			<point x="428" y="-15"/>
			<point x="544" y="65"/>
			<point x="544" y="240" type="curve" smooth="yes"/>
			<point x="544" y="384"/>
			<point x="457" y="465"/>
			<point x="309" y="465" type="curve" smooth="yes"/>
			<point x="209" y="465"/>
			<point x="123" y="410"/>
			<point x="89" y="286" type="curve"/>
		</contour>
		<contour>
			<point x="292" y="413" type="curve" smooth="yes"/>
			<point x="341" y="413"/>
			<point x="375" y="369"/>
			<point x="375" y="234" type="curve" smooth="yes"/>
			<point x="375" y="90"/>
			<point x="345" y="37"/>
			<point x="294" y="37" type="curve" smooth="yes"/>
			<point x="242" y="37"/>
			<point x="207" y="85"/>
			<point x="207" y="235" type="curve" smooth="yes"/>
			<point x="207" y="367"/>
			<point x="244" y="413"/>
		</contour>
	</outline>
</glyph>
<glyph name="ka" format="1">
	<unicode hex="043A"/>
	<advance width="582"/>
	<outline>
		<contour>
			<point x="29" y="0" type="line"/>
			<point x="297" y="0" type="line"/>
			<point x="297" y="47" type="line"/>
			<point x="201" y="67" type="line"/>
			<point x="126" y="67" type="line"/>
			<point x="29" y="47" type="line"/>
		</contour>
		<contour>
			<point x="29" y="437" type="line"/>
			<point x="126" y="417" type="line"/>
			<point x="201" y="417" type="line"/>
			<point x="297" y="437" type="line"/>
			<point x="297" y="483" type="line"/>
			<point x="29" y="483" type="line"/>
		</contour>
		<contour>
			<point x="80" y="0" type="curve"/>
			<point x="246" y="0" type="line"/>
			<point x="244" y="45"/>
			<point x="243" y="147"/>
			<point x="243" y="227" type="curve" smooth="yes"/>
			<point x="243" y="267" type="line" smooth="yes"/>
			<point x="243" y="336"/>
			<point x="244" y="438"/>
			<point x="246" y="483" type="curve"/>
			<point x="80" y="483" type="line"/>
			<point x="82" y="438"/>
			<point x="83" y="336"/>
			<point x="83" y="273" type="curve" smooth="yes"/>
			<point x="83" y="210" type="line" smooth="yes"/>
			<point x="83" y="147"/>
			<point x="82" y="45"/>
		</contour>
		<contour>
			<point x="369" y="72" type="line" smooth="yes"/>
			<point x="382" y="7"/>
			<point x="423" y="-12"/>
			<point x="486" y="-12" type="curve" smooth="yes"/>
			<point x="521" y="-12"/>
			<point x="552" y="-5"/>
			<point x="576" y="0" type="curve"/>
			<point x="576" y="46" type="line"/>
			<point x="426" y="70" type="line"/>
			<point x="533" y="5" type="line"/>
			<point x="503" y="127" type="line" smooth="yes"/>
			<point x="483" y="209"/>
			<point x="427" y="247"/>
			<point x="291" y="255" type="curve"/>
			<point x="306" y="236" type="line"/>
			<point x="357" y="252"/>
			<point x="381" y="274"/>
			<point x="405" y="334" type="curve" smooth="yes"/>
			<point x="417" y="367"/>
			<point x="432" y="394"/>
			<point x="453" y="427" type="curve"/>
			<point x="374" y="379" type="line"/>
			<point x="403" y="362"/>
			<point x="433" y="353"/>
			<point x="470" y="353" type="curve" smooth="yes"/>
			<point x="515" y="353"/>
			<point x="551" y="380"/>
			<point x="551" y="425" type="curve" smooth="yes"/>
			<point x="551" y="461"/>
			<point x="529" y="489"/>
			<point x="484" y="499" type="curve"/>
			<point x="420" y="484"/>
			<point x="388" y="451"/>
			<point x="357" y="357" type="curve" smooth="yes"/>
			<point x="333" y="285"/>
			<point x="316" y="273"/>
			<point x="275" y="273" type="curve" smooth="yes"/>
			<point x="163" y="273" type="line"/>
			<point x="163" y="220" type="line"/>
			<point x="269" y="220" type="line" smooth="yes"/>
			<point x="318" y="220"/>
			<point x="340" y="204"/>
			<point x="349" y="165" type="curve" smooth="yes"/>
		</contour>
		<contour>
			<point name="aboveLC" x="304" y="516" type="move"/>
		</contour>
	</outline>
</glyph>
<glyph name="ocyr" format="1">
	<unicode hex="043E"/>
	<advance width="565"/>
	<outline>
		<component base="o"/>
		<contour>
			<point name="aboveLC" x="283" y="516" type="move"/>
		</contour>
	</outline>
</glyph>
<glyph name="ef" format="1">
	<unicode hex="0444"/>
	<advance width="809"/>
	<outline>
		<contour>
			<point x="262" y="-227" type="line"/>
			<point x="544" y="-227" type="line"/>
			<point x="544" y="-180" type="line"/>
			<point x="457" y="-160" type="line"/>
			<point x="367" y="-160" type="line"/>
			<point x="262" y="-180" type="line"/>
		</contour>
		<contour>
			<point x="328" y="-227" type="curve"/>
			<point x="478" y="-227" type="line"/>
			<point x="476" y="-138"/>
			<point x="475" y="-66"/>
			<point x="475" y="10" type="curve" smooth="yes"/>
			<point x="478" y="33" type="line"/>
			<point x="478" y="565" type="line"/>
			<point x="482" y="704" type="line"/>
			<point x="466" y="715" type="line"/>
			<point x="267" y="670" type="line"/>
			<point x="267" y="627" type="line"/>
			<point x="337" y="617" type="line"/>
			<point x="337" y="473" type="line"/>
			<point x="331" y="462" type="line"/>
			<point x="331" y="10" type="line" smooth="yes"/>
			<point x="331" y="-66"/>
			<point x="330" y="-138"/>
		</contour>
		<contour>
			<point x="544" y="499" type="curve" smooth="yes"/>
			<point x="481" y="499"/>
			<point x="428" y="469"/>
			<point x="405" y="436" type="curve"/>
			<point x="405" y="392" type="line"/>
			<point x="438" y="421"/>
			<point x="467" y="446"/>
			<point x="514" y="446" type="curve" smooth="yes"/>
			<point x="590" y="446"/>
			<point x="630" y="379"/>
			<point x="630" y="243" type="curve" smooth="yes"/>
			<point x="630" y="105"/>
			<point x="590" y="37"/>
			<point x="514" y="37" type="curve" smooth="yes"/>
			<point x="467" y="37"/>
			<point x="438" y="62"/>
			<point x="405" y="90" type="curve"/>
			<point x="405" y="48" type="line"/>
			<point x="428" y="15"/>
			<point x="482" y="-15"/>
			<point x="544" y="-15" type="curve" smooth="yes"/>
			<point x="698" y="-15"/>
			<point x="782" y="91"/>
			<point x="782" y="245" type="curve" smooth="yes"/>
			<point x="782" y="400"/>
			<point x="698" y="499"/>
		</contour>
		<contour>
			<point x="265" y="-15" type="curve" smooth="yes"/>
			<point x="328" y="-15"/>
			<point x="382" y="15"/>
			<point x="405" y="47" type="curve"/>
			<point x="405" y="91" type="line"/>
			<point x="371" y="62"/>
			<point x="342" y="37"/>
			<point x="295" y="37" type="curve" smooth="yes"/>
			<point x="219" y="37"/>
			<point x="179" y="104"/>
			<point x="179" y="240" type="curve" smooth="yes"/>
			<point x="179" y="379"/>
			<point x="219" y="446"/>
			<point x="296" y="446" type="curve" smooth="yes"/>
			<point x="342" y="446"/>
			<point x="371" y="421"/>
			<point x="405" y="393" type="curve"/>
			<point x="405" y="436" type="line"/>
			<point x="382" y="468"/>
			<point x="327" y="499"/>
			<point x="265" y="499" type="curve" smooth="yes"/>
			<point x="112" y="499"/>
			<point x="27" y="393"/>
			<point x="27" y="238" type="curve" smooth="yes"/>
			<point x="27" y="84"/>
			<point x="112" y="-15"/>
		</contour>
	</outline>
</glyph>
<glyph name="che" format="1">
	<unicode hex="0447"/>
	<advance width="584"/>
	<outline>
		<contour>
			<point x="9" y="437" type="line"/>
			<point x="95" y="417" type="line"/>
			<point x="163" y="417" type="line"/>
			<point x="256" y="437" type="line"/>
			<point x="256" y="483" type="line"/>
			<point x="9" y="483" type="line"/>
		</contour>
		<contour>
			<point x="53" y="379" type="line" smooth="yes"/>
			<point x="53" y="237"/>
			<point x="96" y="178"/>
			<point x="235" y="178" type="curve" smooth="yes"/>
			<point x="298" y="178"/>
			<point x="353" y="191"/>
			<point x="398" y="202" type="curve"/>
			<point x="398" y="254" type="line"/>
			<point x="361" y="250"/>
			<point x="331" y="248"/>
			<point x="296" y="248" type="curve" smooth="yes"/>
			<point x="222" y="248"/>
			<point x="205" y="282"/>
			<point x="205" y="355" type="curve" smooth="yes"/>
			<point x="205" y="416"/>
			<point x="206" y="446"/>
			<point x="207" y="483" type="curve"/>
			<point x="53" y="483" type="line"/>
		</contour>
		<contour>
			<point x="287" y="0" type="line"/>
			<point x="555" y="0" type="line"/>
			<point x="555" y="47" type="line"/>
			<point x="457" y="67" type="line"/>
			<point x="382" y="67" type="line"/>
			<point x="287" y="47" type="line"/>
		</contour>
		<contour>
			<point x="293" y="437" type="line"/>
			<point x="384" y="417" type="line"/>
			<point x="459" y="417" type="line"/>
			<point x="555" y="437" type="line"/>
			<point x="555" y="483" type="line"/>
			<point x="293" y="483" type="line"/>
		</contour>
		<contour>
			<point x="338" y="0" type="curve"/>
			<point x="503" y="0" type="line"/>
			<point x="501" y="45"/>
			<point x="500" y="147"/>
			<point x="500" y="210" type="curve" smooth="yes"/>
			<point x="500" y="273" type="line" smooth="yes"/>
			<point x="500" y="336"/>
			<point x="501" y="438"/>
			<point x="503" y="483" type="curve"/>
			<point x="338" y="483" type="line"/>
			<point x="340" y="438"/>
			<point x="341" y="336"/>
			<point x="341" y="273" type="curve" smooth="yes"/>
			<point x="341" y="210" type="line" smooth="yes"/>
			<point x="341" y="147"/>
			<point x="340" y="45"/>
		</contour>
		<contour>
			<point name="aboveLC" x="286" y="516" type="move"/>
		</contour>
	</outline>
</glyph>
<glyph name="hard" format="1">
	<unicode hex="044A"/>
	<advance width="638"/>
	<outline>
		<contour>
			<point x="24" y="302" type="line"/>
			<point x="87" y="302" type="line"/>
			<point x="120" y="483" type="line"/>
			<point x="59" y="431" type="line"/>
			<point x="280" y="431" type="line"/>
			<point x="280" y="483" type="line"/>
			<point x="28" y="483" type="line"/>
		</contour>
		<contour>
			<point x="132" y="0" type="line"/>
			<point x="280" y="0" type="line"/>
			<point x="280" y="67" type="line"/>
			<point x="244" y="67" type="line"/>
			<point x="132" y="47" type="line"/>
		</contour>
		<contour>
			<point x="198" y="0" type="curve"/>
			<point x="363" y="0" type="line"/>
			<point x="361" y="45"/>
			<point x="360" y="147"/>
			<point x="360" y="210" type="curve" smooth="yes"/>
			<point x="360" y="273" type="line" smooth="yes"/>
			<point x="360" y="336"/>
			<point x="361" y="438"/>
			<point x="363" y="483" type="curve"/>
			<point x="198" y="483" type="line"/>
			<point x="200" y="438"/>
			<point x="201" y="336"/>
			<point x="201" y="273" type="curve" smooth="yes"/>
			<point x="201" y="210" type="line" smooth="yes"/>
			<point x="201" y="147"/>
			<point x="200" y="45"/>
		</contour>
		<contour>
			<point x="280" y="0" type="line"/>
			<point x="389" y="0" type="line" smooth="yes"/>
			<point x="579" y="0"/>
			<point x="620" y="68"/>
			<point x="620" y="153" type="curve" smooth="yes"/>
			<point x="620" y="225"/>
			<point x="576" y="301"/>
			<point x="434" y="301" type="curve" smooth="yes"/>
			<point x="388" y="301"/>
			<point x="328" y="295"/>
			<point x="280" y="283" type="curve"/>
			<point x="280" y="241" type="line"/>
			<point x="313" y="248"/>
			<point x="347" y="251"/>
			<point x="383" y="251" type="curve" smooth="yes"/>
			<point x="441" y="251"/>
			<point x="474" y="222"/>
			<point x="474" y="152" type="curve" smooth="yes"/>
			<point x="474" y="80"/>
			<point x="447" y="49"/>
			<point x="382" y="49" type="curve" smooth="yes"/>
			<point x="280" y="49" type="line"/>
		</contour>
		<contour>
			<point x="280" y="417" type="line"/>
			<point x="319" y="417" type="line"/>
			<point x="426" y="437" type="line"/>
			<point x="426" y="483" type="line"/>
			<point x="280" y="483" type="line"/>
		</contour>
	</outline>
</glyph>
<glyph name="yeru" format="1">
	<unicode hex="044B"/>
	<advance width="810"/>
	<outline>
		<contour>
			<point x="513" y="0" type="line"/>
			<point x="781" y="0" type="line"/>
			<point x="781" y="47" type="line"/>
			<point x="685" y="67" type="line"/>
			<point x="611" y="67" type="line"/>
			<point x="513" y="47" type="line"/>
		</contour>
		<contour>
			<point x="513" y="437" type="line"/>
			<point x="611" y="417" type="line"/>
			<point x="685" y="417" type="line"/>
			<point x="781" y="437" type="line"/>
			<point x="781" y="483" type="line"/>
			<point x="513" y="483" type="line"/>
		</contour>
		<contour>
			<point x="564" y="0" type="curve"/>
			<point x="730" y="0" type="line"/>
			<point x="728" y="45"/>
			<point x="727" y="147"/>
			<point x="727" y="210" type="curve" smooth="yes"/>
			<point x="727" y="273" type="line" smooth="yes"/>
			<point x="727" y="336"/>
			<point x="728" y="438"/>
			<point x="730" y="483" type="curve"/>
			<point x="564" y="483" type="line"/>
			<point x="566" y="438"/>
			<point x="567" y="336"/>
			<point x="567" y="273" type="curve" smooth="yes"/>
			<point x="567" y="210" type="line" smooth="yes"/>
			<point x="567" y="147"/>
			<point x="566" y="45"/>
		</contour>
		<contour>
			<point x="29" y="0" type="line"/>
			<point x="163" y="0" type="line"/>
			<point x="163" y="67" type="line"/>
			<point x="126" y="67" type="line"/>
			<point x="29" y="47" type="line"/>
		</contour>
		<contour>
			<point x="29" y="437" type="line"/>
			<point x="126" y="417" type="line"/>
			<point x="201" y="417" type="line"/>
			<point x="297" y="437" type="line"/>
			<point x="297" y="483" type="line"/>
			<point x="29" y="483" type="line"/>
		</contour>
		<contour>
			<point x="80" y="0" type="curve"/>
			<point x="246" y="0" type="line"/>
			<point x="244" y="45"/>
			<point x="243" y="147"/>
			<point x="243" y="210" type="curve" smooth="yes"/>
			<point x="243" y="273" type="line" smooth="yes"/>
			<point x="243" y="335"/>
			<point x="244" y="438"/>
			<point x="246" y="483" type="curve"/>
			<point x="80" y="483" type="line"/>
			<point x="82" y="438"/>
			<point x="83" y="336"/>
			<point x="83" y="273" type="curve" smooth="yes"/>
			<point x="83" y="210" type="line" smooth="yes"/>
			<point x="83" y="147"/>
			<point x="82" y="45"/>
		</contour>
		<contour>
			<point x="162" y="0" type="line"/>
			<point x="265" y="0" type="line" smooth="yes"/>
			<point x="441" y="0"/>
			<point x="495" y="62"/>
			<point x="495" y="154" type="curve" smooth="yes"/>
			<point x="495" y="228"/>
			<point x="450" y="301"/>
			<point x="309" y="301" type="curve" smooth="yes"/>
			<point x="264" y="301"/>
			<point x="209" y="295"/>
			<point x="161" y="283" type="curve"/>
			<point x="161" y="241" type="line"/>
			<point x="193" y="248"/>
			<point x="223" y="251"/>
			<point x="261" y="251" type="curve" smooth="yes"/>
			<point x="319" y="251"/>
			<point x="349" y="222"/>
			<point x="349" y="156" type="curve" smooth="yes"/>
			<point x="349" y="80"/>
			<point x="318" y="49"/>
			<point x="260" y="49" type="curve" smooth="yes"/>
			<point x="162" y="49" type="line"/>
		</contour>
		<contour>
			<point name="aboveLC" x="407" y="506" type="move"/>
		</contour>
	</outline>
</glyph>
<glyph name="soft" format="1">
	<unicode hex="044C"/>
	<advance width="526"/>
	<outline>
		<contour>
			<point x="29" y="0" type="line"/>
			<point x="163" y="0" type="line"/>
			<point x="163" y="67" type="line"/>
			<point x="126" y="67" type="line"/>
			<point x="29" y="47" type="line"/>
		</contour>
		<contour>
			<point x="29" y="437" type="line"/>
			<point x="126" y="417" type="line"/>
			<point x="201" y="417" type="line"/>
			<point x="297" y="437" type="line"/>
			<point x="297" y="483" type="line"/>
			<point x="29" y="483" type="line"/>
		</contour>
		<contour>
			<point x="80" y="0" type="curve"/>
			<point x="246" y="0" type="line"/>
			<point x="244" y="45"/>
			<point x="243" y="147"/>
			<point x="243" y="210" type="curve" smooth="yes"/>
			<point x="243" y="273" type="line" smooth="yes"/>
			<point x="243" y="335"/>
			<point x="244" y="438"/>
			<point x="246" y="483" type="curve"/>
			<point x="80" y="483" type="line"/>
			<point x="82" y="438"/>
			<point x="83" y="336"/>
			<point x="83" y="273" type="curve" smooth="yes"/>
			<point x="83" y="210" type="line" smooth="yes"/>
			<point x="83" y="147"/>
			<point x="82" y="45"/>
		</contour>
		<contour>
			<point x="163" y="0" type="line"/>
			<point x="274" y="0" type="line" smooth="yes"/>
			<point x="460" y="0"/>
			<point x="508" y="68"/>
			<point x="508" y="153" type="curve" smooth="yes"/>
			<point x="508" y="227"/>
			<point x="458" y="301"/>
			<point x="318" y="301" type="curve" smooth="yes"/>
			<point x="272" y="301"/>
			<point x="211" y="295"/>
			<point x="163" y="283" type="curve"/>
			<point x="163" y="241" type="line"/>
			<point x="196" y="248"/>
			<point x="231" y="251"/>
			<point x="266" y="251" type="curve" smooth="yes"/>
			<point x="333" y="251"/>
			<point x="362" y="225"/>
			<point x="362" y="151" type="curve" smooth="yes"/>
			<point x="362" y="79"/>
			<point x="328" y="49"/>
			<point x="267" y="49" type="curve" smooth="yes"/>
			<point x="163" y="49" type="line"/>
		</contour>
	</outline>
</glyph>
<glyph name="yu" format="1">
	<unicode hex="044E"/>
	<advance width="823"/>
	<outline>
		<contour>
			<point x="29" y="0" type="line"/>
			<point x="297" y="0" type="line"/>
			<point x="297" y="47" type="line"/>
			<point x="201" y="67" type="line"/>
			<point x="126" y="67" type="line"/>
			<point x="29" y="47" type="line"/>
		</contour>
		<contour>
			<point x="29" y="437" type="line"/>
			<point x="126" y="417" type="line"/>
			<point x="201" y="417" type="line"/>
			<point x="297" y="437" type="line"/>
			<point x="297" y="483" type="line"/>
			<point x="29" y="483" type="line"/>
		</contour>
		<contour>
			<point x="80" y="0" type="curve"/>
			<point x="246" y="0" type="line"/>
			<point x="244" y="45"/>
			<point x="243" y="147"/>
			<point x="243" y="239" type="curve" smooth="yes"/>
			<point x="243" y="273" type="line" smooth="yes"/>
			<point x="243" y="336"/>
			<point x="244" y="438"/>
			<point x="246" y="483" type="curve"/>
			<point x="80" y="483" type="line"/>
			<point x="82" y="438"/>
			<point x="83" y="336"/>
			<point x="83" y="273" type="curve" smooth="yes"/>
			<point x="83" y="210" type="line" smooth="yes"/>
			<point x="83" y="147"/>
			<point x="82" y="45"/>
		</contour>
		<contour>
			<point x="164" y="230" type="line"/>
			<point x="399" y="230" type="line"/>
			<point x="399" y="283" type="line"/>
			<point x="164" y="283" type="line"/>
		</contour>
		<contour>
			<point x="559" y="-15" type="curve" smooth="yes"/>
			<point x="708" y="-15"/>
			<point x="794" y="85"/>
			<point x="794" y="244" type="curve" smooth="yes"/>
			<point x="794" y="403"/>
			<point x="697" y="499"/>
			<point x="558" y="499" type="curve" smooth="yes"/>
			<point x="420" y="499"/>
			<point x="328" y="400"/>
			<point x="328" y="244" type="curve" smooth="yes"/>
			<point x="328" y="87"/>
			<point x="411" y="-15"/>
		</contour>
		<contour>
			<point x="556" y="37" type="curve" smooth="yes"/>
			<point x="499" y="37"/>
			<point x="475" y="91"/>
			<point x="475" y="241" type="curve" smooth="yes"/>
			<point x="475" y="392"/>
			<point x="500" y="446"/>
			<point x="556" y="446" type="curve" smooth="yes"/>
			<point x="611" y="446"/>
			<point x="639" y="390"/>
			<point x="639" y="241" type="curve" smooth="yes"/>
			<point x="639" y="93"/>
			<point x="612" y="37"/>
		</contour>
		<contour>
			<point name="aboveLC" x="378" y="516" type="move"/>
		</contour>
	</outline>
</glyph>
<glyph name="izhitsa" format="1">
	<unicode hex="0475"/>
	<advance width="568"/>
	<outline>
		<contour>
			<point x="-7" y="438" type="line"/>
			<point x="87" y="417" type="line"/>
			<point x="189" y="417" type="line"/>
			<point x="277" y="438" type="line"/>
			<point x="277" y="483" type="line"/>
			<point x="-7" y="483" type="line"/>
		</contour>
		<contour>
			<point x="222" y="-2" type="line"/>
			<point x="305" y="-2" type="line"/>
			<point x="399" y="270" type="line" smooth="yes"/>
			<point x="420" y="330"/>
			<point x="438" y="374"/>
			<point x="471" y="425" type="curve"/>
			<point x="414" y="393" type="line"/>
			<point x="444" y="369"/>
			<point x="465" y="360"/>
			<point x="494" y="360" type="curve" smooth="yes"/>
			<point x="543" y="360"/>
			<point x="573" y="387"/>
			<point x="573" y="427" type="curve" smooth="yes"/>
			<point x="573" y="467"/>
			<point x="542" y="490"/>
			<point x="506" y="499" type="curve"/>
			<point x="473" y="492"/>
			<point x="442" y="477"/>
			<point x="418" y="449" type="curve" smooth="yes"/>
			<point x="391" y="415"/>
			<point x="370" y="350"/>
			<point x="349" y="284" type="curve" smooth="yes"/>
			<point x="264" y="19" type="line"/>
			<point x="324" y="128" type="line"/>
			<point x="193" y="483" type="line"/>
			<point x="20" y="483" type="line"/>
		</contour>
	</outline>
</glyph>
<glyph name="kadescender" format="1">
	<unicode hex="049B"/>
	<advance width="624"/>
	<outline>
		<contour>
			<point x="557" y="0" type="line"/>
			<point x="492" y="53" type="line"/>
			<point x="534" y="-157" type="line"/>
			<point x="603" y="-157" type="line"/>
			<point x="608" y="46" type="line"/>
			<point x="466" y="63" type="line"/>
			<point x="469" y="0" type="line"/>
		</contour>
		<component base="ka"/>
	</outline>
</glyph>
<glyph name="Kabashkir" format="1">
	<unicode hex="04A0"/>
	<advance width="837"/>
	<outline>
		<contour>
			<point x="20" y="471" type="line"/>
			<point x="103" y="471" type="line"/>
			<point x="129" y="657" type="line"/>
			<point x="57" y="601" type="line"/>
			<point x="327" y="601" type="line"/>
			<point x="327" y="657" type="line"/>
			<point x="23" y="657" type="line"/>
		</contour>
		<contour>
			<point x="327" y="588" type="line"/>
			<point x="337" y="588" type="line"/>
			<point x="490" y="603" type="line"/>
			<point x="490" y="657" type="line"/>
			<point x="327" y="657" type="line"/>
		</contour>
		<contour>
			<point x="173" y="0" type="line"/>
			<point x="490" y="0" type="line"/>
			<point x="490" y="54" type="line"/>
			<point x="344" y="69" type="line"/>
			<point x="315" y="69" type="line"/>
			<point x="173" y="54" type="line"/>
		</contour>
		<contour>
			<point x="247" y="0" type="curve"/>
			<point x="421" y="0" type="line"/>
			<point x="418" y="103"/>
			<point x="418" y="207"/>
			<point x="418" y="315" type="curve" smooth="yes"/>
			<point x="418" y="343" type="line" smooth="yes"/>
			<point x="418" y="452"/>
			<point x="418" y="556"/>
			<point x="421" y="657" type="curve"/>
			<point x="247" y="657" type="line"/>
			<point x="250" y="554"/>
			<point x="250" y="450"/>
			<point x="250" y="347" type="curve" smooth="yes"/>
			<point x="250" y="310" type="line" smooth="yes"/>
			<point x="250" y="205"/>
			<point x="250" y="101"/>
		</contour>
		<contour>
			<point x="584" y="84" type="line" smooth="yes"/>
			<point x="602" y="1"/>
			<point x="648" y="-14"/>
			<point x="729" y="-14" type="curve" smooth="yes"/>
			<point x="760" y="-14"/>
			<point x="795" y="-11"/>
			<point x="834" y="0" type="curve"/>
			<point x="834" y="54" type="line"/>
			<point x="666" y="68" type="line"/>
			<point x="762" y="34" type="line"/>
			<point x="730" y="171" type="line" smooth="yes"/>
			<point x="706" y="288"/>
			<point x="633" y="334"/>
			<point x="472" y="339" type="curve"/>
			<point x="472" y="320" type="line"/>
			<point x="553" y="329"/>
			<point x="591" y="365"/>
			<point x="624" y="460" type="curve" smooth="yes"/>
			<point x="642" y="508"/>
			<point x="654" y="537"/>
			<point x="674" y="567" type="curve"/>
			<point x="617" y="530" type="line"/>
			<point x="622" y="528"/>
			<point x="669" y="523"/>
			<point x="677" y="523" type="curve" smooth="yes"/>
			<point x="764" y="515"/>
			<point x="799" y="557"/>
			<point x="799" y="599" type="curve" smooth="yes"/>
			<point x="799" y="648"/>
			<point x="770" y="675"/>
			<point x="711" y="676" type="curve"/>
			<point x="656" y="665"/>
			<point x="615" y="613"/>
			<point x="572" y="486" type="curve" smooth="yes"/>
			<point x="536" y="376"/>
			<point x="505" y="359"/>
			<point x="445" y="359" type="curve" smooth="yes"/>
			<point x="333" y="359" type="line"/>
			<point x="333" y="304" type="line"/>
			<point x="454" y="304" type="line" smooth="yes"/>
			<point x="504" y="304"/>
			<point x="538" y="283"/>
			<point x="550" y="233" type="curve" smooth="yes"/>
		</contour>
	</outline>
</glyph>
<glyph name="Schwacyr" format="1">
	<unicode hex="04D8"/>
	<advance width="664"/>
	<outline>
		<contour>
			<point x="322" y="-19" type="curve" smooth="yes"/>
			<point x="481" y="-19"/>
			<point x="631" y="98"/>
			<point x="631" y="331" type="curve" smooth="yes"/>
			<point x="631" y="551"/>
			<point x="494" y="676"/>
			<point x="291" y="676" type="curve" smooth="yes"/>
			<point x="206" y="676"/>
			<point x="143" y="653"/>
			<point x="90" y="624" type="curve"/>
			<point x="93" y="460" type="line"/>
			<point x="167" y="460" type="line"/>
			<point x="207" y="635" type="line"/>
			<point x="130" y="573" type="line"/>
			<point x="175" y="601"/>
			<point x="219" y="618"/>
			<point x="272" y="618" type="curve" smooth="yes"/>
			<point x="391" y="618"/>
			<point x="455" y="537"/>
			<point x="455" y="323" type="curve" smooth="yes"/>
			<point x="455" y="137"/>
			<point x="409" y="39"/>
			<point x="324" y="39" type="curve" smooth="yes"/>
			<point x="254" y="39"/>
			<point x="204" y="99"/>
			<point x="204" y="221" type="curve" smooth="yes"/>
			<point x="204" y="252"/>
			<point x="206" y="277"/>
			<point x="211" y="306" type="curve"/>
			<point x="540" y="306" type="line"/>
			<point x="540" y="365" type="line"/>
			<point x="42" y="365" type="line"/>
			<point x="36" y="337"/>
			<point x="34" y="312"/>
			<point x="34" y="274" type="curve" smooth="yes"/>
			<point x="34" y="105"/>
			<point x="128" y="-19"/>
		</contour>
	</outline>
</glyph>
<glyph name="Obarcyr" format="1">
	<unicode hex="04E8"/>
	<advance width="702"/>
	<outline>
		<component base="Fita"/>
		<contour>
			<point name="aboveUC" x="351" y="685" type="move"/>
		</contour>
	</outline>
</glyph>
<glyph name="f.sups" format="1">
	<unicode hex="1DA0"/>
	<advance width="233"/>
	<outline>
		<contour>
			<point x="142" y="455" type="line"/>
			<point x="83" y="455" type="line"/>
			<point x="15" y="442" type="line"/>
			<point x="15" y="412" type="line"/>
			<point x="208" y="412" type="line"/>
			<point x="208" y="442" type="line"/>
		</contour>
		<contour>
			<point x="105" y="724" type="line"/>
			<point x="105" y="681" type="line"/>
			<point x="225" y="681" type="line"/>
			<point x="225" y="724" type="line"/>
		</contour>
		<contour>
			<point x="56" y="412" type="line"/>
			<point x="154" y="412" type="line"/>
			<point x="154" y="691" type="line"/>
			<point x="149" y="772"/>
			<point x="155" y="820"/>
			<point x="182" y="850" type="curve" smooth="yes"/>
			<point x="190" y="862"/>
			<point x="210" y="874"/>
			<point x="228" y="874" type="curve" smooth="yes"/>
			<point x="237" y="874"/>
			<point x="246" y="872"/>
			<point x="252" y="867" type="curve"/>
			<point x="240" y="885" type="line"/>
			<point x="178" y="872" type="line"/>
			<point x="195" y="850" type="line" smooth="yes"/>
			<point x="213" y="821"/>
			<point x="231" y="808"/>
			<point x="253" y="808" type="curve" smooth="yes"/>
			<point x="281" y="808"/>
			<point x="298" y="826"/>
			<point x="299" y="849" type="curve"/>
			<point x="291" y="881"/>
			<point x="258" y="893"/>
			<point x="222" y="893" type="curve" smooth="yes"/>
			<point x="185" y="893"/>
			<point x="147" y="882"/>
			<point x="114" y="851" type="curve" smooth="yes"/>
			<point x="84" y="823"/>
			<point x="63" y="786"/>
			<point x="56" y="711" type="curve"/>
			<point x="90" y="728" type="line"/>
			<point x="14" y="719" type="line"/>
			<point x="14" y="681" type="line"/>
			<point x="56" y="681" type="line"/>
		</contour>
	</outline>
</glyph>
<glyph name="endash" format="1">
  <advance width="539"/>
  <unicode hex="2013"/>
  <outline>
    <contour>
      <point x="40" y="209" type="line"/>
      <point x="499" y="209" type="line"/>
      <point x="499" y="299" type="line"/>
      <point x="40" y="299" type="line"/>
    </contour>
  </outline>
</glyph>
<glyph name="dong" format="1">
	<unicode hex="20AB"/>
	<advance width="542"/>
	<outline>
		<contour>
			<point x="44" y="0" type="line"/>
			<point x="499" y="0" type="line"/>
			<point x="499" y="57" type="line"/>
			<point x="44" y="57" type="line"/>
		</contour>
		<contour>
			<point x="206" y="91" type="curve" smooth="yes"/>
			<point x="248" y="91"/>
			<point x="290" y="107"/>
			<point x="337" y="164" type="curve"/>
			<point x="337" y="205" type="line"/>
			<point x="298" y="176"/>
			<point x="283" y="171"/>
			<point x="266" y="171" type="curve" smooth="yes"/>
			<point x="222" y="171"/>
			<point x="192" y="217"/>
			<point x="192" y="294" type="curve" smooth="yes"/>
			<point x="192" y="373"/>
			<point x="225" y="413"/>
			<point x="268" y="413" type="curve" smooth="yes"/>
			<point x="282" y="413"/>
			<point x="297" y="410"/>
			<point x="338" y="382" type="curve"/>
			<point x="338" y="428" type="line"/>
			<point x="297" y="478"/>
			<point x="261" y="491"/>
			<point x="223" y="491" type="curve" smooth="yes"/>
			<point x="130" y="491"/>
			<point x="45" y="414"/>
			<point x="45" y="289" type="curve" smooth="yes"/>
			<point x="45" y="162"/>
			<point x="113" y="91"/>
		</contour>
		<contour>
			<point x="118" y="514" type="line"/>
			<point x="507" y="514" type="line"/>
			<point x="507" y="571" type="line"/>
			<point x="118" y="571" type="line"/>
		</contour>
		<contour>
			<point x="323" y="95" type="line"/>
			<point x="498" y="103" type="line"/>
			<point x="498" y="151" type="line"/>
			<point x="452" y="159" type="line"/>
			<point x="452" y="547" type="line"/>
			<point x="455" y="669" type="line"/>
			<point x="443" y="677" type="line"/>
			<point x="248" y="652" type="line"/>
			<point x="248" y="608" type="line"/>
			<point x="318" y="603" type="line"/>
			<point x="318" y="425" type="line"/>
			<point x="313" y="415" type="line"/>
			<point x="313" y="171" type="line"/>
		</contour>
	</outline>
</glyph>
<glyph name="hryvnia" format="1">
	<unicode hex="20B4"/>
	<advance width="542"/>
	<outline>
		<contour>
			<point x="30" y="229" type="line"/>
			<point x="520" y="229" type="line"/>
			<point x="520" y="287" type="line"/>
			<point x="30" y="287" type="line"/>
		</contour>
		<contour>
			<point x="30" y="351" type="line"/>
			<point x="520" y="351" type="line"/>
			<point x="520" y="408" type="line"/>
			<point x="30" y="408" type="line"/>
		</contour>
		<contour>
			<point x="89" y="144" type="curve" smooth="yes"/>
			<point x="89" y="51"/>
			<point x="160" y="-14"/>
			<point x="294" y="-14" type="curve" smooth="yes"/>
			<point x="423" y="-14"/>
			<point x="499" y="39"/>
			<point x="500" y="127" type="curve"/>
			<point x="487" y="159"/>
			<point x="464" y="173"/>
			<point x="439" y="173" type="curve" smooth="yes"/>
			<point x="401" y="173"/>
			<point x="379" y="155"/>
			<point x="372" y="102" type="curve" smooth="yes"/>
			<point x="362" y="20" type="line"/>
			<point x="449" y="68" type="line"/>
			<point x="401" y="47"/>
			<point x="370" y="38"/>
			<point x="320" y="38" type="curve" smooth="yes"/>
			<point x="262" y="38"/>
			<point x="223" y="77"/>
			<point x="223" y="136" type="curve" smooth="yes"/>
			<point x="223" y="186"/>
			<point x="239" y="213"/>
			<point x="279" y="249" type="curve" smooth="yes"/>
			<point x="415" y="373" type="line" smooth="yes"/>
			<point x="462" y="416"/>
			<point x="473" y="456"/>
			<point x="473" y="497" type="curve" smooth="yes"/>
			<point x="473" y="582"/>
			<point x="414" y="646"/>
			<point x="282" y="646" type="curve" smooth="yes"/>
			<point x="169" y="646"/>
			<point x="89" y="591"/>
			<point x="87" y="507" type="curve"/>
			<point x="93" y="471"/>
			<point x="118" y="458"/>
			<point x="142" y="458" type="curve" smooth="yes"/>
			<point x="177" y="458"/>
			<point x="210" y="472"/>
			<point x="222" y="540" type="curve" smooth="yes"/>
			<point x="234" y="610" type="line"/>
			<point x="145" y="566" type="line"/>
			<point x="193" y="588"/>
			<point x="220" y="592"/>
			<point x="257" y="592" type="curve" smooth="yes"/>
			<point x="310" y="592"/>
			<point x="346" y="563"/>
			<point x="346" y="510" type="curve" smooth="yes"/>
			<point x="346" y="471"/>
			<point x="326" y="439"/>
			<point x="270" y="388" type="curve" smooth="yes"/>
			<point x="141" y="272" type="line" smooth="yes"/>
			<point x="97" y="231"/>
			<point x="89" y="189"/>
		</contour>
	</outline>
</glyph>
<glyph name="cedi" format="1">
	<unicode hex="20B5"/>
	<advance width="542"/>
	<outline>
		<contour>
			<point x="336" y="-15" type="curve" smooth="yes"/>
			<point x="440" y="-15"/>
			<point x="513" y="40"/>
			<point x="516" y="118" type="curve"/>
			<point x="507" y="151"/>
			<point x="488" y="166"/>
			<point x="462" y="166" type="curve" smooth="yes"/>
			<point x="433" y="166"/>
			<point x="403" y="153"/>
			<point x="392" y="87" type="curve" smooth="yes"/>
			<point x="379" y="20" type="line"/>
			<point x="459" y="62" type="line"/>
			<point x="416" y="43"/>
			<point x="393" y="37"/>
			<point x="335" y="37" type="curve" smooth="yes"/>
			<point x="260" y="37"/>
			<point x="207" y="112"/>
			<point x="207" y="320" type="curve" smooth="yes"/>
			<point x="207" y="528"/>
			<point x="256" y="593"/>
			<point x="341" y="593" type="curve" smooth="yes"/>
			<point x="381" y="593"/>
			<point x="411" y="590"/>
			<point x="460" y="567" type="curve"/>
			<point x="377" y="611" type="line"/>
			<point x="389" y="543" type="line" smooth="yes"/>
			<point x="401" y="478"/>
			<point x="430" y="464"/>
			<point x="462" y="464" type="curve" smooth="yes"/>
			<point x="485" y="464"/>
			<point x="507" y="480"/>
			<point x="514" y="512" type="curve"/>
			<point x="511" y="591"/>
			<point x="442" y="646"/>
			<point x="340" y="646" type="curve" smooth="yes"/>
			<point x="185" y="645"/>
			<point x="61" y="543"/>
			<point x="61" y="316" type="curve" smooth="yes"/>
			<point x="61" y="89"/>
			<point x="172" y="-15"/>
		</contour>
		<contour>
			<point x="290" y="-115" type="line"/>
			<point x="352" y="-115" type="line"/>
			<point x="352" y="736" type="line"/>
			<point x="290" y="736" type="line"/>
		</contour>
	</outline>
</glyph>
<glyph name="tenge" format="1">
	<unicode hex="20B8"/>
	<advance width="542"/>
	<outline>
		<contour>
			<point x="13" y="336" type="line"/>
			<point x="93" y="336" type="line"/>
			<point x="118" y="514" type="line"/>
			<point x="48" y="460" type="line"/>
			<point x="494" y="460" type="line"/>
			<point x="425" y="514" type="line"/>
			<point x="450" y="336" type="line"/>
			<point x="530" y="336" type="line"/>
			<point x="527" y="514" type="line"/>
			<point x="16" y="514" type="line"/>
		</contour>
		<contour>
			<point x="16" y="573" type="line"/>
			<point x="527" y="573" type="line"/>
			<point x="527" y="630" type="line"/>
			<point x="16" y="630" type="line"/>
		</contour>
		<contour>
			<point x="107" y="0" type="line"/>
			<point x="436" y="0" type="line"/>
			<point x="436" y="52" type="line"/>
			<point x="291" y="66" type="line"/>
			<point x="249" y="66" type="line"/>
			<point x="107" y="52" type="line"/>
		</contour>
		<contour>
			<point x="188" y="0" type="curve"/>
			<point x="354" y="0" type="line"/>
			<point x="351" y="77"/>
			<point x="351" y="155"/>
			<point x="351" y="233" type="curve" smooth="yes"/>
			<point x="351" y="273" type="line" smooth="yes"/>
			<point x="351" y="354"/>
			<point x="351" y="435"/>
			<point x="354" y="514" type="curve"/>
			<point x="188" y="514" type="line"/>
			<point x="191" y="434"/>
			<point x="191" y="353"/>
			<point x="191" y="273" type="curve" smooth="yes"/>
			<point x="191" y="232" type="line" smooth="yes"/>
			<point x="191" y="154"/>
			<point x="191" y="75"/>
		</contour>
	</outline>
</glyph>
<glyph name="Omega.math" format="1">
  <advance width="803"/>
  <unicode hex="2126"/>
  <outline>
    <contour>
      <point x="100" y="236" type="line"/>
      <point x="15" y="236" type="line"/>
      <point x="30" y="0" type="line"/>
      <point x="363" y="0" type="line"/>
      <point x="363" y="57" type="line"/>
      <point x="318" y="122" type="line"/>
      <point x="68" y="122" type="line"/>
      <point x="147" y="0" type="line"/>
    </contour>
    <contour>
      <point x="703" y="236" type="line"/>
      <point x="656" y="0" type="line"/>
      <point x="735" y="122" type="line"/>
      <point x="485" y="122" type="line"/>
      <point x="440" y="57" type="line"/>
      <point x="440" y="0" type="line"/>
      <point x="773" y="0" type="line"/>
      <point x="788" y="236" type="line"/>
    </contour>
    <contour>
      <point x="401" y="618" type="curve" smooth="yes"/>
      <point x="519" y="618"/>
      <point x="555" y="526"/>
      <point x="555" y="430" type="curve" smooth="yes"/>
      <point x="555" y="314"/>
      <point x="505" y="175"/>
      <point x="440" y="105" type="curve"/>
      <point x="440" y="0" type="line"/>
      <point x="541" y="0" type="line"/>
      <point x="541" y="125" type="line"/>
      <point x="631" y="180"/>
      <point x="724" y="294"/>
      <point x="724" y="419" type="curve" smooth="yes"/>
      <point x="724" y="562"/>
      <point x="613" y="676"/>
      <point x="401" y="676" type="curve" smooth="yes"/>
      <point x="190" y="676"/>
      <point x="79" y="561"/>
      <point x="79" y="418" type="curve" smooth="yes"/>
      <point x="79" y="294"/>
      <point x="172" y="180"/>
      <point x="262" y="125" type="curve"/>
      <point x="262" y="0" type="line"/>
      <point x="363" y="0" type="line"/>
      <point x="363" y="105" type="line"/>
      <point x="297" y="175"/>
      <point x="248" y="314"/>
      <point x="248" y="430" type="curve" smooth="yes"/>
      <point x="248" y="526"/>
      <point x="283" y="618"/>
    </contour>
  </outline>
</glyph>
<glyph name="Delta.math" format="1">
  <advance width="592"/>
  <unicode hex="2206"/>
  <outline>
    <contour>
      <point x="484" y="0" type="line"/>
      <point x="484" y="58" type="line"/>
      <point x="50" y="58" type="line"/>
      <point x="50" y="0" type="line"/>
    </contour>
    <contour>
      <point x="264" y="586" type="line"/>
      <point x="227" y="536" type="line"/>
      <point x="409" y="0" type="line"/>
      <point x="565" y="0" type="line"/>
      <point x="565" y="42" type="line"/>
      <point x="343" y="657" type="line"/>
      <point x="240" y="657" type="line"/>
      <point x="27" y="42" type="line"/>
      <point x="27" y="0" type="line"/>
      <point x="73" y="0" type="line"/>
    </contour>
  </outline>
</glyph>
<glyph name="A" format="1">
  <advance width="673"/>
  <outline>
    <contour>
      <point x="492" y="64" type="line"/>
      <point x="375" y="49" type="line"/>
      <point x="375" y="0" type="line"/>
      <point x="669" y="0" type="line"/>
      <point x="669" y="49" type="line"/>
      <point x="542" y="64" type="line"/>
    </contour>
    <contour>
      <point x="107" y="65" type="line"/>
      <point x="5" y="50" type="line"/>
      <point x="5" y="0" type="line"/>
      <point x="230" y="0" type="line"/>
      <point x="230" y="50" type="line"/>
      <point x="126" y="65" type="line"/>
    </contour>
    <contour>
      <point x="476" y="204" type="line"/>
      <point x="456" y="259" type="line"/>
      <point x="195" y="259" type="line"/>
      <point x="174" y="204" type="line"/>
    </contour>
    <contour>
      <point x="316" y="655" type="line"/>
      <point x="70" y="0" type="line"/>
      <point x="126" y="0" type="line"/>
      <point x="318" y="516" type="line"/>
      <point x="293" y="516" type="line"/>
      <point x="478" y="0" type="line"/>
      <point x="625" y="0" type="line"/>
      <point x="376" y="655" type="line"/>
    </contour>
  </outline>
</glyph>
<glyph name="AE" format="1">
  <advance width="913"/>
  <outline>
    <contour>
      <point x="430" y="244" type="line"/>
      <point x="430" y="155"/>
      <point x="429" y="77"/>
      <point x="427" y="0" type="curve"/>
      <point x="579" y="0" type="line"/>
      <point x="576" y="103"/>
      <point x="576" y="207"/>
      <point x="576" y="320" type="curve" smooth="yes"/>
      <point x="576" y="345" type="line" smooth="yes"/>
      <point x="576" y="450"/>
      <point x="576" y="554"/>
      <point x="579" y="655" type="curve"/>
      <point x="430" y="655" type="line"/>
    </contour>
    <contour>
      <point x="112" y="65" type="line"/>
      <point x="10" y="50" type="line"/>
      <point x="10" y="0" type="line"/>
      <point x="235" y="0" type="line"/>
      <point x="235" y="50" type="line"/>
      <point x="131" y="65" type="line"/>
    </contour>
    <contour>
      <point x="702" y="333" type="line"/>
      <point x="717" y="224" type="line"/>
      <point x="771" y="224" type="line"/>
      <point x="771" y="456" type="line"/>
      <point x="717" y="456" type="line"/>
      <point x="702" y="352" type="line"/>
    </contour>
    <contour>
      <point x="813" y="174" type="line"/>
      <point x="783" y="0" type="line"/>
      <point x="847" y="54" type="line"/>
      <point x="503" y="54" type="line"/>
      <point x="503" y="0" type="line"/>
      <point x="881" y="0" type="line"/>
      <point x="888" y="174" type="line"/>
    </contour>
    <contour>
      <point x="793" y="481" type="line"/>
      <point x="868" y="481" type="line"/>
      <point x="861" y="655" type="line"/>
      <point x="503" y="655" type="line"/>
      <point x="503" y="600" type="line"/>
      <point x="827" y="600" type="line"/>
      <point x="763" y="655" type="line"/>
    </contour>
    <contour>
      <point x="490" y="65" type="line"/>
      <point x="347" y="50" type="line"/>
      <point x="347" y="0" type="line"/>
      <point x="503" y="0" type="line"/>
      <point x="503" y="65" type="line"/>
    </contour>
    <contour>
      <point x="410" y="590" type="line"/>
      <point x="503" y="590" type="line"/>
      <point x="503" y="655" type="line"/>
      <point x="267" y="655" type="line"/>
      <point x="267" y="605" type="line"/>
    </contour>
    <contour>
      <point x="388" y="655" type="line"/>
      <point x="52" y="0" type="line"/>
      <point x="119" y="0" type="line"/>
      <point x="453" y="655" type="line"/>
    </contour>
    <contour>
      <point x="503" y="238" type="line"/>
      <point x="503" y="293" type="line"/>
      <point x="236" y="293" type="line"/>
      <point x="208" y="238" type="line"/>
    </contour>
    <contour>
      <point x="733" y="367" type="line"/>
      <point x="503" y="367" type="line"/>
      <point x="503" y="312" type="line"/>
      <point x="733" y="312" type="line"/>
    </contour>
  </outline>
</glyph>
<glyph name="B" format="1">
  <advance width="636"/>
  <outline>
    <contour>
      <point x="115" y="310" type="line"/>
      <point x="115" y="205"/>
      <point x="115" y="101"/>
      <point x="112" y="0" type="curve"/>
      <point x="264" y="0" type="line"/>
      <point x="261" y="103"/>
      <point x="261" y="207"/>
      <point x="261" y="322" type="curve" smooth="yes"/>
      <point x="261" y="345" type="line" smooth="yes"/>
      <point x="261" y="450"/>
      <point x="261" y="554"/>
      <point x="264" y="655" type="curve"/>
      <point x="112" y="655" type="line"/>
      <point x="115" y="552"/>
      <point x="115" y="448"/>
      <point x="115" y="345" type="curve" smooth="yes"/>
    </contour>
    <contour>
      <point x="175" y="590" type="line"/>
      <point x="188" y="590" type="line"/>
      <point x="188" y="655" type="line"/>
      <point x="32" y="655" type="line"/>
      <point x="32" y="605" type="line"/>
    </contour>
    <contour>
      <point x="175" y="65" type="line"/>
      <point x="32" y="50" type="line"/>
      <point x="32" y="0" type="line"/>
      <point x="188" y="0" type="line"/>
      <point x="188" y="65" type="line"/>
    </contour>
    <contour>
      <point x="188" y="318" type="line"/>
      <point x="301" y="318" type="line" smooth="yes"/>
      <point x="422" y="318"/>
      <point x="466" y="279"/>
      <point x="466" y="188" type="curve" smooth="yes"/>
      <point x="466" y="105"/>
      <point x="433" y="55"/>
      <point x="293" y="55" type="curve" smooth="yes"/>
      <point x="188" y="55" type="line"/>
      <point x="188" y="0" type="line"/>
      <point x="298" y="0" type="line" smooth="yes"/>
      <point x="557" y="0"/>
      <point x="611" y="96"/>
      <point x="611" y="186" type="curve" smooth="yes"/>
      <point x="611" y="270"/>
      <point x="562" y="339"/>
      <point x="417" y="352" type="curve"/>
      <point x="417" y="340" type="line"/>
      <point x="534" y="355"/>
      <point x="574" y="418"/>
      <point x="574" y="491" type="curve" smooth="yes"/>
      <point x="574" y="590"/>
      <point x="504" y="655"/>
      <point x="346" y="655" type="curve" smooth="yes"/>
      <point x="188" y="655" type="line"/>
      <point x="188" y="600" type="line"/>
      <point x="312" y="600" type="line" smooth="yes"/>
      <point x="398" y="600"/>
      <point x="436" y="563"/>
      <point x="436" y="487" type="curve" smooth="yes"/>
      <point x="436" y="412"/>
      <point x="394" y="371"/>
      <point x="298" y="371" type="curve" smooth="yes"/>
      <point x="188" y="371" type="line"/>
    </contour>
  </outline>
</glyph>
<glyph name="C" format="1">
  <advance width="622"/>
  <outline>
    <contour>
      <point x="393" y="40" type="curve" smooth="yes"/>
      <point x="275" y="40"/>
      <point x="183" y="140"/>
      <point x="183" y="327" type="curve" smooth="yes"/>
      <point x="183" y="515"/>
      <point x="275" y="615"/>
      <point x="393" y="615" type="curve" smooth="yes"/>
      <point x="449" y="615"/>
      <point x="500" y="592"/>
      <point x="554" y="552" type="curve"/>
      <point x="473" y="626" type="line"/>
      <point x="498" y="471" type="line"/>
      <point x="577" y="471" type="line"/>
      <point x="573" y="623" type="line"/>
      <point x="512" y="658"/>
      <point x="456" y="670"/>
      <point x="392" y="670" type="curve" smooth="yes"/>
      <point x="184" y="670"/>
      <point x="30" y="554"/>
      <point x="30" y="327" type="curve" smooth="yes"/>
      <point x="30" y="100"/>
      <point x="177" y="-15"/>
      <point x="382" y="-15" type="curve" smooth="yes"/>
      <point x="457" y="-15"/>
      <point x="527" y="2"/>
      <point x="583" y="32" type="curve"/>
      <point x="587" y="184" type="line"/>
      <point x="507" y="184" type="line"/>
      <point x="483" y="29" type="line"/>
      <point x="564" y="103" type="line"/>
      <point x="516" y="63"/>
      <point x="451" y="40"/>
    </contour>
  </outline>
</glyph>
<glyph name="D" format="1">
  <advance width="692"/>
  <outline>
    <contour>
      <point x="115" y="320" type="line"/>
      <point x="115" y="205"/>
      <point x="115" y="101"/>
      <point x="112" y="0" type="curve"/>
      <point x="264" y="0" type="line"/>
      <point x="261" y="103"/>
      <point x="261" y="207"/>
      <point x="261" y="320" type="curve" smooth="yes"/>
      <point x="261" y="345" type="line" smooth="yes"/>
      <point x="261" y="450"/>
      <point x="261" y="554"/>
      <point x="264" y="655" type="curve"/>
      <point x="112" y="655" type="line"/>
      <point x="115" y="552"/>
      <point x="115" y="448"/>
      <point x="115" y="345" type="curve" smooth="yes"/>
    </contour>
    <contour>
      <point x="175" y="590" type="line"/>
      <point x="188" y="590" type="line"/>
      <point x="188" y="655" type="line"/>
      <point x="32" y="655" type="line"/>
      <point x="32" y="605" type="line"/>
    </contour>
    <contour>
      <point x="175" y="65" type="line"/>
      <point x="32" y="50" type="line"/>
      <point x="32" y="0" type="line"/>
      <point x="188" y="0" type="line"/>
      <point x="188" y="65" type="line"/>
    </contour>
    <contour>
      <point x="188" y="0" type="line"/>
      <point x="314" y="0" type="line" smooth="yes"/>
      <point x="515" y="0"/>
      <point x="662" y="115"/>
      <point x="662" y="332" type="curve" smooth="yes"/>
      <point x="662" y="540"/>
      <point x="530" y="655"/>
      <point x="334" y="655" type="curve" smooth="yes"/>
      <point x="188" y="655" type="line"/>
      <point x="188" y="600" type="line"/>
      <point x="298" y="600" type="line" smooth="yes"/>
      <point x="425" y="600"/>
      <point x="509" y="505"/>
      <point x="509" y="328" type="curve" smooth="yes"/>
      <point x="509" y="151"/>
      <point x="425" y="55"/>
      <point x="299" y="55" type="curve" smooth="yes"/>
      <point x="188" y="55" type="line"/>
    </contour>
  </outline>
</glyph>
<glyph name="Delta.math" format="1">
  <advance width="579"/>
  <outline>
    <contour>
      <point x="494" y="0" type="line"/>
      <point x="494" y="56" type="line"/>
      <point x="38" y="56" type="line"/>
      <point x="38" y="0" type="line"/>
    </contour>
    <contour>
      <point x="264" y="520" type="line"/>
      <point x="231" y="520" type="line"/>
      <point x="436" y="0" type="line"/>
      <point x="559" y="0" type="line"/>
      <point x="559" y="45" type="line"/>
      <point x="317" y="655" type="line"/>
      <point x="260" y="655" type="line"/>
      <point x="20" y="45" type="line"/>
      <point x="20" y="0" type="line"/>
      <point x="65" y="0" type="line"/>
    </contour>
  </outline>
</glyph>
<glyph name="E" format="1">
  <advance width="598"/>
  <outline>
    <contour>
      <point x="175" y="590" type="line"/>
      <point x="188" y="590" type="line"/>
      <point x="188" y="655" type="line"/>
      <point x="32" y="655" type="line"/>
      <point x="32" y="605" type="line"/>
    </contour>
    <contour>
      <point x="175" y="65" type="line"/>
      <point x="32" y="50" type="line"/>
      <point x="32" y="0" type="line"/>
      <point x="188" y="0" type="line"/>
      <point x="188" y="65" type="line"/>
    </contour>
    <contour>
      <point x="115" y="310" type="line"/>
      <point x="115" y="205"/>
      <point x="115" y="101"/>
      <point x="112" y="0" type="curve"/>
      <point x="264" y="0" type="line"/>
      <point x="261" y="103"/>
      <point x="261" y="207"/>
      <point x="261" y="320" type="curve" smooth="yes"/>
      <point x="261" y="345" type="line" smooth="yes"/>
      <point x="261" y="450"/>
      <point x="261" y="554"/>
      <point x="264" y="655" type="curve"/>
      <point x="112" y="655" type="line"/>
      <point x="115" y="552"/>
      <point x="115" y="448"/>
      <point x="115" y="345" type="curve" smooth="yes"/>
    </contour>
    <contour>
      <point x="387" y="333" type="line"/>
      <point x="402" y="224" type="line"/>
      <point x="456" y="224" type="line"/>
      <point x="456" y="456" type="line"/>
      <point x="402" y="456" type="line"/>
      <point x="387" y="352" type="line"/>
    </contour>
    <contour>
      <point x="498" y="174" type="line"/>
      <point x="468" y="0" type="line"/>
      <point x="532" y="54" type="line"/>
      <point x="188" y="54" type="line"/>
      <point x="188" y="0" type="line"/>
      <point x="566" y="0" type="line"/>
      <point x="573" y="174" type="line"/>
    </contour>
    <contour>
      <point x="478" y="481" type="line"/>
      <point x="553" y="481" type="line"/>
      <point x="546" y="655" type="line"/>
      <point x="188" y="655" type="line"/>
      <point x="188" y="600" type="line"/>
      <point x="512" y="600" type="line"/>
      <point x="448" y="655" type="line"/>
    </contour>
    <contour>
      <point x="418" y="367" type="line"/>
      <point x="188" y="367" type="line"/>
      <point x="188" y="312" type="line"/>
      <point x="418" y="312" type="line"/>
    </contour>
  </outline>
</glyph>
<glyph name="E.sc" format="1">
	<advance width="564"/>
	<outline>
		<contour>
			<point x="176" y="477" type="line"/>
			<point x="190" y="477" type="line"/>
			<point x="190" y="540" type="line"/>
			<point x="44" y="540" type="line"/>
			<point x="44" y="489" type="line"/>
		</contour>
		<contour>
			<point x="176" y="63" type="line"/>
			<point x="44" y="51" type="line"/>
			<point x="44" y="0" type="line"/>
			<point x="190" y="0" type="line"/>
			<point x="190" y="63" type="line"/>
		</contour>
		<contour>
			<point x="113" y="255" type="line" smooth="yes"/>
			<point x="113" y="168"/>
			<point x="113" y="83"/>
			<point x="111" y="0" type="curve"/>
			<point x="270" y="0" type="line"/>
			<point x="267" y="85"/>
			<point x="267" y="170"/>
			<point x="267" y="257" type="curve" smooth="yes"/>
			<point x="267" y="286" type="line" smooth="yes"/>
			<point x="267" y="372"/>
			<point x="267" y="457"/>
			<point x="270" y="540" type="curve"/>
			<point x="111" y="540" type="line"/>
			<point x="113" y="455"/>
			<point x="113" y="370"/>
			<point x="113" y="285" type="curve" smooth="yes"/>
		</contour>
		<contour>
			<point x="361" y="275" type="line"/>
			<point x="375" y="191" type="line"/>
			<point x="431" y="191" type="line"/>
			<point x="431" y="368" type="line"/>
			<point x="375" y="368" type="line"/>
			<point x="361" y="289" type="line"/>
		</contour>
		<contour>
			<point x="451" y="140" type="line"/>
			<point x="430" y="0" type="line"/>
			<point x="495" y="52" type="line"/>
			<point x="190" y="52" type="line"/>
			<point x="190" y="0" type="line"/>
			<point x="526" y="0" type="line"/>
			<point x="535" y="140" type="line"/>
		</contour>
		<contour>
			<point x="433" y="398" type="line"/>
			<point x="517" y="398" type="line"/>
			<point x="507" y="540" type="line"/>
			<point x="190" y="540" type="line"/>
			<point x="190" y="487" type="line"/>
			<point x="477" y="487" type="line"/>
			<point x="412" y="540" type="line"/>
		</contour>
		<contour>
			<point x="391" y="308" type="line"/>
			<point x="190" y="308" type="line"/>
			<point x="190" y="252" type="line"/>
			<point x="391" y="252" type="line"/>
		</contour>
		<contour>
			<point name="aboveUC" x="300" y="563" type="move"/>
		</contour>
		<contour>
			<point name="ogonek" x="433" y="0" type="move"/>
		</contour>
		<contour>
			<point name="belowLC" x="316" y="-18" type="move"/>
		</contour>
	</outline>
</glyph>
<glyph name="Eth" format="1">
  <advance width="692"/>
  <outline>
    <contour>
      <point x="392" y="311" type="line"/>
      <point x="392" y="366" type="line"/>
      <point x="32" y="366" type="line"/>
      <point x="32" y="311" type="line"/>
    </contour>
    <component base="D"/>
  </outline>
</glyph>
<glyph name="Euro" format="1">
  <advance width="528"/>
  <outline>
    <contour>
      <point x="332" y="-15" type="curve" smooth="yes"/>
      <point x="454" y="-15"/>
      <point x="505" y="33"/>
      <point x="517" y="126" type="curve"/>
      <point x="512" y="160"/>
      <point x="487" y="170"/>
      <point x="463" y="170" type="curve" smooth="yes"/>
      <point x="435" y="170"/>
      <point x="403" y="157"/>
      <point x="396" y="92" type="curve" smooth="yes"/>
      <point x="388" y="20" type="line"/>
      <point x="467" y="60" type="line"/>
      <point x="426" y="41"/>
      <point x="390" y="35"/>
      <point x="367" y="35" type="curve" smooth="yes"/>
      <point x="257" y="35"/>
      <point x="196" y="140"/>
      <point x="196" y="318" type="curve" smooth="yes"/>
      <point x="196" y="505"/>
      <point x="262" y="603"/>
      <point x="362" y="603" type="curve" smooth="yes"/>
      <point x="387" y="603"/>
      <point x="423" y="597"/>
      <point x="464" y="578" type="curve"/>
      <point x="386" y="618" type="line"/>
      <point x="394" y="546" type="line" smooth="yes"/>
      <point x="400" y="481"/>
      <point x="433" y="468"/>
      <point x="460" y="468" type="curve" smooth="yes"/>
      <point x="485" y="468"/>
      <point x="506" y="480"/>
      <point x="515" y="512" type="curve"/>
      <point x="512" y="604"/>
      <point x="452" y="653"/>
      <point x="349" y="653" type="curve" smooth="yes"/>
      <point x="188" y="653"/>
      <point x="67" y="541"/>
      <point x="67" y="318" type="curve" smooth="yes"/>
      <point x="67" y="97"/>
      <point x="174" y="-15"/>
    </contour>
    <contour>
      <point x="7" y="350" type="line"/>
      <point x="409" y="350" type="line"/>
      <point x="409" y="405" type="line"/>
      <point x="7" y="405" type="line"/>
    </contour>
    <contour>
      <point x="7" y="228" type="line"/>
      <point x="409" y="228" type="line"/>
      <point x="409" y="283" type="line"/>
      <point x="7" y="283" type="line"/>
    </contour>
  </outline>
</glyph>
<glyph name="F" format="1">
  <advance width="583"/>
  <outline>
    <contour>
      <point x="175" y="65" type="line"/>
      <point x="32" y="50" type="line"/>
      <point x="32" y="0" type="line"/>
      <point x="354" y="0" type="line"/>
      <point x="354" y="50" type="line"/>
      <point x="219" y="65" type="line"/>
    </contour>
    <contour>
      <point x="115" y="310" type="line"/>
      <point x="115" y="205"/>
      <point x="115" y="101"/>
      <point x="112" y="0" type="curve"/>
      <point x="264" y="0" type="line"/>
      <point x="261" y="103"/>
      <point x="261" y="207"/>
      <point x="261" y="320" type="curve" smooth="yes"/>
      <point x="261" y="345" type="line" smooth="yes"/>
      <point x="261" y="450"/>
      <point x="261" y="554"/>
      <point x="264" y="655" type="curve"/>
      <point x="112" y="655" type="line"/>
      <point x="115" y="552"/>
      <point x="115" y="448"/>
      <point x="115" y="345" type="curve" smooth="yes"/>
    </contour>
    <contour>
      <point x="175" y="590" type="line"/>
      <point x="188" y="590" type="line"/>
      <point x="188" y="655" type="line"/>
      <point x="32" y="655" type="line"/>
      <point x="32" y="605" type="line"/>
    </contour>
    <contour>
      <point x="478" y="481" type="line"/>
      <point x="553" y="481" type="line"/>
      <point x="546" y="655" type="line"/>
      <point x="188" y="655" type="line"/>
      <point x="188" y="600" type="line"/>
      <point x="512" y="600" type="line"/>
      <point x="448" y="655" type="line"/>
    </contour>
    <contour>
      <point x="392" y="323" type="line"/>
      <point x="407" y="214" type="line"/>
      <point x="461" y="214" type="line"/>
      <point x="461" y="456" type="line"/>
      <point x="407" y="456" type="line"/>
      <point x="392" y="352" type="line"/>
    </contour>
    <contour>
      <point x="423" y="367" type="line"/>
      <point x="188" y="367" type="line"/>
      <point x="188" y="312" type="line"/>
      <point x="423" y="312" type="line"/>
    </contour>
  </outline>
</glyph>
<glyph name="G" format="1">
  <advance width="674"/>
  <outline>
    <contour>
      <point x="499" y="246" type="line"/>
      <point x="535" y="246" type="line"/>
      <point x="650" y="261" type="line"/>
      <point x="650" y="311" type="line"/>
      <point x="374" y="311" type="line"/>
      <point x="374" y="261" type="line"/>
    </contour>
    <contour>
      <point x="594" y="86" type="line"/>
      <point x="594" y="162"/>
      <point x="595" y="237"/>
      <point x="597" y="311" type="curve"/>
      <point x="447" y="311" type="line"/>
      <point x="449" y="236"/>
      <point x="450" y="160"/>
      <point x="450" y="86" type="curve" smooth="yes"/>
      <point x="450" y="7" type="line"/>
      <point x="522" y="77" type="line"/>
      <point x="484" y="54"/>
      <point x="442" y="40"/>
      <point x="397" y="40" type="curve" smooth="yes"/>
      <point x="275" y="40"/>
      <point x="183" y="145"/>
      <point x="183" y="327" type="curve" smooth="yes"/>
      <point x="183" y="510"/>
      <point x="265" y="615"/>
      <point x="394" y="615" type="curve" smooth="yes"/>
      <point x="450" y="615"/>
      <point x="498" y="595"/>
      <point x="565" y="544" type="curve"/>
      <point x="484" y="626" type="line"/>
      <point x="508" y="481" type="line"/>
      <point x="588" y="481" type="line"/>
      <point x="584" y="623" type="line"/>
      <point x="514" y="658"/>
      <point x="451" y="670"/>
      <point x="387" y="670" type="curve" smooth="yes"/>
      <point x="168" y="670"/>
      <point x="30" y="524"/>
      <point x="30" y="327" type="curve" smooth="yes"/>
      <point x="30" y="131"/>
      <point x="167" y="-15"/>
      <point x="377" y="-15" type="curve" smooth="yes"/>
      <point x="456" y="-15"/>
      <point x="524" y="5"/>
      <point x="594" y="43" type="curve"/>
    </contour>
  </outline>
</glyph>
<glyph name="H" format="1">
  <advance width="795"/>
  <outline>
    <contour>
      <point x="594" y="590" type="line"/>
      <point x="620" y="590" type="line"/>
      <point x="763" y="605" type="line"/>
      <point x="763" y="655" type="line"/>
      <point x="451" y="655" type="line"/>
      <point x="451" y="605" type="line"/>
    </contour>
    <contour>
      <point x="594" y="65" type="line"/>
      <point x="451" y="50" type="line"/>
      <point x="451" y="0" type="line"/>
      <point x="763" y="0" type="line"/>
      <point x="763" y="50" type="line"/>
      <point x="620" y="65" type="line"/>
    </contour>
    <contour>
      <point x="534" y="320" type="line"/>
      <point x="534" y="205"/>
      <point x="534" y="101"/>
      <point x="531" y="0" type="curve"/>
      <point x="683" y="0" type="line"/>
      <point x="680" y="103"/>
      <point x="680" y="207"/>
      <point x="680" y="310" type="curve" smooth="yes"/>
      <point x="680" y="345" type="line" smooth="yes"/>
      <point x="680" y="450"/>
      <point x="680" y="554"/>
      <point x="683" y="655" type="curve"/>
      <point x="531" y="655" type="line"/>
      <point x="534" y="552"/>
      <point x="534" y="448"/>
      <point x="534" y="345" type="curve" smooth="yes"/>
    </contour>
    <contour>
      <point x="115" y="310" type="line"/>
      <point x="115" y="205"/>
      <point x="115" y="101"/>
      <point x="112" y="0" type="curve"/>
      <point x="264" y="0" type="line"/>
      <point x="261" y="103"/>
      <point x="261" y="207"/>
      <point x="261" y="320" type="curve" smooth="yes"/>
      <point x="261" y="345" type="line" smooth="yes"/>
      <point x="261" y="450"/>
      <point x="261" y="554"/>
      <point x="264" y="655" type="curve"/>
      <point x="112" y="655" type="line"/>
      <point x="115" y="552"/>
      <point x="115" y="448"/>
      <point x="115" y="345" type="curve" smooth="yes"/>
    </contour>
    <contour>
      <point x="175" y="590" type="line"/>
      <point x="201" y="590" type="line"/>
      <point x="344" y="605" type="line"/>
      <point x="344" y="655" type="line"/>
      <point x="32" y="655" type="line"/>
      <point x="32" y="605" type="line"/>
    </contour>
    <contour>
      <point x="175" y="65" type="line"/>
      <point x="32" y="50" type="line"/>
      <point x="32" y="0" type="line"/>
      <point x="344" y="0" type="line"/>
      <point x="344" y="50" type="line"/>
      <point x="201" y="65" type="line"/>
    </contour>
    <contour>
      <point x="607" y="311" type="line"/>
      <point x="607" y="366" type="line"/>
      <point x="188" y="366" type="line"/>
      <point x="188" y="311" type="line"/>
    </contour>
  </outline>
</glyph>
<glyph name="I" format="1">
  <advance width="376"/>
  <outline>
    <contour>
      <point x="175" y="65" type="line"/>
      <point x="32" y="50" type="line"/>
      <point x="32" y="0" type="line"/>
      <point x="344" y="0" type="line"/>
      <point x="344" y="50" type="line"/>
      <point x="201" y="65" type="line"/>
    </contour>
    <contour>
      <point x="175" y="590" type="line"/>
      <point x="201" y="590" type="line"/>
      <point x="344" y="605" type="line"/>
      <point x="344" y="655" type="line"/>
      <point x="32" y="655" type="line"/>
      <point x="32" y="605" type="line"/>
    </contour>
    <contour>
      <point x="115" y="310" type="line"/>
      <point x="115" y="205"/>
      <point x="115" y="101"/>
      <point x="112" y="0" type="curve"/>
      <point x="264" y="0" type="line"/>
      <point x="261" y="103"/>
      <point x="261" y="207"/>
      <point x="261" y="310" type="curve" smooth="yes"/>
      <point x="261" y="345" type="line" smooth="yes"/>
      <point x="261" y="450"/>
      <point x="261" y="554"/>
      <point x="264" y="655" type="curve"/>
      <point x="112" y="655" type="line"/>
      <point x="115" y="552"/>
      <point x="115" y="448"/>
      <point x="115" y="345" type="curve" smooth="yes"/>
    </contour>
  </outline>
</glyph>
<glyph name="J" format="1">
  <advance width="390"/>
  <outline>
    <contour>
      <point x="179" y="590" type="line"/>
      <point x="215" y="590" type="line"/>
      <point x="358" y="605" type="line"/>
      <point x="358" y="655" type="line"/>
      <point x="36" y="655" type="line"/>
      <point x="36" y="605" type="line"/>
    </contour>
    <contour>
      <point x="131" y="4" type="curve" smooth="yes"/>
      <point x="131" y="-81"/>
      <point x="115" y="-116"/>
      <point x="83" y="-156" type="curve"/>
      <point x="127" y="-151" type="line"/>
      <point x="80" y="-95" type="line" smooth="yes"/>
      <point x="56" y="-67"/>
      <point x="36" y="-57"/>
      <point x="10" y="-57" type="curve" smooth="yes"/>
      <point x="-27" y="-57"/>
      <point x="-60" y="-78"/>
      <point x="-60" y="-119" type="curve"/>
      <point x="-40" y="-167"/>
      <point x="17" y="-180"/>
      <point x="60" y="-180" type="curve" smooth="yes"/>
      <point x="146" y="-180"/>
      <point x="221" y="-130"/>
      <point x="254" y="-25" type="curve" smooth="yes"/>
      <point x="271" y="31"/>
      <point x="275" y="97"/>
      <point x="275" y="205" type="curve" smooth="yes"/>
      <point x="275" y="351" type="line" smooth="yes"/>
      <point x="275" y="454"/>
      <point x="275" y="556"/>
      <point x="278" y="655" type="curve"/>
      <point x="125" y="655" type="line"/>
      <point x="129" y="266"/>
      <point x="131" y="80"/>
    </contour>
  </outline>
</glyph>
<glyph name="K" format="1">
  <advance width="701"/>
  <outline>
    <contour>
      <point x="115" y="310" type="line"/>
      <point x="115" y="205"/>
      <point x="115" y="101"/>
      <point x="112" y="0" type="curve"/>
      <point x="264" y="0" type="line"/>
      <point x="261" y="103"/>
      <point x="261" y="207"/>
      <point x="261" y="310" type="curve" smooth="yes"/>
      <point x="261" y="345" type="line" smooth="yes"/>
      <point x="261" y="450"/>
      <point x="261" y="554"/>
      <point x="264" y="655" type="curve"/>
      <point x="112" y="655" type="line"/>
      <point x="115" y="552"/>
      <point x="115" y="448"/>
      <point x="115" y="345" type="curve" smooth="yes"/>
    </contour>
    <contour>
      <point x="175" y="65" type="line"/>
      <point x="32" y="50" type="line"/>
      <point x="32" y="0" type="line"/>
      <point x="344" y="0" type="line"/>
      <point x="344" y="50" type="line"/>
      <point x="201" y="65" type="line"/>
    </contour>
    <contour>
      <point x="175" y="590" type="line"/>
      <point x="201" y="590" type="line"/>
      <point x="344" y="605" type="line"/>
      <point x="344" y="655" type="line"/>
      <point x="32" y="655" type="line"/>
      <point x="32" y="605" type="line"/>
    </contour>
    <contour>
      <point x="510" y="590" type="line"/>
      <point x="536" y="590" type="line"/>
      <point x="655" y="605" type="line"/>
      <point x="655" y="655" type="line"/>
      <point x="429" y="655" type="line"/>
      <point x="429" y="605" type="line"/>
    </contour>
    <contour>
      <point x="315" y="352" type="line"/>
      <point x="493" y="0" type="line"/>
      <point x="654" y="0" type="line"/>
      <point x="401" y="460" type="line"/>
    </contour>
    <contour>
      <point x="188" y="152" type="line"/>
      <point x="602" y="655" type="line"/>
      <point x="532" y="655" type="line"/>
      <point x="188" y="229" type="line"/>
    </contour>
    <contour>
      <point x="405" y="0" type="line"/>
      <point x="701" y="0" type="line"/>
      <point x="701" y="50" type="line"/>
      <point x="563" y="65" type="line"/>
      <point x="545" y="65" type="line"/>
      <point x="405" y="50" type="line"/>
    </contour>
  </outline>
</glyph>
<glyph name="L" format="1">
  <advance width="580"/>
  <outline>
    <contour>
      <point x="175" y="65" type="line"/>
      <point x="32" y="50" type="line"/>
      <point x="32" y="0" type="line"/>
      <point x="188" y="0" type="line"/>
      <point x="188" y="65" type="line"/>
    </contour>
    <contour>
      <point x="175" y="590" type="line"/>
      <point x="211" y="590" type="line"/>
      <point x="349" y="605" type="line"/>
      <point x="349" y="655" type="line"/>
      <point x="32" y="655" type="line"/>
      <point x="32" y="605" type="line"/>
    </contour>
    <contour>
      <point x="115" y="345" type="curve" smooth="yes"/>
      <point x="115" y="310" type="line" smooth="yes"/>
      <point x="115" y="205"/>
      <point x="115" y="101"/>
      <point x="112" y="0" type="curve"/>
      <point x="264" y="0" type="line"/>
      <point x="261" y="103"/>
      <point x="261" y="207"/>
      <point x="261" y="310" type="curve" smooth="yes"/>
      <point x="261" y="345" type="line" smooth="yes"/>
      <point x="261" y="450"/>
      <point x="261" y="554"/>
      <point x="264" y="655" type="curve"/>
      <point x="112" y="655" type="line"/>
      <point x="115" y="552"/>
      <point x="115" y="448"/>
    </contour>
    <contour>
      <point x="481" y="194" type="line"/>
      <point x="442" y="0" type="line"/>
      <point x="516" y="55" type="line"/>
      <point x="188" y="55" type="line"/>
      <point x="188" y="0" type="line"/>
      <point x="550" y="0" type="line"/>
      <point x="560" y="194" type="line"/>
    </contour>
  </outline>
</glyph>
<glyph name="Lslash" format="1">
  <advance width="580"/>
  <outline>
    <contour>
      <point x="396" y="460" type="line"/>
      <point x="188" y="341" type="line"/>
      <point x="188" y="264" type="line"/>
      <point x="396" y="383" type="line"/>
    </contour>
    <contour>
      <point x="188" y="354" type="line"/>
      <point x="32" y="264" type="line"/>
      <point x="32" y="188" type="line"/>
      <point x="188" y="277" type="line"/>
    </contour>
    <component base="L" yOffset="-1"/>
  </outline>
</glyph>
<glyph name="M" format="1">
  <advance width="915"/>
  <outline>
    <contour>
      <point x="26" y="655" type="line"/>
      <point x="26" y="605" type="line"/>
      <point x="160" y="590" type="line"/>
      <point x="91" y="642" type="line"/>
      <point x="390" y="0" type="line"/>
      <point x="430" y="0" type="line"/>
      <point x="732" y="655" type="line"/>
      <point x="673" y="655" type="line"/>
      <point x="438" y="152" type="line"/>
      <point x="469" y="152" type="line"/>
      <point x="227" y="655" type="line"/>
    </contour>
    <contour>
      <point x="654" y="310" type="line"/>
      <point x="654" y="205"/>
      <point x="654" y="101"/>
      <point x="651" y="0" type="curve"/>
      <point x="803" y="0" type="line"/>
      <point x="800" y="103"/>
      <point x="800" y="207"/>
      <point x="800" y="310" type="curve" smooth="yes"/>
      <point x="800" y="345" type="line" smooth="yes"/>
      <point x="800" y="450"/>
      <point x="800" y="554"/>
      <point x="803" y="655" type="curve"/>
      <point x="697" y="655" type="line"/>
      <point x="654" y="566" type="line"/>
    </contour>
    <contour>
      <point x="120" y="65" type="line"/>
      <point x="15" y="50" type="line"/>
      <point x="15" y="0" type="line"/>
      <point x="258" y="0" type="line"/>
      <point x="258" y="50" type="line"/>
      <point x="152" y="65" type="line"/>
    </contour>
    <contour>
      <point x="714" y="65" type="line"/>
      <point x="571" y="50" type="line"/>
      <point x="571" y="0" type="line"/>
      <point x="883" y="0" type="line"/>
      <point x="883" y="50" type="line"/>
      <point x="740" y="65" type="line"/>
    </contour>
    <contour>
      <point x="714" y="590" type="line"/>
      <point x="740" y="590" type="line"/>
      <point x="883" y="605" type="line"/>
      <point x="883" y="655" type="line"/>
      <point x="714" y="655" type="line"/>
    </contour>
    <contour>
      <point x="109" y="655" type="line"/>
      <point x="109" y="0" type="line"/>
      <point x="164" y="0" type="line"/>
      <point x="164" y="655" type="line"/>
    </contour>
  </outline>
</glyph>
<glyph name="N" format="1">
  <advance width="761"/>
  <outline>
    <contour>
      <point x="642" y="50" type="line"/>
      <point x="642" y="655" type="line"/>
      <point x="584" y="655" type="line"/>
      <point x="584" y="50" type="line"/>
    </contour>
    <contour>
      <point x="628" y="590" type="line"/>
      <point x="735" y="605" type="line"/>
      <point x="735" y="655" type="line"/>
      <point x="469" y="655" type="line"/>
      <point x="469" y="605" type="line"/>
      <point x="602" y="590" type="line"/>
    </contour>
    <contour>
      <point x="137" y="65" type="line"/>
      <point x="26" y="50" type="line"/>
      <point x="26" y="0" type="line"/>
      <point x="292" y="0" type="line"/>
      <point x="292" y="50" type="line"/>
      <point x="163" y="65" type="line"/>
    </contour>
    <contour>
      <point x="119" y="655" type="line"/>
      <point x="119" y="0" type="line"/>
      <point x="178" y="0" type="line"/>
      <point x="178" y="655" type="line"/>
    </contour>
    <contour>
      <point x="36" y="655" type="line"/>
      <point x="36" y="604" type="line"/>
      <point x="148" y="593" type="line"/>
      <point x="94" y="610" type="line"/>
      <point x="592" y="-10" type="line"/>
      <point x="642" y="-10" type="line"/>
      <point x="642" y="139" type="line"/>
      <point x="233" y="655" type="line"/>
    </contour>
  </outline>
</glyph>
<glyph name="O" format="1">
  <advance width="708"/>
  <outline>
    <contour>
      <point x="185" y="327" type="curve" smooth="yes"/>
      <point x="185" y="472"/>
      <point x="232" y="615"/>
      <point x="354" y="615" type="curve" smooth="yes"/>
      <point x="476" y="615"/>
      <point x="523" y="472"/>
      <point x="523" y="327" type="curve" smooth="yes"/>
      <point x="523" y="184"/>
      <point x="476" y="40"/>
      <point x="354" y="40" type="curve" smooth="yes"/>
      <point x="232" y="40"/>
      <point x="185" y="184"/>
    </contour>
    <contour>
      <point x="354" y="670" type="curve" smooth="yes"/>
      <point x="197" y="670"/>
      <point x="32" y="556"/>
      <point x="32" y="327" type="curve" smooth="yes"/>
      <point x="32" y="99"/>
      <point x="196" y="-15"/>
      <point x="354" y="-15" type="curve" smooth="yes"/>
      <point x="512" y="-15"/>
      <point x="676" y="99"/>
      <point x="676" y="327" type="curve" smooth="yes"/>
      <point x="676" y="556"/>
      <point x="511" y="670"/>
    </contour>
  </outline>
</glyph>
<glyph name="OE" format="1">
  <advance width="933"/>
  <outline>
    <contour>
      <point x="183" y="327" type="curve" smooth="yes"/>
      <point x="183" y="470"/>
      <point x="259" y="614"/>
      <point x="397" y="614" type="curve" smooth="yes"/>
      <point x="444" y="614"/>
      <point x="482" y="609"/>
      <point x="523" y="590" type="curve"/>
      <point x="523" y="655" type="line"/>
      <point x="481" y="665"/>
      <point x="436" y="669"/>
      <point x="382" y="669" type="curve" smooth="yes"/>
      <point x="219" y="669"/>
      <point x="30" y="560"/>
      <point x="30" y="327" type="curve" smooth="yes"/>
      <point x="30" y="94"/>
      <point x="219" y="-15"/>
      <point x="382" y="-15" type="curve" smooth="yes"/>
      <point x="436" y="-15"/>
      <point x="481" y="-10"/>
      <point x="523" y="0" type="curve"/>
      <point x="523" y="65" type="line"/>
      <point x="482" y="49"/>
      <point x="443" y="40"/>
      <point x="398" y="40" type="curve" smooth="yes"/>
      <point x="259" y="40"/>
      <point x="183" y="184"/>
    </contour>
    <contour>
      <point x="450" y="310" type="line"/>
      <point x="450" y="205"/>
      <point x="450" y="101"/>
      <point x="447" y="0" type="curve"/>
      <point x="599" y="0" type="line"/>
      <point x="596" y="103"/>
      <point x="596" y="207"/>
      <point x="596" y="320" type="curve" smooth="yes"/>
      <point x="596" y="345" type="line" smooth="yes"/>
      <point x="596" y="450"/>
      <point x="596" y="554"/>
      <point x="599" y="655" type="curve"/>
      <point x="447" y="655" type="line"/>
      <point x="450" y="552"/>
      <point x="450" y="448"/>
      <point x="450" y="345" type="curve" smooth="yes"/>
    </contour>
    <contour>
      <point x="722" y="333" type="line"/>
      <point x="737" y="224" type="line"/>
      <point x="791" y="224" type="line"/>
      <point x="791" y="456" type="line"/>
      <point x="737" y="456" type="line"/>
      <point x="722" y="352" type="line"/>
    </contour>
    <contour>
      <point x="833" y="174" type="line"/>
      <point x="803" y="0" type="line"/>
      <point x="867" y="54" type="line"/>
      <point x="523" y="54" type="line"/>
      <point x="523" y="0" type="line"/>
      <point x="901" y="0" type="line"/>
      <point x="908" y="174" type="line"/>
    </contour>
    <contour>
      <point x="813" y="481" type="line"/>
      <point x="888" y="481" type="line"/>
      <point x="881" y="655" type="line"/>
      <point x="523" y="655" type="line"/>
      <point x="523" y="600" type="line"/>
      <point x="847" y="600" type="line"/>
      <point x="783" y="655" type="line"/>
    </contour>
    <contour>
      <point x="753" y="367" type="line"/>
      <point x="523" y="367" type="line"/>
      <point x="523" y="312" type="line"/>
      <point x="753" y="312" type="line"/>
    </contour>
  </outline>
</glyph>
<glyph name="Omega.math" format="1">
  <advance width="818"/>
  <outline>
    <contour>
      <point x="89" y="229" type="line"/>
      <point x="10" y="229" type="line"/>
      <point x="30" y="0" type="line"/>
      <point x="367" y="0" type="line"/>
      <point x="367" y="55" type="line"/>
      <point x="301" y="110" type="line"/>
      <point x="64" y="110" type="line"/>
      <point x="138" y="0" type="line"/>
    </contour>
    <contour>
      <point x="729" y="229" type="line"/>
      <point x="680" y="0" type="line"/>
      <point x="754" y="110" type="line"/>
      <point x="507" y="110" type="line"/>
      <point x="451" y="55" type="line"/>
      <point x="451" y="0" type="line"/>
      <point x="788" y="0" type="line"/>
      <point x="808" y="229" type="line"/>
    </contour>
    <contour>
      <point x="409" y="615" type="curve" smooth="yes"/>
      <point x="529" y="615"/>
      <point x="578" y="525"/>
      <point x="578" y="417" type="curve" smooth="yes"/>
      <point x="578" y="299"/>
      <point x="522" y="155"/>
      <point x="451" y="94" type="curve"/>
      <point x="451" y="0" type="line"/>
      <point x="567" y="0" type="line"/>
      <point x="567" y="115" type="line"/>
      <point x="647" y="164"/>
      <point x="721" y="282"/>
      <point x="721" y="407" type="curve" smooth="yes"/>
      <point x="721" y="562"/>
      <point x="600" y="670"/>
      <point x="409" y="670" type="curve" smooth="yes"/>
      <point x="218" y="670"/>
      <point x="97" y="561"/>
      <point x="97" y="407" type="curve" smooth="yes"/>
      <point x="97" y="276"/>
      <point x="171" y="163"/>
      <point x="251" y="115" type="curve"/>
      <point x="251" y="0" type="line"/>
      <point x="367" y="0" type="line"/>
      <point x="367" y="94" type="line"/>
      <point x="296" y="155"/>
      <point x="240" y="299"/>
      <point x="240" y="417" type="curve" smooth="yes"/>
      <point x="240" y="525"/>
      <point x="289" y="615"/>
    </contour>
  </outline>
</glyph>
<glyph name="Oslash" format="1">
  <advance width="708"/>
  <outline>
    <contour>
      <point x="645" y="620" type="line"/>
      <point x="587" y="670" type="line"/>
      <point x="36" y="30" type="line"/>
      <point x="94" y="-20" type="line"/>
    </contour>
    <component base="O"/>
  </outline>
</glyph>
<glyph name="P" format="1">
  <advance width="604"/>
  <outline>
    <contour>
      <point x="175" y="590" type="line"/>
      <point x="188" y="590" type="line"/>
      <point x="188" y="655" type="line"/>
      <point x="32" y="655" type="line"/>
      <point x="32" y="605" type="line"/>
    </contour>
    <contour>
      <point x="175" y="65" type="line"/>
      <point x="32" y="50" type="line"/>
      <point x="32" y="0" type="line"/>
      <point x="354" y="0" type="line"/>
      <point x="354" y="50" type="line"/>
      <point x="219" y="65" type="line"/>
    </contour>
    <contour>
      <point x="115" y="310" type="line"/>
      <point x="115" y="205"/>
      <point x="115" y="101"/>
      <point x="112" y="0" type="curve"/>
      <point x="264" y="0" type="line"/>
      <point x="261" y="101"/>
      <point x="261" y="209"/>
      <point x="261" y="304" type="curve" smooth="yes"/>
      <point x="261" y="345" type="line" smooth="yes"/>
      <point x="261" y="450"/>
      <point x="261" y="554"/>
      <point x="264" y="655" type="curve"/>
      <point x="112" y="655" type="line"/>
      <point x="115" y="552"/>
      <point x="115" y="448"/>
      <point x="115" y="345" type="curve" smooth="yes"/>
    </contour>
    <contour>
      <point x="584" y="460" type="curve" smooth="yes"/>
      <point x="584" y="578"/>
      <point x="501" y="655"/>
      <point x="302" y="655" type="curve" smooth="yes"/>
      <point x="188" y="655" type="line"/>
      <point x="188" y="600" type="line"/>
      <point x="294" y="600" type="line" smooth="yes"/>
      <point x="398" y="600"/>
      <point x="446" y="548"/>
      <point x="446" y="457" type="curve" smooth="yes"/>
      <point x="446" y="369"/>
      <point x="398" y="309"/>
      <point x="292" y="309" type="curve" smooth="yes"/>
      <point x="188" y="309" type="line"/>
      <point x="188" y="254" type="line"/>
      <point x="276" y="254" type="line" smooth="yes"/>
      <point x="521" y="254"/>
      <point x="584" y="356"/>
    </contour>
  </outline>
</glyph>
<glyph name="Q" format="1">
  <advance width="708"/>
  <outline>
    <contour>
      <point x="490" y="-207" type="curve" smooth="yes"/>
      <point x="535" y="-207"/>
      <point x="584" y="-197"/>
      <point x="618" y="-175" type="curve"/>
      <point x="603" y="-135" type="line"/>
      <point x="577" y="-144"/>
      <point x="552" y="-147"/>
      <point x="531" y="-147" type="curve" smooth="yes"/>
      <point x="458" y="-147"/>
      <point x="404" y="-94"/>
      <point x="412" y="25" type="curve"/>
      <point x="273" y="36" type="line"/>
      <point x="273" y="7" type="line" smooth="yes"/>
      <point x="273" y="-126"/>
      <point x="368" y="-207"/>
    </contour>
    <component base="O" xOffset="-1"/>
  </outline>
</glyph>
<glyph name="R" format="1">
  <advance width="671"/>
  <outline>
    <contour>
      <point x="175" y="65" type="line"/>
      <point x="32" y="50" type="line"/>
      <point x="32" y="0" type="line"/>
      <point x="344" y="0" type="line"/>
      <point x="344" y="50" type="line"/>
      <point x="201" y="65" type="line"/>
    </contour>
    <contour>
      <point x="115" y="310" type="line"/>
      <point x="115" y="205"/>
      <point x="115" y="101"/>
      <point x="112" y="0" type="curve"/>
      <point x="262" y="0" type="line"/>
      <point x="259" y="103"/>
      <point x="259" y="207"/>
      <point x="259" y="310" type="curve" smooth="yes"/>
      <point x="259" y="345" type="line" smooth="yes"/>
      <point x="259" y="450"/>
      <point x="259" y="554"/>
      <point x="262" y="655" type="curve"/>
      <point x="112" y="655" type="line"/>
      <point x="115" y="552"/>
      <point x="115" y="448"/>
      <point x="115" y="345" type="curve" smooth="yes"/>
    </contour>
    <contour>
      <point x="175" y="590" type="line"/>
      <point x="188" y="590" type="line"/>
      <point x="188" y="655" type="line"/>
      <point x="32" y="655" type="line"/>
      <point x="32" y="605" type="line"/>
    </contour>
    <contour>
      <point x="188" y="294" type="line"/>
      <point x="290" y="294" type="line" smooth="yes"/>
      <point x="356" y="294"/>
      <point x="387" y="272"/>
      <point x="400" y="207" type="curve" smooth="yes"/>
      <point x="426" y="74" type="line" smooth="yes"/>
      <point x="439" y="5"/>
      <point x="491" y="-10"/>
      <point x="567" y="-10" type="curve" smooth="yes"/>
      <point x="595" y="-10"/>
      <point x="624" y="-8"/>
      <point x="664" y="0" type="curve"/>
      <point x="664" y="50" type="line"/>
      <point x="529" y="65" type="line"/>
      <point x="588" y="25" type="line"/>
      <point x="554" y="187" type="line" smooth="yes"/>
      <point x="535" y="277"/>
      <point x="472" y="324"/>
      <point x="378" y="329" type="curve"/>
      <point x="378" y="311" type="line"/>
      <point x="532" y="326"/>
      <point x="582" y="415"/>
      <point x="582" y="490" type="curve" smooth="yes"/>
      <point x="582" y="592"/>
      <point x="494" y="655"/>
      <point x="344" y="655" type="curve" smooth="yes"/>
      <point x="188" y="655" type="line"/>
      <point x="188" y="600" type="line"/>
      <point x="303" y="600" type="line" smooth="yes"/>
      <point x="400" y="600"/>
      <point x="442" y="559"/>
      <point x="442" y="480" type="curve" smooth="yes"/>
      <point x="442" y="408"/>
      <point x="405" y="349"/>
      <point x="303" y="349" type="curve" smooth="yes"/>
      <point x="188" y="349" type="line"/>
    </contour>
  </outline>
</glyph>
<glyph name="S" format="1">
  <advance width="534"/>
  <outline>
    <contour>
      <point x="244" y="40" type="curve" smooth="yes"/>
      <point x="182" y="40"/>
      <point x="142" y="63"/>
      <point x="82" y="96" type="curve"/>
      <point x="150" y="24" type="line"/>
      <point x="124" y="184" type="line"/>
      <point x="41" y="184" type="line"/>
      <point x="35" y="37" type="line"/>
      <point x="89" y="4"/>
      <point x="170" y="-15"/>
      <point x="245" y="-15" type="curve" smooth="yes"/>
      <point x="404" y="-15"/>
      <point x="509" y="74"/>
      <point x="509" y="190" type="curve" smooth="yes"/>
      <point x="509" y="267"/>
      <point x="464" y="339"/>
      <point x="321" y="389" type="curve" smooth="yes"/>
      <point x="269" y="407" type="line" smooth="yes"/>
      <point x="201" y="431"/>
      <point x="162" y="459"/>
      <point x="162" y="515" type="curve" smooth="yes"/>
      <point x="162" y="579"/>
      <point x="214" y="615"/>
      <point x="280" y="615" type="curve" smooth="yes"/>
      <point x="334" y="615"/>
      <point x="386" y="591"/>
      <point x="439" y="554" type="curve"/>
      <point x="352" y="632" type="line"/>
      <point x="378" y="481" type="line"/>
      <point x="460" y="481" type="line"/>
      <point x="467" y="618" type="line"/>
      <point x="419" y="651"/>
      <point x="352" y="670"/>
      <point x="279" y="670" type="curve" smooth="yes"/>
      <point x="128" y="670"/>
      <point x="37" y="589"/>
      <point x="37" y="478" type="curve" smooth="yes"/>
      <point x="37" y="379"/>
      <point x="107" y="309"/>
      <point x="225" y="266" type="curve" smooth="yes"/>
      <point x="274" y="248" type="line" smooth="yes"/>
      <point x="346" y="222"/>
      <point x="377" y="197"/>
      <point x="377" y="146" type="curve" smooth="yes"/>
      <point x="377" y="82"/>
      <point x="328" y="40"/>
    </contour>
  </outline>
</glyph>
<glyph name="T" format="1">
  <advance width="644"/>
  <outline>
    <contour>
      <point x="299" y="65" type="line"/>
      <point x="156" y="50" type="line"/>
      <point x="156" y="0" type="line"/>
      <point x="488" y="0" type="line"/>
      <point x="488" y="50" type="line"/>
      <point x="345" y="65" type="line"/>
    </contour>
    <contour>
      <point x="249" y="310" type="line"/>
      <point x="249" y="205"/>
      <point x="249" y="101"/>
      <point x="246" y="0" type="curve"/>
      <point x="398" y="0" type="line"/>
      <point x="395" y="103"/>
      <point x="395" y="207"/>
      <point x="395" y="310" type="curve" smooth="yes"/>
      <point x="395" y="345" type="line" smooth="yes"/>
      <point x="395" y="450"/>
      <point x="395" y="554"/>
      <point x="398" y="655" type="curve"/>
      <point x="246" y="655" type="line"/>
      <point x="249" y="552"/>
      <point x="249" y="448"/>
      <point x="249" y="345" type="curve" smooth="yes"/>
    </contour>
    <contour>
      <point x="585" y="600" type="line"/>
      <point x="521" y="655" type="line"/>
      <point x="549" y="471" type="line"/>
      <point x="624" y="471" type="line"/>
      <point x="619" y="655" type="line"/>
      <point x="25" y="655" type="line"/>
      <point x="20" y="471" type="line"/>
      <point x="95" y="471" type="line"/>
      <point x="123" y="655" type="line"/>
      <point x="59" y="600" type="line"/>
    </contour>
  </outline>
</glyph>
<glyph name="U" format="1">
  <advance width="750"/>
  <outline>
    <contour>
      <point x="625" y="594" type="line"/>
      <point x="730" y="605" type="line"/>
      <point x="730" y="655" type="line"/>
      <point x="494" y="655" type="line"/>
      <point x="494" y="605" type="line"/>
      <point x="599" y="594" type="line"/>
    </contour>
    <contour>
      <point x="175" y="590" type="line"/>
      <point x="201" y="590" type="line"/>
      <point x="344" y="605" type="line"/>
      <point x="344" y="655" type="line"/>
      <point x="32" y="655" type="line"/>
      <point x="32" y="605" type="line"/>
    </contour>
    <contour>
      <point x="262" y="283" type="curve" smooth="yes"/>
      <point x="262" y="352" type="line" smooth="yes"/>
      <point x="262" y="454"/>
      <point x="262" y="556"/>
      <point x="265" y="655" type="curve"/>
      <point x="112" y="655" type="line"/>
      <point x="115" y="554"/>
      <point x="115" y="452"/>
      <point x="115" y="352" type="curve" smooth="yes"/>
      <point x="115" y="252" type="line" smooth="yes"/>
      <point x="115" y="64"/>
      <point x="222" y="-15"/>
      <point x="377" y="-15" type="curve" smooth="yes"/>
      <point x="529" y="-15"/>
      <point x="641" y="61"/>
      <point x="641" y="283" type="curve" smooth="yes"/>
      <point x="641" y="655" type="line"/>
      <point x="581" y="655" type="line"/>
      <point x="581" y="283" type="line" smooth="yes"/>
      <point x="581" y="125"/>
      <point x="523" y="70"/>
      <point x="421" y="70" type="curve" smooth="yes"/>
      <point x="320" y="70"/>
      <point x="262" y="125"/>
    </contour>
  </outline>
</glyph>
<glyph name="Ucyr.sc" format="1">
	<advance width="583"/>
	<outline>
		<contour>
			<point x="12" y="489" type="line"/>
			<point x="136" y="477" type="line"/>
			<point x="175" y="477" type="line"/>
			<point x="301" y="489" type="line"/>
			<point x="301" y="540" type="line"/>
			<point x="12" y="540" type="line"/>
		</contour>
		<contour>
			<point x="289" y="87" type="line"/>
			<point x="358" y="230" type="line"/>
			<point x="206" y="540" type="line"/>
			<point x="36" y="540" type="line"/>
		</contour>
		<contour>
			<point x="81" y="71" type="curve"/>
			<point x="81" y="1"/>
			<point x="127" y="-15"/>
			<point x="173" y="-15" type="curve" smooth="yes"/>
			<point x="263" y="-15"/>
			<point x="309" y="48"/>
			<point x="351" y="136" type="curve" smooth="yes"/>
			<point x="536" y="540" type="line"/>
			<point x="461" y="540" type="line"/>
			<point x="312" y="184" type="line"/>
			<point x="285" y="113"/>
			<point x="245" y="60"/>
			<point x="185" y="30" type="curve"/>
			<point x="192" y="4" type="line"/>
			<point x="263" y="53" type="line"/>
			<point x="226" y="92"/>
			<point x="192" y="112"/>
			<point x="154" y="112" type="curve" smooth="yes"/>
			<point x="117" y="112"/>
			<point x="93" y="88"/>
		</contour>
		<contour>
			<point x="380" y="489" type="line"/>
			<point x="459" y="478" type="line"/>
			<point x="485" y="478" type="line"/>
			<point x="567" y="489" type="line"/>
			<point x="567" y="540" type="line"/>
			<point x="380" y="540" type="line"/>
		</contour>
		<contour>
			<point name="aboveUC" x="330" y="563" type="move"/>
		</contour>
	</outline>
</glyph>
<glyph name="Uhorn.sc" format="1">
	<advance width="664"/>
	<outline>
		<contour>
			<point x="260" y="233" type="curve" smooth="yes"/>
			<point x="260" y="294" type="line" smooth="yes"/>
			<point x="260" y="376"/>
			<point x="260" y="459"/>
			<point x="263" y="540" type="curve"/>
			<point x="103" y="540" type="line"/>
			<point x="106" y="458"/>
			<point x="106" y="374"/>
			<point x="106" y="294" type="curve" smooth="yes"/>
			<point x="106" y="201" type="line" smooth="yes"/>
			<point x="106" y="45"/>
			<point x="204" y="-15"/>
			<point x="337" y="-15" type="curve" smooth="yes"/>
			<point x="488" y="-15"/>
			<point x="580" y="57"/>
			<point x="580" y="234" type="curve" smooth="yes"/>
			<point x="578" y="540" type="line"/>
			<point x="515" y="540" type="line"/>
			<point x="514" y="235" type="line" smooth="yes"/>
			<point x="513" y="112"/>
			<point x="466" y="64"/>
			<point x="387" y="64" type="curve" smooth="yes"/>
			<point x="303" y="64"/>
			<point x="260" y="107"/>
		</contour>
		<contour>
			<point x="175" y="477" type="line"/>
			<point x="201" y="477" type="line"/>
			<point x="336" y="489" type="line"/>
			<point x="336" y="540" type="line"/>
			<point x="39" y="540" type="line"/>
			<point x="39" y="489" type="line"/>
		</contour>
		<contour>
			<point x="558" y="483" type="line"/>
			<point x="558" y="540" type="line"/>
			<point x="435" y="540" type="line"/>
			<point x="435" y="489" type="line"/>
			<point x="531" y="483" type="line"/>
		</contour>
		<contour>
			<point x="542" y="443" type="line"/>
			<point x="623" y="448"/>
			<point x="698" y="510"/>
			<point x="698" y="599" type="curve" smooth="yes"/>
			<point x="698" y="614"/>
			<point x="697" y="626"/>
			<point x="688" y="642" type="curve"/>
			<point x="675" y="653"/>
			<point x="662" y="656"/>
			<point x="646" y="656" type="curve" smooth="yes"/>
			<point x="615" y="656"/>
			<point x="593" y="635"/>
			<point x="593" y="613" type="curve" smooth="yes"/>
			<point x="593" y="580"/>
			<point x="621" y="563"/>
			<point x="621" y="540" type="curve" smooth="yes"/>
			<point x="621" y="510"/>
			<point x="586" y="490"/>
			<point x="537" y="484" type="curve"/>
		</contour>
		<contour>
			<point name="aboveUC" x="371" y="563" type="move"/>
		</contour>
		<contour>
			<point name="belowLC" x="360" y="-18" type="move"/>
		</contour>
	</outline>
</glyph>
<glyph name="Uogonek" format="1">
  <advance width="750"/>
  <outline>
    <contour>
      <point x="625" y="594" type="line"/>
      <point x="730" y="605" type="line"/>
      <point x="730" y="655" type="line"/>
      <point x="494" y="655" type="line"/>
      <point x="494" y="605" type="line"/>
      <point x="599" y="594" type="line"/>
    </contour>
    <contour>
      <point x="175" y="590" type="line"/>
      <point x="201" y="590" type="line"/>
      <point x="344" y="605" type="line"/>
      <point x="344" y="655" type="line"/>
      <point x="32" y="655" type="line"/>
      <point x="32" y="605" type="line"/>
    </contour>
    <contour>
      <point x="466" y="-83" type="curve" smooth="yes"/>
      <point x="466" y="-45"/>
      <point x="488" y="-14"/>
      <point x="544" y="32" type="curve" smooth="yes"/>
      <point x="600" y="78"/>
      <point x="641" y="150"/>
      <point x="641" y="283" type="curve" smooth="yes"/>
      <point x="641" y="655" type="line"/>
      <point x="581" y="655" type="line"/>
      <point x="581" y="283" type="line" smooth="yes"/>
      <point x="581" y="125"/>
      <point x="523" y="70"/>
      <point x="421" y="70" type="curve" smooth="yes"/>
      <point x="320" y="70"/>
      <point x="262" y="125"/>
      <point x="262" y="283" type="curve" smooth="yes"/>
      <point x="262" y="352" type="line" smooth="yes"/>
      <point x="262" y="454"/>
      <point x="262" y="556"/>
      <point x="265" y="655" type="curve"/>
      <point x="112" y="655" type="line"/>
      <point x="115" y="554"/>
      <point x="115" y="452"/>
      <point x="115" y="352" type="curve" smooth="yes"/>
      <point x="115" y="252" type="line" smooth="yes"/>
      <point x="115" y="64"/>
      <point x="222" y="-15"/>
      <point x="388" y="-15" type="curve" smooth="yes"/>
      <point x="410" y="-15"/>
      <point x="432" y="-13"/>
      <point x="452" y="-9" type="curve"/>
      <point x="447" y="0" type="line"/>
      <point x="404" y="-27"/>
      <point x="371" y="-76"/>
      <point x="371" y="-130" type="curve" smooth="yes"/>
      <point x="371" y="-190"/>
      <point x="413" y="-229"/>
      <point x="482" y="-229" type="curve" smooth="yes"/>
      <point x="524" y="-229"/>
      <point x="575" y="-211"/>
      <point x="606" y="-184" type="curve"/>
      <point x="592" y="-146" type="line"/>
      <point x="574" y="-151"/>
      <point x="557" y="-154"/>
      <point x="540" y="-154" type="curve" smooth="yes"/>
      <point x="501" y="-154"/>
      <point x="466" y="-132"/>
    </contour>
  </outline>
</glyph>
<glyph name="Ustraightstroke.sc" format="1">
	<advance width="573"/>
	<outline>
		<contour>
			<point x="492" y="186" type="line"/>
			<point x="492" y="240" type="line"/>
			<point x="82" y="240" type="line"/>
			<point x="82" y="186" type="line"/>
		</contour>
		<component base="Ustraight.sc"/>
		<contour>
			<point name="aboveUC" x="319" y="563" type="move"/>
		</contour>
	</outline>
</glyph>
<glyph name="V" format="1">
  <advance width="650"/>
  <outline>
    <contour>
      <point x="550" y="590" type="line"/>
      <point x="645" y="605" type="line"/>
      <point x="645" y="655" type="line"/>
      <point x="419" y="655" type="line"/>
      <point x="419" y="605" type="line"/>
      <point x="524" y="590" type="line"/>
    </contour>
    <contour>
      <point x="166" y="590" type="line"/>
      <point x="301" y="605" type="line"/>
      <point x="301" y="655" type="line"/>
      <point x="5" y="655" type="line"/>
      <point x="5" y="605" type="line"/>
      <point x="140" y="590" type="line"/>
    </contour>
    <contour>
      <point x="304" y="-10" type="line"/>
      <point x="354" y="-10" type="line"/>
      <point x="593" y="655" type="line"/>
      <point x="539" y="655" type="line"/>
      <point x="361" y="163" type="line"/>
      <point x="383" y="163" type="line"/>
      <point x="197" y="655" type="line"/>
      <point x="43" y="655" type="line"/>
    </contour>
  </outline>
</glyph>
<glyph name="W" format="1">
  <advance width="987"/>
  <outline>
    <contour>
      <point x="887" y="590" type="line"/>
      <point x="982" y="605" type="line"/>
      <point x="982" y="655" type="line"/>
      <point x="756" y="655" type="line"/>
      <point x="756" y="605" type="line"/>
      <point x="861" y="590" type="line"/>
    </contour>
    <contour>
      <point x="554" y="590" type="line"/>
      <point x="676" y="605" type="line"/>
      <point x="676" y="655" type="line"/>
      <point x="393" y="655" type="line"/>
      <point x="393" y="605" type="line"/>
      <point x="518" y="590" type="line"/>
    </contour>
    <contour>
      <point x="163" y="590" type="line"/>
      <point x="298" y="605" type="line"/>
      <point x="298" y="655" type="line"/>
      <point x="5" y="655" type="line"/>
      <point x="5" y="605" type="line"/>
      <point x="137" y="590" type="line"/>
    </contour>
    <contour>
      <point x="301" y="133" type="line"/>
      <point x="355" y="133" type="line"/>
      <point x="200" y="655" type="line"/>
      <point x="49" y="655" type="line"/>
      <point x="260" y="-10" type="line"/>
      <point x="310" y="-10" type="line"/>
      <point x="504" y="541" type="line"/>
      <point x="467" y="541" type="line"/>
      <point x="663" y="-10" type="line"/>
      <point x="714" y="-10" type="line"/>
      <point x="920" y="655" type="line"/>
      <point x="868" y="655" type="line"/>
      <point x="705" y="133" type="line"/>
      <point x="754" y="133" type="line"/>
      <point x="579" y="655" type="line"/>
      <point x="494" y="655" type="line"/>
    </contour>
  </outline>
</glyph>
<glyph name="X" format="1">
  <advance width="652"/>
  <outline>
    <contour>
      <point x="116" y="60" type="line"/>
      <point x="21" y="50" type="line"/>
      <point x="21" y="0" type="line"/>
      <point x="232" y="0" type="line"/>
      <point x="232" y="50" type="line"/>
      <point x="137" y="60" type="line"/>
    </contour>
    <contour>
      <point x="491" y="65" type="line"/>
      <point x="465" y="65" type="line"/>
      <point x="330" y="50" type="line"/>
      <point x="330" y="0" type="line"/>
      <point x="626" y="0" type="line"/>
      <point x="626" y="50" type="line"/>
    </contour>
    <contour>
      <point x="520" y="595" type="line"/>
      <point x="625" y="605" type="line"/>
      <point x="625" y="655" type="line"/>
      <point x="399" y="655" type="line"/>
      <point x="399" y="605" type="line"/>
      <point x="494" y="595" type="line"/>
    </contour>
    <contour>
      <point x="166" y="590" type="line"/>
      <point x="194" y="590" type="line"/>
      <point x="329" y="605" type="line"/>
      <point x="329" y="655" type="line"/>
      <point x="31" y="655" type="line"/>
      <point x="31" y="605" type="line"/>
    </contour>
    <contour>
      <point x="291" y="351" type="line"/>
      <point x="57" y="0" type="line"/>
      <point x="125" y="0" type="line"/>
      <point x="347" y="351" type="line"/>
    </contour>
    <contour>
      <point x="587" y="0" type="line"/>
      <point x="232" y="655" type="line"/>
      <point x="73" y="655" type="line"/>
      <point x="428" y="0" type="line"/>
    </contour>
    <contour>
      <point x="348" y="318" type="line"/>
      <point x="578" y="655" type="line"/>
      <point x="509" y="655" type="line"/>
      <point x="292" y="318" type="line"/>
    </contour>
  </outline>
</glyph>
<glyph name="Y" format="1">
  <advance width="606"/>
  <outline>
    <contour>
      <point x="280" y="65" type="line"/>
      <point x="137" y="50" type="line"/>
      <point x="137" y="0" type="line"/>
      <point x="469" y="0" type="line"/>
      <point x="469" y="50" type="line"/>
      <point x="326" y="65" type="line"/>
    </contour>
    <contour>
      <point x="147" y="590" type="line"/>
      <point x="181" y="590" type="line"/>
      <point x="309" y="605" type="line"/>
      <point x="309" y="655" type="line"/>
      <point x="2" y="655" type="line"/>
      <point x="2" y="605" type="line"/>
    </contour>
    <contour>
      <point x="519" y="590" type="line"/>
      <point x="604" y="605" type="line"/>
      <point x="604" y="655" type="line"/>
      <point x="392" y="655" type="line"/>
      <point x="392" y="605" type="line"/>
      <point x="497" y="590" type="line"/>
    </contour>
    <contour>
      <point x="230" y="225" type="line"/>
      <point x="230" y="131"/>
      <point x="230" y="91"/>
      <point x="227" y="0" type="curve"/>
      <point x="379" y="0" type="line"/>
      <point x="376" y="93"/>
      <point x="376" y="132"/>
      <point x="376" y="225" type="curve" smooth="yes"/>
      <point x="376" y="298" type="line"/>
      <point x="230" y="298" type="line"/>
    </contour>
    <contour>
      <point x="345" y="233" type="line"/>
      <point x="562" y="655" type="line"/>
      <point x="502" y="655" type="line"/>
      <point x="335" y="316" type="line"/>
      <point x="356" y="316" type="line"/>
      <point x="203" y="655" type="line"/>
      <point x="38" y="655" type="line"/>
      <point x="255" y="233" type="line"/>
    </contour>
  </outline>
</glyph>
<glyph name="Z" format="1">
  <advance width="569"/>
  <outline>
    <contour>
      <point x="470" y="184" type="line"/>
      <point x="433" y="0" type="line"/>
      <point x="507" y="55" type="line"/>
      <point x="86" y="55" type="line"/>
      <point x="86" y="0" type="line"/>
      <point x="541" y="0" type="line"/>
      <point x="549" y="184" type="line"/>
    </contour>
    <contour>
      <point x="108" y="471" type="line"/>
      <point x="146" y="655" type="line"/>
      <point x="72" y="600" type="line"/>
      <point x="464" y="600" type="line"/>
      <point x="464" y="655" type="line"/>
      <point x="38" y="655" type="line"/>
      <point x="30" y="471" type="line"/>
    </contour>
    <contour>
      <point x="398" y="655" type="line"/>
      <point x="20" y="40" type="line"/>
      <point x="20" y="0" type="line"/>
      <point x="152" y="0" type="line"/>
      <point x="530" y="615" type="line"/>
      <point x="530" y="655" type="line"/>
    </contour>
  </outline>
</glyph>
<glyph name="Zhe.sc" format="1">
	<advance width="889"/>
	<outline>
		<contour>
			<point x="306" y="0" type="line"/>
			<point x="583" y="0" type="line"/>
			<point x="583" y="51" type="line"/>
			<point x="456" y="63" type="line"/>
			<point x="433" y="63" type="line"/>
			<point x="306" y="51" type="line"/>
		</contour>
		<contour>
			<point x="306" y="489" type="line"/>
			<point x="433" y="477" type="line"/>
			<point x="456" y="477" type="line"/>
			<point x="583" y="489" type="line"/>
			<point x="583" y="540" type="line"/>
			<point x="306" y="540" type="line"/>
		</contour>
		<contour>
			<point x="371" y="0" type="curve"/>
			<point x="518" y="0" type="line"/>
			<point x="515" y="84"/>
			<point x="515" y="170"/>
			<point x="515" y="255" type="curve" smooth="yes"/>
			<point x="515" y="283" type="line" smooth="yes"/>
			<point x="515" y="371"/>
			<point x="515" y="456"/>
			<point x="518" y="540" type="curve"/>
			<point x="371" y="540" type="line"/>
			<point x="373" y="456"/>
			<point x="373" y="370"/>
			<point x="373" y="283" type="curve" smooth="yes"/>
			<point x="373" y="256" type="line" smooth="yes"/>
			<point x="373" y="169"/>
			<point x="373" y="84"/>
		</contour>
		<contour>
			<point x="655" y="68" type="line" smooth="yes"/>
			<point x="671" y="-1"/>
			<point x="717" y="-12"/>
			<point x="788" y="-12" type="curve" smooth="yes"/>
			<point x="814" y="-12"/>
			<point x="847" y="-10"/>
			<point x="882" y="0" type="curve"/>
			<point x="882" y="51" type="line"/>
			<point x="723" y="63" type="line"/>
			<point x="815" y="36" type="line"/>
			<point x="788" y="138" type="line" smooth="yes"/>
			<point x="768" y="233"/>
			<point x="704" y="276"/>
			<point x="556" y="278" type="curve"/>
			<point x="557" y="261" type="line"/>
			<point x="631" y="266"/>
			<point x="668" y="298"/>
			<point x="698" y="373" type="curve" smooth="yes"/>
			<point x="714" y="414"/>
			<point x="726" y="437"/>
			<point x="743" y="460" type="curve"/>
			<point x="685" y="428" type="line"/>
			<point x="699" y="427"/>
			<point x="729" y="426"/>
			<point x="751" y="426" type="curve" smooth="yes"/>
			<point x="823" y="425"/>
			<point x="850" y="460"/>
			<point x="850" y="492" type="curve" smooth="yes"/>
			<point x="850" y="535"/>
			<point x="820" y="558"/>
			<point x="765" y="556" type="curve"/>
			<point x="722" y="545"/>
			<point x="682" y="504"/>
			<point x="645" y="400" type="curve" smooth="yes"/>
			<point x="613" y="308"/>
			<point x="583" y="297"/>
			<point x="531" y="297" type="curve" smooth="yes"/>
			<point x="444" y="297" type="line"/>
			<point x="444" y="245" type="line"/>
			<point x="539" y="245" type="line" smooth="yes"/>
			<point x="581" y="245"/>
			<point x="614" y="229"/>
			<point x="622" y="199" type="curve" smooth="yes"/>
		</contour>
		<contour>
			<point x="234" y="68" type="curve" smooth="yes"/>
			<point x="267" y="199" type="line" smooth="yes"/>
			<point x="275" y="229"/>
			<point x="307" y="245"/>
			<point x="349" y="245" type="curve" smooth="yes"/>
			<point x="444" y="245" type="line"/>
			<point x="444" y="297" type="line"/>
			<point x="358" y="297" type="line" smooth="yes"/>
			<point x="307" y="297"/>
			<point x="279" y="305"/>
			<point x="244" y="400" type="curve" smooth="yes"/>
			<point x="204" y="504"/>
			<point x="167" y="545"/>
			<point x="124" y="556" type="curve"/>
			<point x="68" y="558"/>
			<point x="39" y="535"/>
			<point x="39" y="492" type="curve" smooth="yes"/>
			<point x="39" y="461"/>
			<point x="65" y="425"/>
			<point x="133" y="426" type="curve" smooth="yes"/>
			<point x="155" y="426"/>
			<point x="186" y="429"/>
			<point x="204" y="430" type="curve"/>
			<point x="145" y="460" type="line"/>
			<point x="162" y="437"/>
			<point x="175" y="414"/>
			<point x="191" y="373" type="curve" smooth="yes"/>
			<point x="221" y="298"/>
			<point x="258" y="266"/>
			<point x="332" y="261" type="curve"/>
			<point x="333" y="278" type="line"/>
			<point x="185" y="276"/>
			<point x="121" y="233"/>
			<point x="100" y="138" type="curve" smooth="yes"/>
			<point x="73" y="36" type="line"/>
			<point x="164" y="63" type="line"/>
			<point x="7" y="51" type="line"/>
			<point x="7" y="0" type="line"/>
			<point x="42" y="-10"/>
			<point x="75" y="-12"/>
			<point x="100" y="-12" type="curve" smooth="yes"/>
			<point x="172" y="-12"/>
			<point x="217" y="-1"/>
		</contour>
		<contour>
			<point name="aboveUC" x="445" y="563" type="move"/>
		</contour>
	</outline>
</glyph>
<glyph name=".notdef" format="1">
  <advance width="636"/>
  <outline>
    <contour>
      <point x="80" y="0" type="line"/>
      <point x="140" y="0" type="line"/>
      <point x="556" y="660" type="line"/>
      <point x="496" y="660" type="line"/>
    </contour>
    <contour>
      <point x="556" y="0" type="line"/>
      <point x="140" y="660" type="line"/>
      <point x="80" y="660" type="line"/>
      <point x="496" y="0" type="line"/>
    </contour>
    <contour>
      <point x="140" y="50" type="line"/>
      <point x="140" y="610" type="line"/>
      <point x="496" y="610" type="line"/>
      <point x="496" y="50" type="line"/>
    </contour>
    <contour>
      <point x="80" y="0" type="line"/>
      <point x="556" y="0" type="line"/>
      <point x="556" y="660" type="line"/>
      <point x="80" y="660" type="line"/>
    </contour>
  </outline>
</glyph>
<glyph name="a.sups" format="1">
  <advance width="366"/>
  <outline>
    <contour>
      <point x="312" y="476" type="curve" smooth="yes"/>
      <point x="312" y="611" type="line" smooth="yes"/>
      <point x="312" y="704"/>
      <point x="274" y="740"/>
      <point x="187" y="740" type="curve" smooth="yes"/>
      <point x="103" y="740"/>
      <point x="48" y="703"/>
      <point x="43" y="652" type="curve"/>
      <point x="47" y="633"/>
      <point x="64" y="620"/>
      <point x="84" y="620" type="curve" smooth="yes"/>
      <point x="106" y="620"/>
      <point x="128" y="635"/>
      <point x="133" y="667" type="curve" smooth="yes"/>
      <point x="140" y="720" type="line"/>
      <point x="96" y="696" type="line"/>
      <point x="125" y="702"/>
      <point x="146" y="705"/>
      <point x="162" y="705" type="curve" smooth="yes"/>
      <point x="202" y="705"/>
      <point x="217" y="685"/>
      <point x="217" y="631" type="curve" smooth="yes"/>
      <point x="217" y="473" type="line" smooth="yes"/>
      <point x="217" y="435"/>
      <point x="246" y="408"/>
      <point x="296" y="408" type="curve" smooth="yes"/>
      <point x="327" y="408"/>
      <point x="352" y="419"/>
      <point x="370" y="454" type="curve"/>
      <point x="352" y="467" type="line"/>
      <point x="343" y="455"/>
      <point x="337" y="450"/>
      <point x="327" y="450" type="curve" smooth="yes"/>
      <point x="317" y="450"/>
      <point x="312" y="460"/>
    </contour>
    <contour>
      <point x="121" y="504" type="curve" smooth="yes"/>
      <point x="121" y="529"/>
      <point x="135" y="551"/>
      <point x="172" y="565" type="curve" smooth="yes"/>
      <point x="190" y="572"/>
      <point x="234" y="584"/>
      <point x="267" y="591" type="curve"/>
      <point x="267" y="621" type="line"/>
      <point x="234" y="614"/>
      <point x="185" y="602"/>
      <point x="157" y="593" type="curve" smooth="yes"/>
      <point x="54" y="560"/>
      <point x="31" y="529"/>
      <point x="31" y="486" type="curve" smooth="yes"/>
      <point x="31" y="433"/>
      <point x="69" y="405"/>
      <point x="120" y="405" type="curve" smooth="yes"/>
      <point x="163" y="405"/>
      <point x="197" y="424"/>
      <point x="228" y="452" type="curve" smooth="yes"/>
      <point x="263" y="483" type="line"/>
      <point x="252" y="501" type="line"/>
      <point x="225" y="481" type="line" smooth="yes"/>
      <point x="202" y="464"/>
      <point x="188" y="458"/>
      <point x="169" y="458" type="curve" smooth="yes"/>
      <point x="156" y="458"/>
      <point x="144" y="461"/>
      <point x="134" y="471" type="curve" smooth="yes"/>
      <point x="127" y="478"/>
      <point x="121" y="488"/>
    </contour>
  </outline>
</glyph>
<glyph name="acutecmb" format="1">
  <advance width="0"/>
  <outline>
    <contour>
      <point x="-104" y="570" type="line"/>
      <point x="-70" y="543" type="line"/>
      <point x="25" y="620" type="line" smooth="yes"/>
      <point x="84" y="667"/>
      <point x="100" y="689"/>
      <point x="100" y="715" type="curve" smooth="yes"/>
      <point x="100" y="745"/>
      <point x="78" y="763"/>
      <point x="50" y="763" type="curve" smooth="yes"/>
      <point x="17" y="763"/>
      <point x="-7" y="739"/>
      <point x="-46" y="671" type="curve" smooth="yes"/>
    </contour>
  </outline>
</glyph>
<glyph name="acutecmb.cap" format="1">
  <advance width="0"/>
  <outline>
    <contour>
      <point x="-115" y="736" type="line"/>
      <point x="-90" y="702" type="line"/>
      <point x="54" y="772" type="line" smooth="yes"/>
      <point x="99" y="794"/>
      <point x="110" y="815"/>
      <point x="110" y="833" type="curve" smooth="yes"/>
      <point x="110" y="857"/>
      <point x="91" y="878"/>
      <point x="63" y="878" type="curve" smooth="yes"/>
      <point x="43" y="878"/>
      <point x="23" y="867"/>
      <point x="-7" y="839" type="curve" smooth="yes"/>
    </contour>
  </outline>
</glyph>
<glyph name="ae" format="1">
  <advance width="804"/>
  <outline>
    <contour>
      <point x="175" y="136" type="curve" smooth="yes"/>
      <point x="175" y="178"/>
      <point x="195" y="214"/>
      <point x="253" y="237" type="curve" smooth="yes"/>
      <point x="283" y="249"/>
      <point x="341" y="265"/>
      <point x="389" y="278" type="curve"/>
      <point x="389" y="319" type="line"/>
      <point x="341" y="308"/>
      <point x="272" y="289"/>
      <point x="230" y="275" type="curve" smooth="yes"/>
      <point x="78" y="225"/>
      <point x="45" y="167"/>
      <point x="45" y="105" type="curve" smooth="yes"/>
      <point x="45" y="27"/>
      <point x="101" y="-15"/>
      <point x="189" y="-15" type="curve" smooth="yes"/>
      <point x="249" y="-15"/>
      <point x="280" y="4"/>
      <point x="337" y="52" type="curve" smooth="yes"/>
      <point x="393" y="100" type="line"/>
      <point x="367" y="127" type="line"/>
      <point x="328" y="97" type="line" smooth="yes"/>
      <point x="294" y="71"/>
      <point x="274" y="63"/>
      <point x="250" y="63" type="curve" smooth="yes"/>
      <point x="228" y="63"/>
      <point x="209" y="69"/>
      <point x="194" y="84" type="curve" smooth="yes"/>
      <point x="183" y="95"/>
      <point x="175" y="110"/>
    </contour>
    <contour>
      <point x="554" y="-15" type="curve" smooth="yes"/>
      <point x="655" y="-15"/>
      <point x="733" y="31"/>
      <point x="760" y="119" type="curve"/>
      <point x="726" y="138" type="line"/>
      <point x="696" y="90"/>
      <point x="660" y="63"/>
      <point x="602" y="63" type="curve" smooth="yes"/>
      <point x="518" y="63"/>
      <point x="457" y="121"/>
      <point x="457" y="247" type="curve" smooth="yes"/>
      <point x="457" y="400"/>
      <point x="521" y="448"/>
      <point x="568" y="448" type="curve" smooth="yes"/>
      <point x="606" y="448"/>
      <point x="641" y="417"/>
      <point x="641" y="348" type="curve" smooth="yes"/>
      <point x="641" y="305"/>
      <point x="626" y="285"/>
      <point x="578" y="285" type="curve" smooth="yes"/>
      <point x="385" y="285" type="line"/>
      <point x="385" y="235" type="line"/>
      <point x="764" y="235" type="line"/>
      <point x="768" y="251"/>
      <point x="770" y="269"/>
      <point x="770" y="287" type="curve" smooth="yes"/>
      <point x="770" y="411"/>
      <point x="690" y="498"/>
      <point x="565" y="498" type="curve" smooth="yes"/>
      <point x="496" y="498"/>
      <point x="435" y="470"/>
      <point x="391" y="403" type="curve"/>
      <point x="367" y="387" type="line"/>
      <point x="335" y="349"/>
      <point x="312" y="297"/>
      <point x="312" y="233" type="curve" smooth="yes"/>
      <point x="312" y="78"/>
      <point x="409" y="-15"/>
    </contour>
    <contour>
      <point x="453" y="235" type="line"/>
      <point x="453" y="325" type="line" smooth="yes"/>
      <point x="453" y="419"/>
      <point x="408" y="498"/>
      <point x="269" y="498" type="curve" smooth="yes"/>
      <point x="146" y="498"/>
      <point x="71" y="439"/>
      <point x="62" y="360" type="curve"/>
      <point x="69" y="333"/>
      <point x="86" y="312"/>
      <point x="122" y="312" type="curve" smooth="yes"/>
      <point x="163" y="312"/>
      <point x="186" y="339"/>
      <point x="193" y="394" type="curve" smooth="yes"/>
      <point x="203" y="469" type="line"/>
      <point x="143" y="436" type="line"/>
      <point x="183" y="444"/>
      <point x="209" y="448"/>
      <point x="239" y="448" type="curve" smooth="yes"/>
      <point x="292" y="448"/>
      <point x="317" y="420"/>
      <point x="317" y="331" type="curve" smooth="yes"/>
      <point x="317" y="235" type="line"/>
    </contour>
  </outline>
</glyph>
<glyph name="ampersand" format="1">
  <advance width="748"/>
  <outline>
    <contour>
      <point x="340" y="193" type="curve" smooth="yes"/>
      <point x="372" y="153"/>
      <point x="408" y="106"/>
      <point x="441" y="67" type="curve" smooth="yes"/>
      <point x="494" y="4"/>
      <point x="514" y="-10"/>
      <point x="592" y="-10" type="curve" smooth="yes"/>
      <point x="622" y="-10"/>
      <point x="652" y="-8"/>
      <point x="694" y="0" type="curve"/>
      <point x="694" y="43" type="line"/>
      <point x="554" y="71" type="line"/>
      <point x="607" y="37" type="line"/>
      <point x="538" y="133"/>
      <point x="468" y="219"/>
      <point x="390" y="312" type="curve" smooth="yes"/>
      <point x="321" y="395"/>
      <point x="280" y="430"/>
      <point x="259" y="455" type="curve" smooth="yes"/>
      <point x="230" y="490"/>
      <point x="217" y="528"/>
      <point x="217" y="559" type="curve" smooth="yes"/>
      <point x="217" y="599"/>
      <point x="240" y="630"/>
      <point x="291" y="630" type="curve" smooth="yes"/>
      <point x="345" y="630"/>
      <point x="364" y="589"/>
      <point x="364" y="536" type="curve" smooth="yes"/>
      <point x="364" y="490"/>
      <point x="342" y="442"/>
      <point x="292" y="397" type="curve"/>
      <point x="309" y="374" type="line"/>
      <point x="405" y="424"/>
      <point x="459" y="467"/>
      <point x="459" y="540" type="curve" smooth="yes"/>
      <point x="459" y="614"/>
      <point x="395" y="670"/>
      <point x="294" y="670" type="curve" smooth="yes"/>
      <point x="186" y="670"/>
      <point x="112" y="616"/>
      <point x="112" y="532" type="curve" smooth="yes"/>
      <point x="112" y="465"/>
      <point x="146" y="426"/>
      <point x="199" y="367" type="curve" smooth="yes"/>
      <point x="231" y="331"/>
      <point x="278" y="269"/>
    </contour>
    <contour>
      <point x="465" y="170" type="curve"/>
      <point x="497" y="140" type="line"/>
      <point x="568" y="231"/>
      <point x="617" y="337"/>
      <point x="664" y="450" type="curve"/>
      <point x="596" y="450" type="line"/>
      <point x="568" y="350"/>
      <point x="522" y="256"/>
    </contour>
    <contour>
      <point x="245" y="344" type="curve"/>
      <point x="225" y="371" type="line"/>
      <point x="95" y="319"/>
      <point x="37" y="253"/>
      <point x="37" y="166" type="curve" smooth="yes"/>
      <point x="37" y="68"/>
      <point x="109" y="-15"/>
      <point x="242" y="-15" type="curve" smooth="yes"/>
      <point x="382" y="-15"/>
      <point x="433" y="63"/>
      <point x="481" y="126" type="curve"/>
      <point x="450" y="154" type="line"/>
      <point x="410" y="115"/>
      <point x="373" y="61"/>
      <point x="295" y="61" type="curve" smooth="yes"/>
      <point x="214" y="61"/>
      <point x="167" y="119"/>
      <point x="167" y="199" type="curve" smooth="yes"/>
      <point x="167" y="261"/>
      <point x="194" y="310"/>
    </contour>
    <contour>
      <point x="626" y="420" type="line"/>
      <point x="723" y="436" type="line"/>
      <point x="723" y="480" type="line"/>
      <point x="502" y="480" type="line"/>
      <point x="502" y="436" type="line"/>
      <point x="605" y="420" type="line"/>
    </contour>
  </outline>
</glyph>
<glyph name="arrowleft" format="1">
  <advance width="720"/>
  <outline>
    <contour>
      <point x="86" y="282" type="line"/>
      <point x="86" y="222" type="line"/>
      <point x="646" y="207" type="line"/>
      <point x="687" y="207" type="line"/>
      <point x="687" y="297" type="line"/>
      <point x="642" y="297" type="line"/>
    </contour>
    <contour>
      <point x="359" y="-55" type="line"/>
      <point x="401" y="-13" type="line"/>
      <point x="109" y="283" type="line"/>
      <point x="109" y="220" type="line"/>
      <point x="401" y="517" type="line"/>
      <point x="359" y="559" type="line"/>
      <point x="34" y="276" type="line"/>
      <point x="34" y="228" type="line"/>
    </contour>
  </outline>
</glyph>
<glyph name="arrowup" format="1">
  <advance width="720"/>
  <outline>
    <contour>
      <point x="53" y="275" type="line"/>
      <point x="95" y="233" type="line"/>
      <point x="391" y="525" type="line"/>
      <point x="328" y="525" type="line"/>
      <point x="625" y="233" type="line"/>
      <point x="667" y="275" type="line"/>
      <point x="384" y="600" type="line"/>
      <point x="336" y="600" type="line"/>
    </contour>
    <contour>
      <point x="390" y="548" type="line"/>
      <point x="330" y="548" type="line"/>
      <point x="315" y="-13" type="line"/>
      <point x="315" y="-54" type="line"/>
      <point x="405" y="-54" type="line"/>
      <point x="405" y="-9" type="line"/>
    </contour>
  </outline>
</glyph>
<glyph name="arrowupleft" format="1">
  <advance width="720"/>
  <outline>
    <contour>
      <point x="180" y="467" type="line"/>
      <point x="137" y="425" type="line"/>
      <point x="523" y="18" type="line"/>
      <point x="552" y="-11" type="line"/>
      <point x="615" y="53" type="line"/>
      <point x="583" y="85" type="line"/>
    </contour>
    <contour>
      <point x="134" y="36" type="line"/>
      <point x="194" y="36" type="line"/>
      <point x="197" y="452" type="line"/>
      <point x="152" y="407" type="line"/>
      <point x="569" y="411" type="line"/>
      <point x="569" y="470" type="line"/>
      <point x="139" y="500" type="line"/>
      <point x="105" y="466" type="line"/>
    </contour>
  </outline>
</glyph>
<glyph name="arrowupright" format="1">
  <advance width="720"/>
  <outline>
    <contour>
      <point x="586" y="36" type="line"/>
      <point x="615" y="466" type="line"/>
      <point x="581" y="500" type="line"/>
      <point x="151" y="470" type="line"/>
      <point x="151" y="411" type="line"/>
      <point x="568" y="407" type="line"/>
      <point x="523" y="452" type="line"/>
      <point x="526" y="36" type="line"/>
    </contour>
    <contour>
      <point x="540" y="467" type="line"/>
      <point x="137" y="85" type="line"/>
      <point x="105" y="53" type="line"/>
      <point x="168" y="-11" type="line"/>
      <point x="197" y="18" type="line"/>
      <point x="583" y="425" type="line"/>
    </contour>
  </outline>
</glyph>
<glyph name="asciicircum" format="1">
  <advance width="530"/>
  <outline>
    <contour>
      <point x="64" y="235" type="line"/>
      <point x="127" y="186" type="line"/>
      <point x="286" y="447" type="line"/>
      <point x="244" y="447" type="line"/>
      <point x="403" y="186" type="line"/>
      <point x="466" y="235" type="line"/>
      <point x="306" y="498" type="line"/>
      <point x="224" y="498" type="line"/>
    </contour>
  </outline>
</glyph>
<glyph name="asciitilde" format="1">
  <advance width="530"/>
  <outline>
    <contour>
      <point x="285" y="380" type="curve" smooth="yes"/>
      <point x="241" y="415"/>
      <point x="205" y="434"/>
      <point x="161" y="434" type="curve" smooth="yes"/>
      <point x="97" y="434"/>
      <point x="45" y="397"/>
      <point x="38" y="269" type="curve"/>
      <point x="106" y="261" type="line"/>
      <point x="117" y="340"/>
      <point x="141" y="354"/>
      <point x="166" y="354" type="curve" smooth="yes"/>
      <point x="188" y="354"/>
      <point x="203" y="344"/>
      <point x="245" y="310" type="curve" smooth="yes"/>
      <point x="289" y="275"/>
      <point x="325" y="256"/>
      <point x="369" y="256" type="curve" smooth="yes"/>
      <point x="433" y="256"/>
      <point x="485" y="293"/>
      <point x="492" y="421" type="curve"/>
      <point x="424" y="429" type="line"/>
      <point x="413" y="350"/>
      <point x="389" y="336"/>
      <point x="363" y="336" type="curve" smooth="yes"/>
      <point x="342" y="336"/>
      <point x="327" y="346"/>
    </contour>
  </outline>
</glyph>
<glyph name="asterisk" format="1">
  <advance width="434"/>
  <outline>
    <contour>
      <point x="217" y="740" type="curve" smooth="yes"/>
      <point x="188" y="740"/>
      <point x="168" y="724"/>
      <point x="168" y="685" type="curve" smooth="yes"/>
      <point x="168" y="666"/>
      <point x="176" y="637"/>
      <point x="187" y="600" type="curve" smooth="yes"/>
      <point x="199" y="560" type="line"/>
      <point x="165" y="584" type="line" smooth="yes"/>
      <point x="115" y="619"/>
      <point x="93" y="634"/>
      <point x="69" y="634" type="curve" smooth="yes"/>
      <point x="39" y="634"/>
      <point x="20" y="610"/>
      <point x="20" y="580" type="curve" smooth="yes"/>
      <point x="20" y="544"/>
      <point x="47" y="529"/>
      <point x="147" y="527" type="curve" smooth="yes"/>
      <point x="188" y="526" type="line"/>
      <point x="155" y="502" type="line" smooth="yes"/>
      <point x="91" y="456"/>
      <point x="75" y="434"/>
      <point x="75" y="409" type="curve" smooth="yes"/>
      <point x="75" y="381"/>
      <point x="100" y="360"/>
      <point x="127" y="360" type="curve" smooth="yes"/>
      <point x="154" y="360"/>
      <point x="175" y="382"/>
      <point x="204" y="467" type="curve" smooth="yes"/>
      <point x="217" y="505" type="line"/>
      <point x="230" y="467" type="line" smooth="yes"/>
      <point x="260" y="378"/>
      <point x="279" y="360"/>
      <point x="306" y="360" type="curve" smooth="yes"/>
      <point x="334" y="360"/>
      <point x="358" y="379"/>
      <point x="358" y="408" type="curve" smooth="yes"/>
      <point x="358" y="433"/>
      <point x="338" y="459"/>
      <point x="279" y="502" type="curve" smooth="yes"/>
      <point x="246" y="526" type="line"/>
      <point x="287" y="527" type="line" smooth="yes"/>
      <point x="390" y="529"/>
      <point x="414" y="544"/>
      <point x="414" y="580" type="curve" smooth="yes"/>
      <point x="414" y="611"/>
      <point x="395" y="633"/>
      <point x="366" y="633" type="curve" smooth="yes"/>
      <point x="342" y="633"/>
      <point x="315" y="617"/>
      <point x="269" y="584" type="curve" smooth="yes"/>
      <point x="235" y="560" type="line"/>
      <point x="247" y="600" type="line" smooth="yes"/>
      <point x="259" y="639"/>
      <point x="267" y="666"/>
      <point x="267" y="685" type="curve" smooth="yes"/>
      <point x="267" y="724"/>
      <point x="246" y="740"/>
    </contour>
  </outline>
</glyph>
<glyph name="at" format="1">
  <advance width="929"/>
  <outline>
    <contour>
      <point x="438" y="114" type="curve" smooth="yes"/>
      <point x="396" y="114"/>
      <point x="370" y="145"/>
      <point x="370" y="207" type="curve" smooth="yes"/>
      <point x="370" y="270"/>
      <point x="389" y="320"/>
      <point x="421" y="361" type="curve" smooth="yes"/>
      <point x="452" y="401"/>
      <point x="485" y="417"/>
      <point x="519" y="417" type="curve" smooth="yes"/>
      <point x="548" y="417"/>
      <point x="574" y="404"/>
      <point x="596" y="353" type="curve"/>
      <point x="635" y="407" type="line"/>
      <point x="608" y="453"/>
      <point x="566" y="480"/>
      <point x="511" y="480" type="curve" smooth="yes"/>
      <point x="456" y="480"/>
      <point x="396" y="449"/>
      <point x="349" y="401" type="curve" smooth="yes"/>
      <point x="292" y="342"/>
      <point x="256" y="260"/>
      <point x="256" y="173" type="curve" smooth="yes"/>
      <point x="256" y="77"/>
      <point x="308" y="34"/>
      <point x="374" y="34" type="curve" smooth="yes"/>
      <point x="449" y="34"/>
      <point x="504" y="80"/>
      <point x="571" y="176" type="curve"/>
      <point x="566" y="200" type="line"/>
      <point x="496" y="132"/>
      <point x="471" y="114"/>
    </contour>
    <contour>
      <point x="508" y="608" type="curve" smooth="yes"/>
      <point x="685" y="608"/>
      <point x="803" y="526"/>
      <point x="803" y="326" type="curve" smooth="yes"/>
      <point x="803" y="170"/>
      <point x="744" y="104"/>
      <point x="672" y="104" type="curve" smooth="yes"/>
      <point x="630" y="104"/>
      <point x="619" y="127"/>
      <point x="629" y="182" type="curve" smooth="yes"/>
      <point x="681" y="456" type="line"/>
      <point x="662" y="473" type="line"/>
      <point x="561" y="423" type="line"/>
      <point x="513" y="165" type="line" smooth="yes"/>
      <point x="502" y="105"/>
      <point x="538" y="34"/>
      <point x="635" y="34" type="curve" smooth="yes"/>
      <point x="776" y="34"/>
      <point x="894" y="150"/>
      <point x="894" y="338" type="curve" smooth="yes"/>
      <point x="894" y="537"/>
      <point x="750" y="670"/>
      <point x="528" y="670" type="curve" smooth="yes"/>
      <point x="253" y="670"/>
      <point x="35" y="484"/>
      <point x="35" y="191" type="curve" smooth="yes"/>
      <point x="35" y="-30"/>
      <point x="175" y="-185"/>
      <point x="423" y="-185" type="curve" smooth="yes"/>
      <point x="511" y="-185"/>
      <point x="581" y="-168"/>
      <point x="644" y="-131" type="curve"/>
      <point x="626" y="-85" type="line"/>
      <point x="574" y="-108"/>
      <point x="528" y="-123"/>
      <point x="439" y="-123" type="curve" smooth="yes"/>
      <point x="230" y="-123"/>
      <point x="126" y="25"/>
      <point x="126" y="194" type="curve" smooth="yes"/>
      <point x="126" y="457"/>
      <point x="324" y="608"/>
    </contour>
  </outline>
</glyph>
<glyph name="b" format="1">
  <advance width="599"/>
  <outline>
    <contour>
      <point x="92" y="0" type="curve"/>
      <point x="131" y="64" type="line"/>
      <point x="33" y="44" type="line"/>
      <point x="33" y="0" type="line"/>
      <point x="211" y="-15" type="line"/>
      <point x="217" y="43" type="line"/>
      <point x="238" y="43" type="line"/>
      <point x="231" y="80" type="line"/>
      <point x="231" y="407" type="line"/>
      <point x="228" y="420" type="line"/>
      <point x="228" y="570" type="line"/>
      <point x="232" y="712" type="line"/>
      <point x="218" y="720" type="line"/>
      <point x="20" y="675" type="line"/>
      <point x="20" y="635" type="line"/>
      <point x="95" y="626" type="line"/>
      <point x="95" y="210" type="line" smooth="yes"/>
      <point x="95" y="148"/>
      <point x="94" y="45"/>
    </contour>
    <contour>
      <point x="424" y="241" type="curve" smooth="yes"/>
      <point x="424" y="119"/>
      <point x="375" y="62"/>
      <point x="314" y="62" type="curve" smooth="yes"/>
      <point x="265" y="62"/>
      <point x="218" y="99"/>
      <point x="170" y="146" type="curve"/>
      <point x="161" y="128" type="line"/>
      <point x="210" y="37"/>
      <point x="264" y="-15"/>
      <point x="356" y="-15" type="curve" smooth="yes"/>
      <point x="475" y="-15"/>
      <point x="569" y="83"/>
      <point x="569" y="244" type="curve" smooth="yes"/>
      <point x="569" y="412"/>
      <point x="484" y="498"/>
      <point x="371" y="498" type="curve" smooth="yes"/>
      <point x="277" y="498"/>
      <point x="221" y="443"/>
      <point x="161" y="353" type="curve"/>
      <point x="170" y="336" type="line"/>
      <point x="215" y="381"/>
      <point x="269" y="420"/>
      <point x="321" y="420" type="curve" smooth="yes"/>
      <point x="385" y="420"/>
      <point x="424" y="363"/>
    </contour>
  </outline>
</glyph>
<glyph name="b.sups" format="1">
  <advance width="411"/>
  <outline>
    <contour>
      <point x="62" y="415" type="line"/>
      <point x="89" y="459" type="line"/>
      <point x="23" y="446" type="line"/>
      <point x="23" y="415" type="line"/>
      <point x="150" y="408" type="line"/>
      <point x="160" y="477" type="line"/>
      <point x="160" y="882" type="line"/>
      <point x="149" y="887" type="line"/>
      <point x="13" y="857" type="line"/>
      <point x="13" y="829" type="line"/>
      <point x="62" y="823" type="line"/>
    </contour>
    <contour>
      <point x="289" y="572" type="curve" smooth="yes"/>
      <point x="289" y="483"/>
      <point x="255" y="455"/>
      <point x="220" y="455" type="curve" smooth="yes"/>
      <point x="186" y="455"/>
      <point x="156" y="481"/>
      <point x="123" y="512" type="curve"/>
      <point x="117" y="498" type="line"/>
      <point x="151" y="437"/>
      <point x="191" y="405"/>
      <point x="245" y="405" type="curve" smooth="yes"/>
      <point x="317" y="405"/>
      <point x="391" y="461"/>
      <point x="391" y="574" type="curve" smooth="yes"/>
      <point x="391" y="690"/>
      <point x="323" y="740"/>
      <point x="258" y="740" type="curve" smooth="yes"/>
      <point x="201" y="740"/>
      <point x="157" y="705"/>
      <point x="117" y="647" type="curve"/>
      <point x="123" y="633" type="line"/>
      <point x="158" y="668"/>
      <point x="194" y="690"/>
      <point x="224" y="690" type="curve" smooth="yes"/>
      <point x="254" y="690"/>
      <point x="289" y="667"/>
    </contour>
  </outline>
</glyph>
<glyph name="bar" format="1">
  <advance width="280"/>
  <outline>
    <contour>
      <point x="97" y="-250" type="line"/>
      <point x="183" y="-250" type="line"/>
      <point x="183" y="750" type="line"/>
      <point x="97" y="750" type="line"/>
    </contour>
  </outline>
</glyph>
<glyph name="braceleft" format="1">
  <advance width="339"/>
  <outline>
    <contour>
      <point x="40" y="253" type="line"/>
      <point x="124" y="243"/>
      <point x="150" y="216"/>
      <point x="150" y="169" type="curve" smooth="yes"/>
      <point x="150" y="105"/>
      <point x="99" y="45"/>
      <point x="99" y="-29" type="curve" smooth="yes"/>
      <point x="99" y="-117"/>
      <point x="169" y="-159"/>
      <point x="272" y="-159" type="curve" smooth="yes"/>
      <point x="309" y="-159" type="line"/>
      <point x="309" y="-105" type="line"/>
      <point x="282" y="-102" type="line" smooth="yes"/>
      <point x="234" y="-97"/>
      <point x="214" y="-75"/>
      <point x="214" y="-34" type="curve" smooth="yes"/>
      <point x="214" y="43"/>
      <point x="230" y="97"/>
      <point x="230" y="147" type="curve" smooth="yes"/>
      <point x="230" y="232"/>
      <point x="181" y="288"/>
      <point x="75" y="288" type="curve"/>
      <point x="75" y="268" type="line"/>
      <point x="181" y="268"/>
      <point x="230" y="324"/>
      <point x="230" y="409" type="curve" smooth="yes"/>
      <point x="230" y="459"/>
      <point x="214" y="513"/>
      <point x="214" y="590" type="curve" smooth="yes"/>
      <point x="214" y="631"/>
      <point x="234" y="653"/>
      <point x="282" y="658" type="curve" smooth="yes"/>
      <point x="309" y="661" type="line"/>
      <point x="309" y="715" type="line"/>
      <point x="272" y="715" type="line" smooth="yes"/>
      <point x="169" y="715"/>
      <point x="99" y="673"/>
      <point x="99" y="585" type="curve" smooth="yes"/>
      <point x="99" y="511"/>
      <point x="150" y="451"/>
      <point x="150" y="387" type="curve" smooth="yes"/>
      <point x="150" y="340"/>
      <point x="124" y="313"/>
      <point x="40" y="303" type="curve"/>
    </contour>
  </outline>
</glyph>
<glyph name="bracketleft" format="1">
  <advance width="339"/>
  <outline>
    <contour>
      <point x="163" y="-159" type="line"/>
      <point x="319" y="-159" type="line"/>
      <point x="319" y="-109" type="line"/>
      <point x="176" y="-94" type="line"/>
      <point x="163" y="-94" type="line"/>
    </contour>
    <contour>
      <point x="163" y="650" type="line"/>
      <point x="176" y="650" type="line"/>
      <point x="319" y="665" type="line"/>
      <point x="319" y="715" type="line"/>
      <point x="163" y="715" type="line"/>
    </contour>
    <contour>
      <point x="103" y="158" type="line"/>
      <point x="103" y="51"/>
      <point x="103" y="-56"/>
      <point x="100" y="-159" type="curve"/>
      <point x="226" y="-159" type="line"/>
      <point x="223" y="-54"/>
      <point x="223" y="53"/>
      <point x="223" y="158" type="curve" smooth="yes"/>
      <point x="223" y="398" type="line" smooth="yes"/>
      <point x="223" y="505"/>
      <point x="223" y="612"/>
      <point x="226" y="715" type="curve"/>
      <point x="100" y="715" type="line"/>
      <point x="103" y="610"/>
      <point x="103" y="503"/>
      <point x="103" y="398" type="curve" smooth="yes"/>
    </contour>
  </outline>
</glyph>
<glyph name="brevecmb.cap" format="1">
  <advance width="0"/>
  <outline>
    <contour>
      <point x="0" y="715" type="curve" smooth="yes"/>
      <point x="103" y="715"/>
      <point x="151" y="777"/>
      <point x="165" y="849" type="curve"/>
      <point x="119" y="867" type="line"/>
      <point x="97" y="822"/>
      <point x="59" y="795"/>
      <point x="0" y="795" type="curve" smooth="yes"/>
      <point x="-59" y="795"/>
      <point x="-96" y="822"/>
      <point x="-119" y="867" type="curve"/>
      <point x="-165" y="849" type="line"/>
      <point x="-151" y="777"/>
      <point x="-103" y="715"/>
    </contour>
  </outline>
</glyph>
<glyph name="brevecmb.cyrcap" format="1">
	<outline>
		<contour>
			<point x="0" y="705" type="curve" smooth="yes"/>
			<point x="104" y="705"/>
			<point x="187" y="754"/>
			<point x="187" y="850" type="curve"/>
			<point x="176" y="875"/>
			<point x="160" y="888"/>
			<point x="133" y="888" type="curve" smooth="yes"/>
			<point x="104" y="888"/>
			<point x="73" y="869"/>
			<point x="73" y="800" type="curve" smooth="yes"/>
			<point x="73" y="778"/>
			<point x="77" y="759"/>
			<point x="81" y="736" type="curve"/>
			<point x="121" y="789" type="line"/>
			<point x="90" y="766"/>
			<point x="38" y="756"/>
			<point x="0" y="756" type="curve" smooth="yes"/>
			<point x="-38" y="756"/>
			<point x="-90" y="766"/>
			<point x="-121" y="789" type="curve"/>
			<point x="-81" y="736" type="line"/>
			<point x="-77" y="759"/>
			<point x="-73" y="778"/>
			<point x="-73" y="800" type="curve" smooth="yes"/>
			<point x="-73" y="869"/>
			<point x="-104" y="888"/>
			<point x="-133" y="888" type="curve" smooth="yes"/>
			<point x="-160" y="888"/>
			<point x="-176" y="875"/>
			<point x="-187" y="850" type="curve"/>
			<point x="-187" y="754"/>
			<point x="-104" y="705"/>
		</contour>
		<contour>
			<point name="_aboveUC" x="0" y="685" type="move"/>
		</contour>
	</outline>
</glyph>
<glyph name="brevecmb" format="1">
  <advance width="0"/>
  <outline>
    <contour>
      <point x="0" y="575" type="curve" smooth="yes"/>
      <point x="105" y="575"/>
      <point x="154" y="658"/>
      <point x="160" y="729" type="curve"/>
      <point x="118" y="743" type="line"/>
      <point x="99" y="695"/>
      <point x="56" y="656"/>
      <point x="0" y="656" type="curve" smooth="yes"/>
      <point x="-56" y="656"/>
      <point x="-98" y="694"/>
      <point x="-118" y="743" type="curve"/>
      <point x="-160" y="729" type="line"/>
      <point x="-154" y="658"/>
      <point x="-105" y="575"/>
    </contour>
  </outline>
</glyph>
<glyph name="brevecmb.cap" format="1">
  <advance width="0"/>
  <outline>
    <contour>
      <point x="0" y="720" type="curve" smooth="yes"/>
      <point x="104" y="720"/>
      <point x="152" y="795"/>
      <point x="158" y="859" type="curve"/>
      <point x="116" y="872" type="line"/>
      <point x="99" y="829"/>
      <point x="56" y="794"/>
      <point x="0" y="794" type="curve" smooth="yes"/>
      <point x="-56" y="794"/>
      <point x="-98" y="828"/>
      <point x="-116" y="872" type="curve"/>
      <point x="-158" y="859" type="line"/>
      <point x="-152" y="795"/>
      <point x="-104" y="720"/>
    </contour>
  </outline>
</glyph>
<glyph name="bullet" format="1">
  <advance width="320"/>
  <outline>
    <contour>
      <point x="160" y="199" type="curve" smooth="yes"/>
      <point x="228" y="199"/>
      <point x="285" y="249"/>
      <point x="285" y="325" type="curve" smooth="yes"/>
      <point x="285" y="401"/>
      <point x="228" y="451"/>
      <point x="160" y="451" type="curve" smooth="yes"/>
      <point x="92" y="451"/>
      <point x="35" y="401"/>
      <point x="35" y="325" type="curve" smooth="yes"/>
      <point x="35" y="249"/>
      <point x="92" y="199"/>
    </contour>
  </outline>
</glyph>
<glyph name="c" format="1">
  <advance width="510"/>
  <outline>
    <contour>
      <point x="317" y="448" type="curve" smooth="yes"/>
      <point x="342" y="448"/>
      <point x="365" y="441"/>
      <point x="398" y="423" type="curve"/>
      <point x="347" y="465" type="line"/>
      <point x="351" y="391" type="line" smooth="yes"/>
      <point x="354" y="332"/>
      <point x="384" y="309"/>
      <point x="421" y="309" type="curve" smooth="yes"/>
      <point x="452" y="309"/>
      <point x="473" y="325"/>
      <point x="480" y="357" type="curve"/>
      <point x="479" y="437"/>
      <point x="400" y="498"/>
      <point x="292" y="498" type="curve" smooth="yes"/>
      <point x="152" y="498"/>
      <point x="35" y="401"/>
      <point x="35" y="240" type="curve" smooth="yes"/>
      <point x="35" y="78"/>
      <point x="130" y="-15"/>
      <point x="276" y="-15" type="curve" smooth="yes"/>
      <point x="376" y="-15"/>
      <point x="455" y="33"/>
      <point x="479" y="119" type="curve"/>
      <point x="445" y="138" type="line"/>
      <point x="414" y="87"/>
      <point x="378" y="63"/>
      <point x="325" y="63" type="curve" smooth="yes"/>
      <point x="241" y="63"/>
      <point x="180" y="125"/>
      <point x="180" y="255" type="curve" smooth="yes"/>
      <point x="180" y="381"/>
      <point x="243" y="448"/>
    </contour>
  </outline>
</glyph>
